<svg width="65" height="64" viewBox="0 0 65 64" fill="none" xmlns="http://www.w3.org/2000/svg">
<path d="M60.2809 26.1931C61.008 24.0386 61.2602 21.7558 61.0207 19.4974C60.7811 17.239 60.0555 15.0572 58.8922 13.098C57.1678 10.1345 54.5337 7.78816 51.3701 6.3976C48.2066 5.00706 44.677 4.64415 41.2907 5.36125C39.7633 3.66288 37.886 2.306 35.7841 1.38146C33.6822 0.45692 31.4045 -0.0139693 29.1033 0.000315537C25.6412 -0.00792926 22.2659 1.06885 19.464 3.07542C16.662 5.08198 14.5783 7.91466 13.5132 11.165C11.2579 11.6206 9.12711 12.5462 7.26365 13.8801C5.40019 15.2139 3.84702 16.9251 2.70812 18.8992C0.969898 21.8546 0.227928 25.2781 0.589205 28.6765C0.950485 32.0747 2.39634 35.2718 4.71825 37.8069C3.99123 39.9614 3.73902 42.2442 3.97852 44.5026C4.21801 46.761 4.94367 48.9427 6.10693 50.9021C7.83155 53.8654 10.4656 56.2115 13.6292 57.6021C16.7927 58.9926 20.3223 59.3557 23.7085 58.6387C25.2358 60.3371 27.1133 61.6939 29.215 62.6186C31.3169 63.543 33.5946 64.0139 35.8958 63.9997C39.3597 64.0087 42.7368 62.9314 45.5397 60.9235C48.3428 58.9157 50.4268 56.081 51.4911 52.8286C53.7464 52.3731 55.8771 51.4475 57.7407 50.1136C59.604 48.7798 61.1572 47.0685 62.2962 45.0944C64.0323 42.1394 64.7725 38.7166 64.4102 35.3197C64.0481 31.9227 62.6022 28.727 60.2809 26.1931ZM35.901 59.8158C33.0576 59.8198 30.3035 58.8373 28.12 57.0402C28.2184 56.9872 28.3911 56.8938 28.5037 56.8258L41.4186 49.465C41.7428 49.283 42.0119 49.0192 42.1984 48.7005C42.3851 48.3818 42.4822 48.0198 42.4799 47.652V29.6867L47.9388 32.7968C47.9674 32.8109 47.992 32.8317 48.0107 32.8574C48.0292 32.8832 48.0408 32.9131 48.0449 32.9443V47.8222C48.0408 51 46.7604 54.0466 44.4842 56.2946C42.208 58.5427 39.1215 59.809 35.901 59.8158ZM9.78452 48.8102C8.36028 46.3821 7.84697 43.5371 8.33445 40.7731C8.43035 40.8299 8.59786 40.9309 8.71807 40.999L21.633 48.3597C21.9549 48.5453 22.321 48.6432 22.6938 48.6432C23.0665 48.6432 23.4326 48.5453 23.7545 48.3597L39.5223 39.3765V45.5966C39.5241 45.6283 39.5179 45.6602 39.5043 45.689C39.4907 45.7178 39.4701 45.7429 39.4443 45.7619L26.3886 53.1995C23.5961 54.7866 20.2795 55.2155 17.1667 54.3926C14.0538 53.5698 11.3989 51.5621 9.78452 48.8102ZM6.38697 20.991C7.80503 18.5597 10.0448 16.6982 12.714 15.7323C12.714 15.8421 12.7077 16.0365 12.7077 16.1714V30.8928C12.7054 31.2605 12.8024 31.6221 12.9887 31.9406C13.175 32.259 13.4439 32.5227 13.7677 32.7046L29.5355 41.6867L24.0767 44.7966C24.0498 44.8142 24.0188 44.8248 23.9867 44.8277C23.9546 44.8306 23.9222 44.8256 23.8925 44.8131L10.8356 37.3691C8.04793 35.7762 6.01416 33.1576 5.18022 30.0874C4.34629 27.0173 4.78026 23.7461 6.38697 20.991ZM51.2367 31.289L35.4687 22.3058L40.9276 19.197C40.9545 19.1795 40.9855 19.1688 41.0176 19.1659C41.0497 19.163 41.082 19.1682 41.1116 19.1806L54.1686 26.6182C56.169 27.7584 57.7987 29.4371 58.8672 31.4581C59.9355 33.479 60.3981 35.7584 60.2011 38.0294C60.0041 40.3005 59.1552 42.4691 57.7543 44.2814C56.3532 46.0938 54.4579 47.4747 52.2902 48.2626C52.2902 48.1515 52.2902 47.9573 52.2902 47.8222V33.1008C52.2933 32.7338 52.1973 32.3725 52.0121 32.0541C51.8269 31.7357 51.5593 31.4717 51.2367 31.289ZM56.6698 23.2205C56.5739 23.1624 56.4064 23.0627 56.2863 22.9947L43.3712 15.6339C43.0493 15.4486 42.6833 15.3509 42.3105 15.3509C41.9378 15.3509 41.5717 15.4486 41.2498 15.6339L25.482 24.6173V18.3971C25.4802 18.3653 25.4864 18.3336 25.5 18.3048C25.5136 18.276 25.5342 18.2509 25.56 18.2318L38.6157 10.8004C40.6158 9.66245 42.903 9.11002 45.2097 9.20771C47.5164 9.30542 49.7471 10.0492 51.6411 11.3521C53.5349 12.655 55.0137 14.4631 55.9042 16.565C56.7948 18.6667 57.0604 20.9752 56.6698 23.2205ZM22.5142 34.307L17.054 31.197C17.0254 31.1829 17.0006 31.1621 16.9821 31.1363C16.9636 31.1106 16.9518 31.0806 16.9479 31.0493V16.1714C16.9494 13.8927 17.6087 11.6616 18.8486 9.73914C20.0886 7.8167 21.8579 6.28255 23.9494 5.31622C26.041 4.3499 28.3681 3.99142 30.6586 4.28272C32.9492 4.57402 35.1082 5.50306 36.883 6.96107C36.7846 7.01406 36.6132 7.10744 36.4994 7.17557L23.5844 14.5363C23.2603 14.718 22.9912 14.9817 22.8046 15.3002C22.6181 15.6186 22.521 15.9803 22.5231 16.348L22.5142 34.307ZM25.4794 27.9986L32.5022 23.9965L39.5248 27.996V35.9976L32.5022 39.9973L25.4794 35.9976V27.9986Z" fill="#65CD76"/>
</svg>
