<svg width="65" height="64" viewBox="0 0 65 64" fill="none" xmlns="http://www.w3.org/2000/svg">
<path d="M32.5 50.6654C41.3267 50.6654 48.5 43.492 48.5 34.6654V21.332C48.5 12.5054 41.3267 5.33203 32.5 5.33203C23.6733 5.33203 16.5 12.5054 16.5 21.332V34.6654C16.5 43.492 23.6733 50.6654 32.5 50.6654Z" stroke="url(#paint0_linear_168_18315)" stroke-width="4" stroke-linecap="round" stroke-linejoin="round"/>
<path d="M8.5 29.332V34.6654C8.5 47.9187 19.2467 58.6654 32.5 58.6654C45.7533 58.6654 56.5 47.9187 56.5 34.6654V29.332" stroke="url(#paint1_linear_168_18315)" stroke-width="4" stroke-linecap="round" stroke-linejoin="round"/>
<path d="M24.793 19.9445C29.5396 18.2112 34.713 18.2112 39.4596 19.9445" stroke="url(#paint2_linear_168_18315)" stroke-width="4" stroke-linecap="round" stroke-linejoin="round"/>
<path d="M27.2461 27.9452C30.4461 27.0652 33.8328 27.0652 37.0328 27.9452" stroke="url(#paint3_linear_168_18315)" stroke-width="4" stroke-linecap="round" stroke-linejoin="round"/>
<defs>
<linearGradient id="paint0_linear_168_18315" x1="13.9054" y1="21.0243" x2="52.1844" y2="21.3178" gradientUnits="userSpaceOnUse">
<stop stop-color="#8F31E3"/>
<stop offset="1" stop-color="#4447E3"/>
</linearGradient>
<linearGradient id="paint1_linear_168_18315" x1="4.60811" y1="39.4859" x2="62.0119" y2="40.506" gradientUnits="userSpaceOnUse">
<stop stop-color="#8F31E3"/>
<stop offset="1" stop-color="#4447E3"/>
</linearGradient>
<linearGradient id="paint2_linear_168_18315" x1="23.6038" y1="19.0945" x2="40.8899" y2="21.2125" gradientUnits="userSpaceOnUse">
<stop stop-color="#8F31E3"/>
<stop offset="1" stop-color="#4447E3"/>
</linearGradient>
<linearGradient id="paint3_linear_168_18315" x1="26.4526" y1="27.5136" x2="37.8643" y2="29.3513" gradientUnits="userSpaceOnUse">
<stop stop-color="#8F31E3"/>
<stop offset="1" stop-color="#4447E3"/>
</linearGradient>
</defs>
</svg>
