<svg width="32" height="32" viewBox="0 0 32 32" fill="none" xmlns="http://www.w3.org/2000/svg">
<rect width="32" height="32" rx="2.90909" fill="#10A37F"/>
<path d="M25.7488 13.9228C26.0055 13.152 26.0945 12.3354 26.0099 11.5276C25.9254 10.7197 25.6693 9.93918 25.2586 9.2383C24.65 8.17819 23.7203 7.33886 22.6036 6.84143C21.487 6.344 20.2412 6.21418 19.046 6.4707C18.5069 5.86316 17.8443 5.37777 17.1024 5.04704C16.3605 4.71631 15.5566 4.54786 14.7443 4.55297C13.5223 4.55002 12.331 4.93521 11.342 5.65301C10.353 6.3708 9.61756 7.38412 9.24162 8.54685C8.44555 8.70981 7.69348 9.04094 7.03575 9.51809C6.37802 9.99523 5.82981 10.6074 5.42782 11.3135C4.81429 12.3707 4.55241 13.5954 4.67992 14.8111C4.80744 16.0267 5.31777 17.1704 6.13732 18.0773C5.88071 18.848 5.79169 19.6646 5.87622 20.4725C5.96075 21.2804 6.21688 22.0608 6.62747 22.7617C7.23619 23.8218 8.16593 24.661 9.28255 25.1585C10.3992 25.6559 11.6449 25.7858 12.8401 25.5293C13.3792 26.1369 14.0419 26.6222 14.7838 26.953C15.5256 27.2837 16.3296 27.4521 17.1418 27.4471C18.3644 27.4503 19.5564 27.0649 20.5457 26.3466C21.5351 25.6284 22.2707 24.6143 22.6463 23.4509C23.4424 23.288 24.1945 22.9568 24.8522 22.4797C25.5099 22.0026 26.0581 21.3904 26.4601 20.6842C27.0729 19.6271 27.3342 18.4027 27.2063 17.1875C27.0785 15.9724 26.5681 14.8292 25.7488 13.9228ZM17.1436 25.9504C16.14 25.9518 15.1679 25.6003 14.3972 24.9575C14.432 24.9385 14.4929 24.9051 14.5327 24.8808L19.0911 22.2476C19.2056 22.1826 19.3006 22.0882 19.3664 21.9742C19.4323 21.8602 19.4666 21.7307 19.4658 21.5991V15.1725L21.3925 16.285C21.4026 16.2901 21.4113 16.2975 21.4179 16.3067C21.4244 16.316 21.4285 16.3267 21.43 16.3378V21.66C21.4285 22.7968 20.9766 23.8866 20.1732 24.6907C19.3698 25.495 18.2803 25.9479 17.1436 25.9504ZM7.92552 22.0134C7.42282 21.1448 7.24164 20.1271 7.4137 19.1384C7.44755 19.1587 7.50667 19.1948 7.5491 19.2192L12.1076 21.8523C12.2212 21.9186 12.3504 21.9537 12.482 21.9537C12.6135 21.9537 12.7428 21.9186 12.8564 21.8523L18.4218 18.6388V20.8638C18.4225 20.8752 18.4203 20.8866 18.4155 20.8969C18.4107 20.9072 18.4034 20.9162 18.3943 20.923L13.7861 23.5836C12.8005 24.1513 11.6298 24.3047 10.5311 24.0104C9.43242 23.716 8.49535 22.9978 7.92552 22.0134ZM6.72632 12.0618C7.22684 11.1921 8.01739 10.5262 8.95953 10.1807C8.95953 10.2199 8.95727 10.2895 8.95727 10.3377V15.6039C8.95647 15.7355 8.99072 15.8648 9.05648 15.9788C9.12223 16.0927 9.21714 16.187 9.33144 16.2521L14.8969 19.4652L12.9701 20.5777C12.9606 20.584 12.9497 20.5877 12.9384 20.5888C12.927 20.5898 12.9156 20.588 12.9051 20.5836L8.29652 17.9207C7.31257 17.3508 6.59472 16.4141 6.30038 15.3158C6.00603 14.2176 6.15921 13.0474 6.72632 12.0618ZM22.5565 15.7457L16.9911 12.5322L18.9178 11.4201C18.9273 11.4138 18.9383 11.41 18.9496 11.409C18.9609 11.4079 18.9723 11.4098 18.9828 11.4142L23.5914 14.0748C24.2975 14.4827 24.8727 15.0832 25.2498 15.8062C25.6269 16.5291 25.7902 17.3445 25.7207 18.1569C25.6511 18.9693 25.3515 19.7451 24.857 20.3934C24.3625 21.0417 23.6935 21.5357 22.9284 21.8175C22.9284 21.7778 22.9284 21.7083 22.9284 21.66V16.3938C22.9295 16.2625 22.8956 16.1333 22.8302 16.0194C22.7649 15.9055 22.6704 15.811 22.5565 15.7457ZM24.4742 12.8594C24.4404 12.8386 24.3813 12.8029 24.3389 12.7786L19.7803 10.1455C19.6667 10.0792 19.5375 10.0442 19.4059 10.0442C19.2744 10.0442 19.1452 10.0792 19.0316 10.1455L13.4661 13.359V11.1339C13.4655 11.1226 13.4677 11.1112 13.4725 11.1009C13.4773 11.0906 13.4846 11.0816 13.4937 11.0748L18.1018 8.41641C18.8078 8.00934 19.6151 7.81172 20.4293 7.84667C21.2434 7.88163 22.0308 8.1477 22.6993 8.61378C23.3677 9.07986 23.8897 9.72666 24.204 10.4785C24.5184 11.2304 24.6121 12.0562 24.4742 12.8594ZM12.4186 16.8253L10.4914 15.7127C10.4813 15.7077 10.4725 15.7003 10.466 15.6911C10.4595 15.6818 10.4553 15.6711 10.4539 15.6599V10.3377C10.4544 9.52261 10.6872 8.72447 11.1248 8.03677C11.5625 7.34908 12.187 6.80027 12.9252 6.4546C13.6634 6.10892 14.4848 5.98068 15.2933 6.08489C16.1018 6.18909 16.8638 6.52143 17.4903 7.043C17.4555 7.06195 17.395 7.09536 17.3548 7.11973L12.7964 9.75282C12.6819 9.81785 12.587 9.91216 12.5211 10.0261C12.4553 10.14 12.421 10.2694 12.4217 10.4009L12.4186 16.8253ZM13.4652 14.5686L15.944 13.137L18.4227 14.5677V17.43L15.944 18.8608L13.4652 17.43V14.5686Z" fill="white"/>
</svg>
