<svg width="48" height="31" viewBox="0 0 48 31" fill="none" xmlns="http://www.w3.org/2000/svg">
<path fill-rule="evenodd" clip-rule="evenodd" d="M14.9242 0.0921522C16.5619 -0.0078478 18.1976 0.0001522 19.8353 0.0001522C19.8466 0.0001522 28.1336 0.0001522 28.1336 0.0001522C29.8033 0.0001522 31.4391 -0.0078478 33.0758 0.0921522C34.5638 0.182152 36.0132 0.374152 37.456 0.803152C40.4932 1.70515 43.1454 3.58915 45.0626 6.26015C46.9685 8.91415 48 12.1632 48 15.4992C48 18.8392 46.9685 22.0862 45.0626 24.7402C43.1454 27.4102 40.4932 29.2952 37.456 30.1972C36.0132 30.6262 34.5638 30.8172 33.0758 30.9082C31.4391 31.0082 29.8033 30.9992 28.1656 30.9992C28.1544 30.9992 19.8654 31.0002 19.8654 31.0002C18.1976 30.9992 16.5619 31.0082 14.9242 30.9082C13.4372 30.8172 11.9878 30.6262 10.5449 30.1972C7.50777 29.2952 4.85553 27.4102 2.93835 24.7402C1.03247 22.0862 0 18.8392 0 15.5002C0 12.1632 1.03247 8.91415 2.93835 6.26015C4.85553 3.58915 7.50777 1.70515 10.5449 0.803152C11.9878 0.374152 13.4372 0.182152 14.9242 0.0921522Z" fill="#65CD76"/>
<path fill-rule="evenodd" clip-rule="evenodd" d="M32.5 29C39.9558 29 46 22.9558 46 15.5C46 8.04416 39.9558 2 32.5 2C25.0442 2 19 8.04416 19 15.5C19 22.9558 25.0442 29 32.5 29Z" fill="white"/>
</svg>
