<svg width="179" height="60" viewBox="0 0 179 60" fill="none" xmlns="http://www.w3.org/2000/svg">
<g clip-path="url(#clip0_237_12403)">
<path d="M164.746 0.000195H14.2625C13.714 0.000195 13.172 0.000195 12.6249 0.003195C12.167 0.006195 11.7127 0.01491 11.2503 0.022245C10.2459 0.0340977 9.24379 0.122709 8.25278 0.28731C7.26316 0.455494 6.30454 0.772569 5.40934 1.22781C4.51523 1.6869 3.69827 2.28345 2.98807 2.9958C2.27415 3.70615 1.67904 4.52722 1.22563 5.42743C0.770964 6.32586 0.455698 7.2886 0.290719 8.28242C0.124172 9.27497 0.0345518 10.279 0.0226622 11.2854C0.00878066 11.7453 0.00731473 12.2067 0 12.6667V47.3381C0.00731473 47.8038 0.00878066 48.255 0.0226622 48.7209C0.0345555 49.7273 0.124176 50.7313 0.290719 51.7238C0.455242 52.7182 0.770527 53.6815 1.22563 54.5802C1.67884 55.4775 2.27403 56.2953 2.98807 57.0017C3.69557 57.7172 4.51307 58.3142 5.40934 58.7697C6.30453 59.2262 7.26305 59.5452 8.25278 59.7159C9.24396 59.8792 10.2459 59.9679 11.2503 59.9811C11.7127 59.9913 12.167 59.9972 12.6249 59.9972C13.172 60.0002 13.714 60.0002 14.2625 60.0002H164.746C165.283 60.0002 165.829 60.0002 166.367 59.9972C166.823 59.9972 167.29 59.9913 167.746 59.9811C168.749 59.9686 169.749 59.8799 170.738 59.7159C171.731 59.544 172.693 59.2251 173.592 58.7697C174.488 58.3139 175.304 57.717 176.011 57.0017C176.723 56.2925 177.32 55.4754 177.779 54.5802C178.23 53.6808 178.543 52.7176 178.705 51.7238C178.872 50.7311 178.964 49.7274 178.982 48.7209C178.988 48.255 178.988 47.8038 178.988 47.3381C179 46.7931 179 46.2512 179 45.6974V14.3044C179 13.7551 179 13.2102 178.988 12.6667C178.988 12.2067 178.988 11.7453 178.982 11.2854C178.964 10.2788 178.872 9.27505 178.705 8.28236C178.542 7.28912 178.23 6.32645 177.779 5.42737C176.855 3.62299 175.391 2.15423 173.592 1.22767C172.693 0.773546 171.731 0.456556 170.738 0.287175C169.749 0.121849 168.749 0.0332066 167.746 0.022035C167.29 0.014715 166.823 0.005925 166.367 0.003C165.829 0 165.283 0.000195 164.746 0.000195Z" fill="#A6A6A6"/>
<path d="M12.633 58.6875C12.1772 58.6875 11.7325 58.6816 11.2803 58.6714C10.3436 58.6592 9.40902 58.5774 8.48433 58.4268C7.62211 58.2779 6.78684 58.0009 6.00609 57.6049C5.2325 57.2123 4.52692 56.6974 3.91638 56.08C3.29701 55.47 2.78135 54.7624 2.38985 53.9853C1.99403 53.2032 1.7201 52.3648 1.5776 51.4995C1.42371 50.5697 1.34045 49.6295 1.32854 48.687C1.31906 48.3707 1.30664 47.3174 1.30664 47.3174V12.6665C1.30664 12.6665 1.31986 11.6294 1.32861 11.3247C1.34002 10.3837 1.4228 9.44498 1.57622 8.51659C1.71899 7.64888 1.99313 6.80812 2.38916 6.02344C2.77923 5.24692 3.29202 4.53879 3.90766 3.92652C4.52261 3.30843 5.23045 2.79091 6.00536 2.39281C6.78432 1.99814 7.618 1.7231 8.47848 1.57691C9.40621 1.42475 10.344 1.34249 11.284 1.33082L12.6337 1.3125H166.36L167.726 1.33155C168.658 1.34265 169.587 1.42417 170.506 1.57543C171.375 1.72346 172.218 2.00042 173.006 2.39721C174.558 3.19948 175.821 4.46874 176.618 6.02711C177.008 6.80637 177.278 7.64026 177.419 8.50048C177.574 9.43649 177.661 10.3826 177.679 11.3313C177.683 11.7561 177.683 12.2124 177.683 12.6665C177.695 13.229 177.695 13.7644 177.695 14.3042V45.6972C177.695 46.2421 177.695 46.7739 177.683 47.31C177.683 47.7978 177.683 48.2446 177.677 48.7046C177.66 49.6363 177.574 50.5655 177.422 51.4848C177.282 52.3564 177.01 53.2013 176.614 53.9898C176.22 54.7584 175.707 55.4599 175.095 56.0683C174.484 56.689 173.777 57.2069 173.001 57.6021C172.216 58.0011 171.375 58.2791 170.506 58.4268C169.582 58.5782 168.647 58.66 167.71 58.6714C167.272 58.6816 166.813 58.6875 166.368 58.6875L164.746 58.6905L12.633 58.6875Z" fill="black"/>
<path d="M37.153 30.4485C37.1691 29.1966 37.5017 27.969 38.1197 26.8801C38.7378 25.7911 39.6212 24.8762 40.6878 24.2205C40.0102 23.2527 39.1163 22.4563 38.0771 21.8945C37.0378 21.3326 35.8819 21.0209 34.7011 20.9839C32.1822 20.7195 29.7403 22.4912 28.4568 22.4912C27.1483 22.4912 25.1721 21.0102 23.044 21.054C21.6675 21.0984 20.326 21.4987 19.1502 22.2158C17.9743 22.9329 17.0043 23.9423 16.3346 25.1458C13.4336 30.1684 15.5975 37.55 18.3764 41.6099C19.7668 43.5979 21.3917 45.8186 23.5179 45.7398C25.5985 45.6535 26.3755 44.4131 28.887 44.4131C31.3751 44.4131 32.1042 45.7398 34.2735 45.6898C36.506 45.6535 37.9127 43.6929 39.2542 41.6861C40.2532 40.2695 41.0219 38.7039 41.5319 37.0473C40.2348 36.4987 39.1279 35.5804 38.3492 34.407C37.5706 33.2335 37.1545 31.8568 37.153 30.4485Z" fill="white"/>
<path d="M33.0554 18.3141C34.2727 16.8527 34.8724 14.9745 34.7272 13.0781C32.8674 13.2735 31.1495 14.1623 29.9158 15.5675C29.3126 16.254 28.8506 17.0527 28.5562 17.9178C28.2618 18.783 28.1409 19.6977 28.2002 20.6096C29.1304 20.6192 30.0507 20.4176 30.8917 20.02C31.7327 19.6223 32.4725 19.039 33.0554 18.3141Z" fill="white"/>
<path d="M63.4531 40.7115H56.353L54.6479 45.7461H51.6406L58.3657 27.1191H61.4902L68.2153 45.7461H65.1567L63.4531 40.7115ZM57.0884 38.3882H62.7164L59.942 30.2173H59.8643L57.0884 38.3882Z" fill="white"/>
<path d="M82.7398 38.9552C82.7398 43.1754 80.481 45.8868 77.0723 45.8868C76.2088 45.932 75.3501 45.7331 74.5944 45.3128C73.8387 44.8926 73.2166 44.2681 72.7994 43.5108H72.7349V50.2374H69.9473V32.1641H72.6456V34.4229H72.6968C73.1333 33.6692 73.7658 33.0479 74.5273 32.6252C75.2887 32.2024 76.1506 31.994 77.021 32.022C80.4678 32.022 82.7398 34.7466 82.7398 38.9552ZM79.8746 38.9552C79.8746 36.2057 78.4536 34.398 76.2857 34.398C74.1558 34.398 72.7232 36.2437 72.7232 38.9552C72.7232 41.6915 74.1558 43.524 76.2857 43.524C78.4537 43.524 79.8746 41.7296 79.8746 38.9552Z" fill="white"/>
<path d="M97.6871 38.9551C97.6871 43.1754 95.4283 45.8868 92.0196 45.8868C91.1561 45.9319 90.2973 45.733 89.5417 45.3128C88.786 44.8926 88.1639 44.2681 87.7466 43.5108H87.6821V50.2373H84.8945V32.1641H87.5928V34.4229H87.644C88.0805 33.6692 88.7131 33.0479 89.4745 32.6252C90.236 32.2024 91.0978 31.994 91.9683 32.022C95.4151 32.022 97.6871 34.7466 97.6871 38.9551ZM94.8218 38.9551C94.8218 36.2056 93.4009 34.398 91.2329 34.398C89.1031 34.398 87.6704 36.2437 87.6704 38.9551C87.6704 41.6915 89.1031 43.524 91.2329 43.524C93.4009 43.524 94.8218 41.7296 94.8218 38.9551Z" fill="white"/>
<path d="M107.564 40.5562C107.771 42.4034 109.565 43.6162 112.018 43.6162C114.367 43.6162 116.058 42.4033 116.058 40.7378C116.058 39.292 115.038 38.4263 112.624 37.833L110.21 37.2515C106.79 36.4253 105.202 34.8257 105.202 32.23C105.202 29.0161 108.002 26.8086 111.98 26.8086C115.916 26.8086 118.614 29.0161 118.705 32.23H115.891C115.722 30.3711 114.186 29.249 111.94 29.249C109.694 29.249 108.158 30.3843 108.158 32.0366C108.158 33.3535 109.139 34.1284 111.54 34.7216L113.592 35.2255C117.414 36.1294 119.002 37.6645 119.002 40.3891C119.002 43.874 116.226 46.0566 111.811 46.0566C107.68 46.0566 104.891 43.9252 104.711 40.5561L107.564 40.5562Z" fill="white"/>
<path d="M125.02 28.9531V32.167H127.602V34.3745H125.02V41.8613C125.02 43.0244 125.537 43.5664 126.672 43.5664C126.978 43.5611 127.285 43.5395 127.589 43.5019V45.6962C127.078 45.7916 126.56 45.8348 126.041 45.8252C123.291 45.8252 122.219 44.7924 122.219 42.1586V34.3745H120.244V32.167H122.219V28.9531H125.02Z" fill="white"/>
<path d="M129.098 38.958C129.098 34.6851 131.614 32 135.539 32C139.476 32 141.981 34.685 141.981 38.958C141.981 43.2427 139.489 45.916 135.539 45.916C131.589 45.916 129.098 43.2427 129.098 38.958ZM139.141 38.958C139.141 36.0269 137.797 34.2969 135.539 34.2969C133.28 34.2969 131.938 36.04 131.938 38.958C131.938 41.9009 133.28 43.6177 135.539 43.6177C137.797 43.6177 139.141 41.9009 139.141 38.958Z" fill="white"/>
<path d="M144.279 32.164H146.938V34.4755H147.002C147.182 33.7536 147.605 33.1156 148.2 32.6687C148.795 32.2219 149.526 31.9935 150.269 32.0219C150.59 32.0208 150.911 32.0557 151.224 32.1259V34.7333C150.819 34.6094 150.396 34.5525 149.972 34.5649C149.567 34.5484 149.163 34.6198 148.788 34.7742C148.413 34.9285 148.077 35.1621 147.801 35.4589C147.525 35.7558 147.316 36.1088 147.19 36.4938C147.063 36.8788 147.021 37.2867 147.067 37.6894V45.7446H144.279L144.279 32.164Z" fill="white"/>
<path d="M164.077 41.7588C163.702 44.2241 161.301 45.916 158.229 45.916C154.278 45.916 151.826 43.269 151.826 39.0225C151.826 34.7627 154.291 32 158.112 32C161.869 32 164.232 34.581 164.232 38.6987V39.6538H154.64V39.8223C154.596 40.3221 154.658 40.8256 154.824 41.2993C154.989 41.7731 155.253 42.2063 155.599 42.5701C155.944 42.9339 156.363 43.22 156.828 43.4095C157.292 43.599 157.792 43.6874 158.293 43.6689C158.952 43.7307 159.613 43.5781 160.178 43.2339C160.743 42.8898 161.182 42.3724 161.43 41.7588L164.077 41.7588ZM154.653 37.7056H161.443C161.468 37.2562 161.4 36.8065 161.243 36.3846C161.086 35.9628 160.843 35.578 160.53 35.2544C160.218 34.9307 159.841 34.6752 159.425 34.5039C159.009 34.3326 158.562 34.2491 158.112 34.2588C157.658 34.2561 157.208 34.3433 156.788 34.5154C156.368 34.6875 155.986 34.9411 155.664 35.2616C155.343 35.582 155.088 35.963 154.914 36.3825C154.741 36.8019 154.652 37.2516 154.653 37.7056Z" fill="white"/>
<path d="M56.7388 13.0961C57.3232 13.0542 57.9096 13.1424 58.4558 13.3546C59.002 13.5667 59.4942 13.8975 59.8971 14.3229C60.3 14.7483 60.6034 15.2579 60.7855 15.8148C60.9676 16.3717 61.0239 16.9621 60.9502 17.5434C60.9502 20.4027 59.4048 22.0464 56.7388 22.0464H53.5059V13.0961H56.7388ZM54.896 20.7806H56.5835C57.0011 20.8056 57.419 20.7371 57.8068 20.5802C58.1946 20.4232 58.5426 20.1818 58.8253 19.8735C59.108 19.5651 59.3185 19.1976 59.4413 18.7977C59.5641 18.3978 59.5961 17.9755 59.5351 17.5616C59.5917 17.1493 59.5564 16.7297 59.4317 16.3327C59.307 15.9357 59.0961 15.5712 58.814 15.2653C58.5319 14.9594 58.1856 14.7197 57.8 14.5633C57.4144 14.407 56.999 14.3379 56.5835 14.3609H54.896V20.7806Z" fill="white"/>
<path d="M62.5209 18.6686C62.4785 18.2248 62.5292 17.7769 62.67 17.3538C62.8108 16.9307 63.0384 16.5417 63.3383 16.2117C63.6382 15.8817 64.0038 15.6181 64.4116 15.4377C64.8193 15.2573 65.2603 15.1641 65.7062 15.1641C66.1521 15.1641 66.5931 15.2573 67.0009 15.4377C67.4087 15.6181 67.7742 15.8817 68.0741 16.2117C68.3741 16.5417 68.6017 16.9307 68.7425 17.3538C68.8832 17.7769 68.934 18.2248 68.8915 18.6686C68.9348 19.113 68.8846 19.5614 68.7442 19.9852C68.6039 20.409 68.3764 20.7987 68.0764 21.1294C67.7764 21.46 67.4105 21.7242 67.0023 21.905C66.5942 22.0858 66.1527 22.1792 65.7062 22.1792C65.2598 22.1792 64.8183 22.0858 64.4101 21.905C64.0019 21.7242 63.6361 21.46 63.3361 21.1294C63.0361 20.7987 62.8086 20.409 62.6682 19.9852C62.5278 19.5614 62.4777 19.113 62.5209 18.6686ZM67.5204 18.6686C67.5204 17.2045 66.8627 16.3483 65.7084 16.3483C64.5497 16.3483 63.8979 17.2045 63.8979 18.6686C63.8979 20.1445 64.5498 20.9941 65.7084 20.9941C66.8627 20.9941 67.5204 20.1386 67.5204 18.6686Z" fill="white"/>
<path d="M77.3594 22.0474H75.9766L74.5806 17.0727H74.4751L73.085 22.0474H71.7153L69.8535 15.293H71.2056L72.4155 20.447H72.5151L73.9038 15.293H75.1826L76.5713 20.447H76.6768L77.8809 15.293H79.2139L77.3594 22.0474Z" fill="white"/>
<path d="M80.7793 15.2933H82.0625V16.3663H82.1621C82.3311 15.9809 82.6161 15.6578 82.9774 15.4421C83.3387 15.2264 83.7583 15.1288 84.1777 15.1629C84.5064 15.1382 84.8364 15.1877 85.1433 15.3079C85.4502 15.428 85.7261 15.6157 85.9506 15.857C86.1752 16.0982 86.3425 16.3869 86.4403 16.7016C86.5381 17.0164 86.5639 17.3491 86.5156 17.6751V22.0476H85.1826V18.0098C85.1826 16.9244 84.7109 16.3846 83.7251 16.3846C83.502 16.3742 83.2792 16.4122 83.0721 16.4959C82.865 16.5797 82.6785 16.7072 82.5253 16.8698C82.3721 17.0324 82.2559 17.2261 82.1846 17.4378C82.1133 17.6495 82.0887 17.8741 82.1123 18.0963V22.0477H80.7793L80.7793 15.2933Z" fill="white"/>
<path d="M88.6406 12.6562H89.9736V22.0474H88.6406V12.6562Z" fill="white"/>
<path d="M91.8256 18.6648C91.7831 18.2209 91.834 17.7731 91.9748 17.3499C92.1155 16.9268 92.3432 16.5378 92.6432 16.2078C92.9431 15.8778 93.3087 15.6142 93.7165 15.4338C94.1243 15.2534 94.5653 15.1602 95.0113 15.1602C95.4572 15.1602 95.8982 15.2534 96.306 15.4338C96.7138 15.6142 97.0794 15.8778 97.3793 16.2078C97.6793 16.5378 97.9069 16.9268 98.0477 17.3499C98.1885 17.7731 98.2393 18.2209 98.1969 18.6648C98.2401 19.1092 98.1899 19.5577 98.0495 19.9815C97.909 20.4052 97.6815 20.795 97.3815 21.1256C97.0815 21.4562 96.7156 21.7204 96.3074 21.9012C95.8992 22.082 95.4577 22.1754 95.0113 22.1754C94.5648 22.1754 94.1233 22.082 93.7151 21.9012C93.3069 21.7204 92.941 21.4562 92.641 21.1256C92.341 20.795 92.1134 20.4052 91.973 19.9815C91.8326 19.5577 91.7824 19.1092 91.8256 18.6648ZM96.8251 18.6648C96.8251 17.2007 96.1674 16.3445 95.0131 16.3445C93.8544 16.3445 93.2026 17.2007 93.2026 18.6649C93.2026 20.1407 93.8544 20.9903 95.0131 20.9903C96.1674 20.9903 96.8251 20.1348 96.8251 18.6648Z" fill="white"/>
<path d="M99.6016 20.1387C99.6016 18.9228 100.507 18.2219 102.114 18.1223L103.943 18.0168V17.4338C103.943 16.7204 103.472 16.3176 102.561 16.3176C101.816 16.3176 101.301 16.5908 101.153 17.0684H99.8623C99.9985 15.9082 101.09 15.1641 102.622 15.1641C104.315 15.1641 105.271 16.0071 105.271 17.4338V22.0488H103.987V21.0996H103.882C103.668 21.4401 103.367 21.7177 103.011 21.904C102.654 22.0903 102.255 22.1787 101.853 22.1601C101.569 22.1896 101.283 22.1594 101.012 22.0713C100.741 21.9833 100.491 21.8394 100.279 21.6489C100.067 21.4585 99.8968 21.2257 99.7802 20.9655C99.6635 20.7054 99.6027 20.4237 99.6016 20.1387ZM103.943 19.5615V18.9968L102.294 19.1023C101.364 19.1645 100.942 19.4809 100.942 20.0764C100.942 20.6843 101.469 21.0381 102.194 21.0381C102.407 21.0596 102.621 21.0381 102.825 20.975C103.029 20.9118 103.219 20.8083 103.382 20.6706C103.545 20.5328 103.679 20.3636 103.775 20.1731C103.872 19.9826 103.929 19.7746 103.943 19.5615Z" fill="white"/>
<path d="M107.021 18.6673C107.021 16.533 108.119 15.1809 109.825 15.1809C110.247 15.1615 110.666 15.2626 111.033 15.4724C111.4 15.6823 111.699 15.9922 111.896 16.3659H111.996V12.6562H113.329V22.0474H112.052V20.9802H111.946C111.734 21.3515 111.424 21.6575 111.05 21.8652C110.676 22.0729 110.253 22.1744 109.825 22.1587C108.107 22.1587 107.021 20.8067 107.021 18.6673ZM108.398 18.6673C108.398 20.0999 109.074 20.9619 110.203 20.9619C111.327 20.9619 112.021 20.0874 112.021 18.6731C112.021 17.2654 111.319 16.3784 110.203 16.3784C109.081 16.3784 108.398 17.2464 108.398 18.6673Z" fill="white"/>
<path d="M118.845 18.6686C118.803 18.2248 118.853 17.7769 118.994 17.3538C119.135 16.9307 119.363 16.5417 119.663 16.2117C119.962 15.8817 120.328 15.6181 120.736 15.4377C121.144 15.2573 121.585 15.1641 122.03 15.1641C122.476 15.1641 122.917 15.2573 123.325 15.4377C123.733 15.6181 124.098 15.8817 124.398 16.2117C124.698 16.5417 124.926 16.9307 125.067 17.3538C125.207 17.7769 125.258 18.2248 125.216 18.6686C125.259 19.113 125.209 19.5614 125.068 19.9852C124.928 20.409 124.701 20.7987 124.401 21.1294C124.101 21.46 123.735 21.7242 123.327 21.905C122.918 22.0858 122.477 22.1792 122.03 22.1792C121.584 22.1792 121.143 22.0858 120.734 21.905C120.326 21.7242 119.96 21.46 119.66 21.1294C119.36 20.7987 119.133 20.409 118.992 19.9852C118.852 19.5614 118.802 19.113 118.845 18.6686ZM123.845 18.6686C123.845 17.2045 123.187 16.3483 122.033 16.3483C120.874 16.3483 120.222 17.2045 120.222 18.6686C120.222 20.1445 120.874 20.9941 122.033 20.9941C123.187 20.9941 123.845 20.1386 123.845 18.6686Z" fill="white"/>
<path d="M127.004 15.2933H128.287V16.3663H128.387C128.556 15.9809 128.841 15.6578 129.202 15.4421C129.563 15.2264 129.983 15.1288 130.402 15.1629C130.731 15.1382 131.061 15.1877 131.368 15.3079C131.675 15.428 131.951 15.6157 132.175 15.857C132.4 16.0982 132.567 16.3869 132.665 16.7016C132.763 17.0164 132.788 17.3491 132.74 17.6751V22.0476H131.407V18.0098C131.407 16.9244 130.936 16.3846 129.95 16.3846C129.727 16.3742 129.504 16.4122 129.297 16.4959C129.09 16.5797 128.903 16.7072 128.75 16.8698C128.597 17.0324 128.481 17.2261 128.409 17.4378C128.338 17.6495 128.313 17.8741 128.337 18.0963V22.0477H127.004V15.2933Z" fill="white"/>
<path d="M140.272 13.6113V15.3237H141.735V16.4465H140.272V19.9197C140.272 20.6272 140.563 20.937 141.227 20.937C141.397 20.9365 141.567 20.9262 141.735 20.9062V22.0166C141.496 22.0594 141.253 22.0822 141.01 22.0847C139.528 22.0847 138.938 21.5632 138.938 20.261V16.4465H137.865V15.3237H138.938V13.6113H140.272Z" fill="white"/>
<path d="M143.557 12.6562H144.878V16.3784H144.983C145.161 15.9894 145.453 15.6646 145.822 15.448C146.191 15.2315 146.617 15.1339 147.043 15.1685C147.37 15.1507 147.697 15.2053 148 15.3283C148.304 15.4514 148.576 15.6399 148.798 15.8804C149.02 16.1209 149.187 16.4075 149.285 16.7197C149.384 17.0319 149.413 17.362 149.369 17.6865V22.0474H148.035V18.0154C148.035 16.9365 147.532 16.3901 146.59 16.3901C146.361 16.3713 146.131 16.4028 145.915 16.4824C145.7 16.562 145.504 16.6877 145.342 16.8508C145.18 17.0139 145.055 17.2105 144.977 17.4267C144.899 17.6429 144.869 17.8735 144.89 18.1025V22.0473H143.557L143.557 12.6562Z" fill="white"/>
<path d="M157.142 20.2213C156.961 20.8386 156.569 21.3726 156.034 21.7298C155.499 22.087 154.855 22.2448 154.215 22.1754C153.77 22.1871 153.328 22.1019 152.919 21.9256C152.511 21.7493 152.145 21.4862 151.848 21.1545C151.551 20.8228 151.33 20.4304 151.2 20.0047C151.07 19.579 151.034 19.13 151.095 18.6891C151.036 18.2468 151.072 17.7969 151.202 17.3698C151.332 16.9428 151.552 16.5487 151.847 16.2141C152.142 15.8795 152.506 15.6122 152.914 15.4304C153.321 15.2486 153.763 15.1565 154.209 15.1603C156.089 15.1603 157.223 16.4443 157.223 18.5653V19.0304H152.453V19.1051C152.432 19.353 152.463 19.6025 152.545 19.8376C152.626 20.0727 152.755 20.2883 152.925 20.4705C153.094 20.6526 153.299 20.7974 153.528 20.8955C153.757 20.9936 154.003 21.0429 154.252 21.0401C154.571 21.0784 154.894 21.021 155.18 20.8752C155.466 20.7293 155.702 20.5017 155.859 20.2213L157.142 20.2213ZM152.453 18.0445H155.865C155.882 17.8179 155.851 17.5902 155.774 17.3761C155.698 17.162 155.577 16.9663 155.421 16.8015C155.264 16.6367 155.075 16.5065 154.865 16.4192C154.655 16.332 154.429 16.2896 154.202 16.2948C153.972 16.2919 153.743 16.3352 153.529 16.4221C153.316 16.509 153.122 16.6378 152.959 16.8009C152.796 16.9639 152.667 17.158 152.58 17.3716C152.493 17.5852 152.45 17.814 152.453 18.0445Z" fill="white"/>
</g>
<defs>
<clipPath id="clip0_237_12403">
<rect width="179" height="60" fill="white"/>
</clipPath>
</defs>
</svg>
