<svg width="32" height="33" viewBox="0 0 32 33" fill="none" xmlns="http://www.w3.org/2000/svg">
<path d="M28 8.47334C23.56 8.03334 19.0933 7.80667 14.64 7.80667C12 7.80667 9.36 7.94 6.72 8.20667L4 8.47334" stroke="#292D32" stroke-width="2" stroke-linecap="round" stroke-linejoin="round"/>
<path d="M11.334 7.12666L11.6273 5.37999C11.8407 4.11332 12.0007 3.16666 14.254 3.16666H17.7473C20.0007 3.16666 20.174 4.16666 20.374 5.39332L20.6673 7.12666" stroke="#292D32" stroke-width="2" stroke-linecap="round" stroke-linejoin="round"/>
<path d="M25.1339 12.6867L24.2672 26.1133C24.1205 28.2067 24.0005 29.8333 20.2805 29.8333H11.7205C8.00052 29.8333 7.88052 28.2067 7.73385 26.1133L6.86719 12.6867" stroke="#292D32" stroke-width="2" stroke-linecap="round" stroke-linejoin="round"/>
<path d="M13.7734 22.5H18.2134" stroke="#292D32" stroke-width="2" stroke-linecap="round" stroke-linejoin="round"/>
<path d="M12.666 17.1667H19.3327" stroke="#292D32" stroke-width="2" stroke-linecap="round" stroke-linejoin="round"/>
</svg>
