<svg width="48" height="58" viewBox="0 0 48 58" fill="none" xmlns="http://www.w3.org/2000/svg">
<g filter="url(#filter0_dii_504_8709)">
<g filter="url(#filter1_d_504_8709)">
<path d="M8 0H40V48L24 35.25L8 48V0Z" fill="#6331F3"/>
</g>
<path d="M21.172 11.4636C21.5753 11.6436 21.9053 11.954 22.112 12.344C22.3153 12.724 21.7253 13.0336 21.522 12.654C21.2053 12.0573 20.4586 11.7973 19.8386 12.0706C19.1886 12.3573 18.8853 13.1373 19.1686 13.7906C20.5053 13.794 21.5953 14.8573 21.642 16.1906C21.6553 16.6206 20.992 16.6436 20.9753 16.2136C20.9386 15.1506 19.962 14.3306 18.9086 14.4736C17.8253 14.6203 17.1086 15.7236 17.4053 16.7736C17.6853 16.6466 17.988 16.5775 18.2953 16.5703C18.7253 16.557 18.742 17.2236 18.312 17.237C17.422 17.2603 16.6986 18.027 16.722 18.917C16.7486 19.8536 17.5953 20.5936 18.5286 20.497C18.9553 20.4536 19.0253 21.1166 18.5953 21.1603C18.2849 21.1927 17.9711 21.1615 17.6731 21.0686C17.3751 20.9758 17.0991 20.8232 16.862 20.6203C16.262 21.5936 16.8286 22.9036 17.9486 23.1336C18.0886 22.9466 18.2586 22.78 18.4453 22.6433C18.792 22.39 19.1853 22.927 18.8386 23.18C18.122 23.7066 17.932 24.7333 18.422 25.48C18.9286 26.26 20.0053 26.4833 20.782 25.97C21.142 25.7333 21.5086 26.29 21.152 26.5266C20.882 26.7033 20.582 26.8233 20.262 26.88C21.612 27.947 23.6653 26.9603 23.6653 25.2336V11.9636C23.6653 10.587 21.7053 10.187 21.172 11.4636ZM22.1353 21.0536C21.7591 21.2005 21.4487 21.4785 21.2612 21.8362C21.0738 22.1939 21.022 22.6074 21.1153 23.0003C21.4762 23.234 21.7539 23.5759 21.9084 23.9772C22.0629 24.3784 22.0863 24.8183 21.9753 25.2336C21.862 25.6503 21.2186 25.4766 21.332 25.06C21.5653 24.1866 20.8653 23.3066 19.9586 23.34C19.5286 23.3533 19.5053 22.6903 19.9353 22.6733C20.092 22.6666 20.2486 22.6803 20.4053 22.71C20.3854 22.2225 20.5182 21.741 20.7854 21.3328C21.0526 20.9246 21.4406 20.6101 21.8953 20.4333C22.2953 20.277 22.5353 20.9003 22.1353 21.0536ZM22.6086 17.717C21.8053 18.8603 20.142 19.077 19.0753 18.1636C18.8586 17.9803 18.9753 17.7 19.1753 17.607C19.2753 17.56 19.402 17.5636 19.512 17.6603C20.2786 18.317 21.482 18.1636 22.062 17.3336C22.2653 17.0436 22.672 17.2503 22.672 17.5303C22.672 17.5903 22.652 17.6536 22.6086 17.717ZM31.1353 20.6203C30.8982 20.8232 30.6222 20.9758 30.3242 21.0686C30.0262 21.1615 29.7124 21.1927 29.402 21.1603C28.972 21.1166 29.042 20.4536 29.4686 20.497C30.3553 20.59 31.1716 19.927 31.2653 19.0403C31.362 18.1103 30.622 17.2566 29.6853 17.237C29.6305 17.2371 29.5766 17.2226 29.5292 17.1951C29.4817 17.1676 29.4424 17.128 29.4153 17.0803C29.3053 16.88 29.4053 16.56 29.702 16.5703C30.0086 16.5773 30.312 16.647 30.592 16.7736C30.882 15.7503 30.2053 14.67 29.1586 14.4836C28.085 14.2903 27.0583 15.1236 27.022 16.2133C27.0086 16.6433 26.342 16.6203 26.3553 16.1903C26.402 14.857 27.492 13.7936 28.8287 13.7903C29.0986 13.167 28.8353 12.4203 28.2353 12.107C27.6086 11.777 26.8053 12.027 26.4753 12.6536C26.2723 13.0336 25.682 12.7236 25.8853 12.3436C26.0914 11.9534 26.4224 11.6434 26.8253 11.4633C26.292 10.1936 24.332 10.5803 24.332 11.9636V25.2336C24.332 26.95 26.3786 27.95 27.7353 26.88C27.4177 26.824 27.1149 26.7037 26.8453 26.5266C26.4886 26.29 26.8553 25.7333 27.2153 25.97C27.9583 26.46 28.9853 26.283 29.515 25.5666C30.0716 24.82 29.9086 23.73 29.1586 23.18C28.812 22.9266 29.2053 22.39 29.552 22.6433C29.7386 22.78 29.9087 22.9466 30.0487 23.1336C31.1653 22.907 31.7353 21.5936 31.1353 20.6203ZM28.0386 23.3403C27.1353 23.307 26.432 24.187 26.6653 25.0603C26.7786 25.477 26.1353 25.6506 26.022 25.234C25.911 24.8185 25.9344 24.3786 26.0889 23.9773C26.2434 23.576 26.521 23.234 26.882 23.0003C27.0753 22.187 26.6386 21.357 25.8616 21.0536C25.4583 20.9003 25.702 20.277 26.1016 20.4336C26.5564 20.6104 26.9445 20.9249 27.2118 21.3331C27.479 21.7413 27.6119 22.2228 27.592 22.7103C27.7486 22.6803 27.905 22.667 28.062 22.6736C28.492 22.6903 28.4686 23.3536 28.0386 23.3403ZM28.9186 18.1636C27.8586 19.077 26.189 18.8636 25.3886 17.717C25.3491 17.6625 25.3271 17.5973 25.3256 17.53C25.3256 17.25 25.7323 17.0433 25.9353 17.3333C26.512 18.1633 27.719 18.3166 28.4853 17.66C28.552 17.603 28.6253 17.5766 28.692 17.5766C28.9586 17.577 29.182 17.9436 28.9186 18.1636Z" fill="white"/>
</g>
<defs>
<filter id="filter0_dii_504_8709" x="4" y="0" width="40" height="56" filterUnits="userSpaceOnUse" color-interpolation-filters="sRGB">
<feFlood flood-opacity="0" result="BackgroundImageFix"/>
<feColorMatrix in="SourceAlpha" type="matrix" values="0 0 0 0 0 0 0 0 0 0 0 0 0 0 0 0 0 0 127 0" result="hardAlpha"/>
<feOffset dy="4"/>
<feGaussianBlur stdDeviation="2"/>
<feComposite in2="hardAlpha" operator="out"/>
<feColorMatrix type="matrix" values="0 0 0 0 0 0 0 0 0 0 0 0 0 0 0 0 0 0 0.25 0"/>
<feBlend mode="normal" in2="BackgroundImageFix" result="effect1_dropShadow_504_8709"/>
<feBlend mode="normal" in="SourceGraphic" in2="effect1_dropShadow_504_8709" result="shape"/>
<feColorMatrix in="SourceAlpha" type="matrix" values="0 0 0 0 0 0 0 0 0 0 0 0 0 0 0 0 0 0 127 0" result="hardAlpha"/>
<feOffset dy="1"/>
<feComposite in2="hardAlpha" operator="arithmetic" k2="-1" k3="1"/>
<feColorMatrix type="matrix" values="0 0 0 0 1 0 0 0 0 1 0 0 0 0 1 0 0 0 0.4 0"/>
<feBlend mode="soft-light" in2="shape" result="effect2_innerShadow_504_8709"/>
<feColorMatrix in="SourceAlpha" type="matrix" values="0 0 0 0 0 0 0 0 0 0 0 0 0 0 0 0 0 0 127 0" result="hardAlpha"/>
<feOffset dy="-1"/>
<feComposite in2="hardAlpha" operator="arithmetic" k2="-1" k3="1"/>
<feColorMatrix type="matrix" values="0 0 0 0 0.0993938 0 0 0 0 0.1425 0 0 0 0 0.131724 0 0 0 0.32 0"/>
<feBlend mode="hard-light" in2="effect2_innerShadow_504_8709" result="effect3_innerShadow_504_8709"/>
</filter>
<filter id="filter1_d_504_8709" x="0" y="-6" width="48" height="64" filterUnits="userSpaceOnUse" color-interpolation-filters="sRGB">
<feFlood flood-opacity="0" result="BackgroundImageFix"/>
<feColorMatrix in="SourceAlpha" type="matrix" values="0 0 0 0 0 0 0 0 0 0 0 0 0 0 0 0 0 0 127 0" result="hardAlpha"/>
<feOffset dy="2"/>
<feGaussianBlur stdDeviation="4"/>
<feComposite in2="hardAlpha" operator="out"/>
<feColorMatrix type="matrix" values="0 0 0 0 0.0680417 0 0 0 0 0.122858 0 0 0 0 0.23 0 0 0 0.29 0"/>
<feBlend mode="normal" in2="BackgroundImageFix" result="effect1_dropShadow_504_8709"/>
<feBlend mode="normal" in="SourceGraphic" in2="effect1_dropShadow_504_8709" result="shape"/>
</filter>
</defs>
</svg>
