<svg width="169" height="27" viewBox="0 0 169 27" fill="none" xmlns="http://www.w3.org/2000/svg">
<g clip-path="url(#clip0_237_10432)">
<path d="M16.6633 10.855L12.8657 11.1533C12.6168 10.3206 12.1864 9.67521 11.5763 9.2155C10.9646 8.75578 10.2285 8.52744 9.36936 8.52744C8.2997 8.52744 7.45135 8.78014 6.82585 9.28704C6.20034 9.79395 5.88682 10.4866 5.88682 11.3664C5.83918 12.0484 6.20188 12.6436 6.97646 13.1551C7.22543 13.3347 7.76487 13.5661 8.59631 13.8507C8.81609 13.9268 9.14036 14.0258 9.57069 14.1491C10.23 14.3485 10.8847 14.5555 11.5348 14.7732C12.1465 14.9817 12.6997 15.1842 13.1977 15.3836C14.1721 15.7809 15.0327 16.2787 15.7781 16.8739C16.3037 17.3184 16.6818 17.8223 16.9108 18.3855C17.1397 18.9487 17.2642 19.6474 17.2827 20.4801C17.2735 22.392 16.5665 23.8503 15.1618 24.852C13.7479 25.8643 11.8698 26.3712 9.52919 26.3712C7.18855 26.3712 5.46726 25.884 4.02568 24.9083C2.56412 23.9234 1.7419 22.5229 1.56055 20.7054L5.35814 20.3933C5.54871 21.3204 6.02668 22.0358 6.79203 22.5366C7.54664 23.0481 8.45492 23.3038 9.51536 23.3038C10.6911 23.3038 11.6316 23.0648 12.3386 22.5869C13.0455 22.1089 13.4128 21.43 13.442 20.5501C13.4513 19.8027 13.1362 19.1588 12.4953 18.6199C12.2371 18.4022 11.8591 18.1754 11.3627 17.9379C10.8371 17.7111 10.3975 17.5315 10.044 17.3991C9.64292 17.2758 9.14036 17.1205 8.53945 16.9302C8.27204 16.845 7.95237 16.743 7.57891 16.6258C7.20699 16.507 6.97185 16.434 6.87656 16.405C6.47544 16.2817 6.01131 16.1113 5.4857 15.8936C4.97853 15.6942 4.56819 15.4963 4.25313 15.2969C3.98572 15.1355 3.67988 14.8995 3.33563 14.5875C2.89608 14.181 2.58103 13.7213 2.38892 13.2099C2.19835 12.6984 2.08769 12.0316 2.05849 11.2081C2.05849 9.39969 2.73625 8.00988 4.0933 7.03413C5.45957 6.06902 7.22236 5.58647 9.38165 5.58647C11.3504 5.56821 12.9933 6.01727 14.3119 6.93518C15.6305 7.85309 16.4143 9.15917 16.6618 10.8534L16.6633 10.855Z" fill="white"/>
<path d="M18.6562 5.80078L33.3041 5.80078V8.82395H27.8867L27.8867 26.1577H24.0599L24.0599 8.82548H18.6562V5.8023V5.80078Z" fill="white"/>
<path d="M48.0259 18.6059L48.0397 5.80078L51.8665 5.80078V18.3654C51.8665 20.8923 51.1396 22.8605 49.6872 24.2717C48.2349 25.6721 46.2908 26.3724 43.8533 26.3724C41.4158 26.3724 39.4917 25.6721 38.0486 24.2717C36.587 22.8621 35.8555 20.8923 35.8555 18.3654V5.80078L39.6684 5.80078V18.6059C39.6684 19.9409 40.0557 20.9912 40.8288 21.7569C41.5926 22.5241 42.6008 22.9062 43.8533 22.9062C45.1059 22.9062 46.1371 22.5226 46.8917 21.7569C47.6463 21.0004 48.0244 19.9485 48.0244 18.6059H48.0259Z" fill="white"/>
<path d="M54.7148 5.80078L62.8848 5.80078C64.8628 5.80078 66.6486 6.23614 68.2454 7.10686C69.8222 7.97759 71.064 9.18929 71.9723 10.742C72.8606 12.2947 73.3048 14.0407 73.3048 15.98C73.3048 17.9193 72.8606 19.6669 71.9723 21.218C71.0548 22.789 69.813 24.0007 68.2454 24.8532C66.6501 25.7239 64.8628 26.1592 62.8848 26.1592H54.7148V5.80078ZM58.5278 23.1345H62.4268C64.3956 23.1345 66.0677 22.4526 67.4432 21.0902C68.8094 19.7186 69.4933 18.0137 69.4933 15.98C69.4933 13.9463 68.8094 12.1942 67.4432 10.8409C66.0861 9.49678 64.414 8.82548 62.4268 8.82548L58.5278 8.82548V23.1361V23.1345Z" fill="white"/>
<path d="M81.5079 15.3989L86.4674 5.80273H90.6815L83.4152 19.0767V26.1612L79.5884 26.1612V19.0767L72.3359 5.80273L76.5362 5.80273L81.5095 15.3989H81.5079Z" fill="white"/>
<path d="M92.3516 5.80078L106.999 5.80078V8.82395H101.582V26.1577H97.7552V8.82548H92.3516V5.8023V5.80078Z" fill="white"/>
<path d="M119.096 26.373C117.089 26.373 115.274 25.9285 113.65 25.038C112.007 24.1581 110.72 22.9221 109.794 21.3329C108.847 19.7421 108.375 17.9596 108.375 15.9807C108.375 14.0018 108.848 12.2192 109.794 10.6285C110.72 9.04838 112.005 7.80775 113.65 6.90963C115.283 6.02977 117.098 5.58984 119.096 5.58984C121.094 5.58984 122.894 6.02977 124.529 6.90963C126.163 7.79862 127.458 9.03924 128.413 10.6285C129.359 12.2192 129.831 14.0033 129.831 15.9807C129.831 17.9581 129.358 19.7421 128.413 21.3329C127.447 22.9236 126.152 24.1581 124.529 25.038C122.905 25.927 121.094 26.373 119.096 26.373ZM119.096 22.9084C120.347 22.9084 121.509 22.6085 122.579 22.0072C123.648 21.4059 124.504 20.5763 125.144 19.5153C125.774 18.4558 126.09 17.2776 126.09 15.9807C126.09 14.0033 125.411 12.3562 124.056 11.0395C122.699 9.72425 121.046 9.06664 119.096 9.06664C117.146 9.06664 115.489 9.72425 114.152 11.0395C112.795 12.3547 112.117 14.0018 112.117 15.9807C112.117 17.9596 112.795 19.5914 114.152 20.9066C115.5 22.2416 117.147 22.9084 119.096 22.9084Z" fill="white"/>
<path d="M142.977 26.373C140.97 26.373 139.155 25.9285 137.53 25.038C135.887 24.1581 134.601 22.9221 133.674 21.3329C132.728 19.7421 132.256 17.9596 132.256 15.9807C132.256 14.0018 132.729 12.2192 133.674 10.6285C134.601 9.04838 135.886 7.80775 137.53 6.90963C139.164 6.02977 140.979 5.58984 142.977 5.58984C144.975 5.58984 146.775 6.02977 148.41 6.90963C150.044 7.79862 151.339 9.03924 152.294 10.6285C153.24 12.2192 153.712 14.0033 153.712 15.9807C153.712 17.9581 153.239 19.7421 152.294 21.3329C151.328 22.9236 150.033 24.1581 148.41 25.038C146.785 25.927 144.975 26.373 142.977 26.373ZM142.977 22.9084C144.228 22.9084 145.39 22.6085 146.46 22.0072C147.529 21.4059 148.385 20.5763 149.025 19.5153C149.655 18.4558 149.971 17.2776 149.971 15.9807C149.971 14.0033 149.292 12.3562 147.936 11.0395C146.579 9.72425 144.927 9.06664 142.977 9.06664C141.027 9.06664 139.37 9.72425 138.033 11.0395C136.676 12.3547 135.998 14.0018 135.998 15.9807C135.998 17.9596 136.676 19.5914 138.033 20.9066C139.381 22.2416 141.028 22.9084 142.977 22.9084Z" fill="white"/>
<path d="M168.388 26.1592L155.66 26.1592V5.80078L159.473 5.80078L159.459 23.1345L168.388 23.1345V26.1577V26.1592Z" fill="white"/>
<path d="M107.001 0.28125L92.3535 0.28125V3.32726L107.001 3.32726V0.28125Z" fill="#329A80"/>
</g>
<defs>
<clipPath id="clip0_237_10432">
<rect width="168.394" height="26.6523" fill="white"/>
</clipPath>
</defs>
</svg>
