<svg width="27" height="169" viewBox="0 0 27 169" fill="none" xmlns="http://www.w3.org/2000/svg">
<g clip-path="url(#clip0_237_12440)">
<path d="M10.855 152.337L11.1533 156.134C10.3206 156.383 9.67521 156.814 9.2155 157.424C8.75578 158.035 8.52744 158.772 8.52744 159.631C8.52744 160.7 8.78014 161.549 9.28704 162.174C9.79395 162.8 10.4866 163.113 11.3664 163.113C12.0484 163.161 12.6436 162.798 13.1551 162.024C13.3347 161.775 13.5661 161.235 13.8507 160.404C13.9268 160.184 14.0258 159.86 14.1491 159.429C14.3485 158.77 14.5555 158.115 14.7732 157.465C14.9817 156.854 15.1842 156.3 15.3836 155.802C15.7809 154.828 16.2787 153.967 16.8739 153.222C17.3184 152.696 17.8223 152.318 18.3855 152.089C18.9487 151.86 19.6474 151.736 20.4801 151.717C22.392 151.727 23.8503 152.434 24.852 153.838C25.8643 155.252 26.3712 157.13 26.3712 159.471C26.3712 161.811 25.884 163.533 24.9083 164.974C23.9234 166.436 22.5229 167.258 20.7054 167.439L20.3933 163.642C21.3204 163.451 22.0358 162.973 22.5366 162.208C23.0481 161.453 23.3038 160.545 23.3038 159.485C23.3038 158.309 23.0648 157.368 22.5869 156.661C22.1089 155.954 21.43 155.587 20.5501 155.558C19.8027 155.549 19.1588 155.864 18.6199 156.505C18.4022 156.763 18.1754 157.141 17.9379 157.637C17.7111 158.163 17.5315 158.602 17.3991 158.956C17.2758 159.357 17.1205 159.86 16.9302 160.461C16.845 160.728 16.743 161.048 16.6258 161.421C16.507 161.793 16.434 162.028 16.405 162.123C16.2817 162.525 16.1113 162.989 15.8936 163.514C15.6942 164.021 15.4963 164.432 15.2969 164.747C15.1355 165.014 14.8995 165.32 14.5875 165.664C14.181 166.104 13.7213 166.419 13.2099 166.611C12.6984 166.802 12.0316 166.912 11.2081 166.942C9.39969 166.942 8.00988 166.264 7.03413 164.907C6.06902 163.54 5.58647 161.778 5.58647 159.618C5.56821 157.65 6.01727 156.007 6.93518 154.688C7.85309 153.369 9.15917 152.586 10.8534 152.338L10.855 152.337Z" fill="white"/>
<path d="M5.80078 150.344V135.696H8.82395V141.113H26.1577V144.94H8.82548V150.344H5.8023H5.80078Z" fill="white"/>
<path d="M18.6059 120.974L5.80078 120.96V117.133H18.3654C20.8923 117.133 22.8605 117.86 24.2717 119.313C25.6721 120.765 26.3724 122.709 26.3724 125.147C26.3724 127.584 25.6721 129.508 24.2717 130.951C22.8621 132.413 20.8923 133.145 18.3654 133.145H5.80078V129.332H18.6059C19.9409 129.332 20.9912 128.944 21.7569 128.171C22.5241 127.407 22.9062 126.399 22.9062 125.147C22.9062 123.894 22.5226 122.863 21.7569 122.108C21.0004 121.354 19.9485 120.976 18.6059 120.976V120.974Z" fill="white"/>
<path d="M5.80078 114.285V106.115C5.80078 104.137 6.23614 102.351 7.10686 100.755C7.97759 99.1778 9.18929 97.936 10.742 97.0277C12.2947 96.1394 14.0407 95.6952 15.98 95.6952C17.9193 95.6952 19.6669 96.1394 21.218 97.0277C22.789 97.9452 24.0007 99.187 24.8532 100.755C25.7239 102.35 26.1592 104.137 26.1592 106.115V114.285H5.80078ZM23.1345 110.472V106.573C23.1345 104.604 22.4526 102.932 21.0902 101.557C19.7186 100.191 18.0137 99.5067 15.98 99.5067C13.9463 99.5067 12.1942 100.191 10.8409 101.557C9.49678 102.914 8.82548 104.586 8.82548 106.573V110.472H23.1361H23.1345Z" fill="white"/>
<path d="M15.3989 87.4921L5.80273 82.5326V78.3185L19.0767 85.5848H26.1612V89.4116H19.0767L5.80273 96.6641V92.4638L15.3989 87.4905V87.4921Z" fill="white"/>
<path d="M5.80078 76.6484V62.0006H8.82395V67.418H26.1577V71.2448H8.82548V76.6484H5.8023H5.80078Z" fill="white"/>
<path d="M26.373 49.9038C26.373 51.911 25.9285 53.726 25.038 55.3505C24.1581 56.9934 22.9221 58.2797 21.3329 59.2065C19.7421 60.1532 17.9596 60.625 15.9807 60.625C14.0018 60.625 12.2192 60.1516 10.6285 59.2065C9.04838 58.2797 7.80775 56.9949 6.90963 55.3505C6.02977 53.7168 5.58984 51.9018 5.58984 49.9038C5.58984 47.9059 6.02977 46.1062 6.90963 44.471C7.79862 42.8373 9.03924 41.5417 10.6285 40.5874C12.2192 39.6406 14.0033 39.1688 15.9807 39.1688C17.9581 39.1688 19.7421 39.6422 21.3329 40.5874C22.9236 41.5525 24.1581 42.8481 25.038 44.471C25.927 46.0955 26.373 47.9059 26.373 49.9038ZM22.9084 49.9038C22.9084 48.6528 22.6085 47.491 22.0072 46.4213C21.4059 45.3516 20.5763 44.4956 19.5153 43.8563C18.4558 43.2262 17.2776 42.9096 15.9807 42.9096C14.0033 42.9096 12.3562 43.5889 11.0395 44.9444C9.72425 46.3014 9.06664 47.9535 9.06664 49.9038C9.06664 51.8541 9.72425 53.5109 11.0395 54.8479C12.3547 56.205 14.0018 56.8827 15.9807 56.8827C17.9596 56.8827 19.5914 56.205 20.9066 54.8479C22.2416 53.5001 22.9084 51.8526 22.9084 49.9038Z" fill="white"/>
<path d="M26.373 26.023C26.373 28.0301 25.9285 29.8452 25.038 31.4696C24.1581 33.1125 22.9221 34.3989 21.3329 35.3256C19.7421 36.2723 17.9596 36.7441 15.9807 36.7441C14.0018 36.7441 12.2192 36.2708 10.6285 35.3256C9.04838 34.3989 7.80775 33.1141 6.90963 31.4696C6.02977 29.8359 5.58984 28.0209 5.58984 26.023C5.58984 24.025 6.02977 22.2254 6.90963 20.5902C7.79862 18.9565 9.03924 17.6609 10.6285 16.7065C12.2192 15.7598 14.0033 15.288 15.9807 15.288C17.9581 15.288 19.7421 15.7613 21.3329 16.7065C22.9236 17.6716 24.1581 18.9672 25.038 20.5902C25.927 22.2146 26.373 24.025 26.373 26.023ZM22.9084 26.023C22.9084 24.772 22.6085 23.6101 22.0072 22.5404C21.4059 21.4708 20.5763 20.6147 19.5153 19.9754C18.4558 19.3453 17.2776 19.0287 15.9807 19.0287C14.0033 19.0287 12.3562 19.708 11.0395 21.0635C9.72425 22.4206 9.06664 24.0727 9.06664 26.023C9.06664 27.9733 9.72425 29.63 11.0395 30.9671C12.3547 32.3241 14.0018 33.0019 15.9807 33.0019C17.9596 33.0019 19.5914 32.3241 20.9066 30.9671C22.2416 29.6192 22.9084 27.9717 22.9084 26.023Z" fill="white"/>
<path d="M26.1592 0.611538V13.3398H5.80078V9.52689L23.1345 9.54072V0.611538H26.1577H26.1592Z" fill="white"/>
<path d="M0.28125 61.9986V76.6465H3.32726V61.9986H0.28125Z" fill="#329A80"/>
</g>
<defs>
<clipPath id="clip0_237_12440">
<rect width="168.394" height="26.6523" fill="white" transform="matrix(0 -1 1 0 0 169)"/>
</clipPath>
</defs>
</svg>
