<svg width="194" height="32" viewBox="0 0 194 32" fill="none" xmlns="http://www.w3.org/2000/svg">
<g clip-path="url(#clip0_168_16351)">
<path d="M19.2001 13.1246L14.825 13.4716C14.5382 12.5032 14.0424 11.7524 13.3395 11.2177C12.6348 10.683 11.7867 10.4174 10.797 10.4174C9.56468 10.4174 8.58733 10.7113 7.86671 11.3009C7.14609 11.8905 6.7849 12.6961 6.7849 13.7195C6.73001 14.5127 7.14787 15.205 8.04023 15.7999C8.32706 16.0089 8.94852 16.278 9.90639 16.6091C10.1596 16.6976 10.5332 16.8127 11.0289 16.9561C11.7885 17.188 12.5428 17.4288 13.2917 17.682C13.9964 17.9246 14.6338 18.1601 15.2074 18.392C16.33 18.8541 17.3215 19.4331 18.1802 20.1254C18.7857 20.6424 19.2213 21.2285 19.4851 21.8836C19.7489 22.5387 19.8923 23.3514 19.9136 24.3199C19.903 26.5437 19.0885 28.2399 17.4702 29.4049C15.8413 30.5823 13.6777 31.1719 10.9811 31.1719C8.28456 31.1719 6.30154 30.6053 4.64076 29.4704C2.95696 28.3249 2.00971 26.6959 1.80078 24.5819L6.17583 24.2189C6.39538 25.2972 6.94602 26.1294 7.82776 26.7119C8.6971 27.3068 9.7435 27.6042 10.9652 27.6042C12.3197 27.6042 13.4032 27.3263 14.2177 26.7703C15.0322 26.2143 15.4553 25.4247 15.489 24.4013C15.4996 23.532 15.1366 22.783 14.3983 22.1562C14.1008 21.903 13.6653 21.6392 13.0934 21.363C12.4879 21.0992 11.9815 20.8903 11.5743 20.7362C11.1121 20.5928 10.5332 20.4122 9.84088 20.1909C9.53281 20.0918 9.16453 19.9731 8.73429 19.8368C8.30581 19.6987 8.03491 19.6137 7.92514 19.5801C7.46303 19.4367 6.92832 19.2384 6.32279 18.9852C5.7385 18.7532 5.26576 18.523 4.9028 18.2911C4.59472 18.1034 4.24238 17.829 3.84578 17.466C3.3394 16.9933 2.97643 16.4586 2.75511 15.8637C2.53556 15.2688 2.40808 14.4933 2.37444 13.5354C2.37444 11.432 3.15526 9.81544 4.71866 8.68052C6.29269 7.55798 8.32352 6.99672 10.8111 6.99672C13.0792 6.97547 14.972 7.49778 16.4911 8.56543C18.0102 9.63308 18.9132 11.1522 19.1983 13.1228L19.2001 13.1246Z" fill="white"/>
<path d="M21.4961 7.24609H38.3713V10.7624H32.1301V30.9238H27.7214V10.7642H21.4961V7.24786V7.24609Z" fill="white"/>
<path d="M55.3316 22.14L55.3475 7.24609H59.7562V21.8603C59.7562 24.7994 58.9187 27.0887 57.2456 28.73C55.5724 30.359 53.3326 31.1734 50.5245 31.1734C47.7164 31.1734 45.4997 30.359 43.8371 28.73C42.1533 27.0905 41.3105 24.7994 41.3105 21.8603V7.24609H45.7033V22.14C45.7033 23.6928 46.1495 24.9145 47.0401 25.8051C47.92 26.6974 49.0815 27.1418 50.5245 27.1418C51.9675 27.1418 53.1556 26.6957 54.0249 25.8051C54.8943 24.9251 55.3298 23.7017 55.3298 22.14H55.3316Z" fill="white"/>
<path d="M63.0371 7.24609H72.4494C74.7281 7.24609 76.7855 7.75247 78.6251 8.76523C80.4417 9.77799 81.8723 11.1874 82.9187 12.9933C83.9421 14.7993 84.4538 16.8301 84.4538 19.0858C84.4538 21.3415 83.9421 23.3741 82.9187 25.1783C81.8617 27.0055 80.4311 28.4149 78.6251 29.4064C76.7873 30.4192 74.7281 30.9255 72.4494 30.9255H63.0371V7.24609ZM67.4299 27.4074H71.9218C74.1899 27.4074 76.1162 26.6142 77.7009 25.0296C79.2749 23.4343 80.0628 21.4513 80.0628 19.0858C80.0628 16.7203 79.2749 14.6824 77.7009 13.1084C76.1375 11.545 74.2111 10.7642 71.9218 10.7642H67.4299V27.4092V27.4074Z" fill="white"/>
<path d="M93.9046 18.4098L99.6182 7.24817H104.473L96.1018 22.6874V30.9276H91.6932V22.6874L83.3379 7.24817H88.1768L93.9064 18.4098H93.9046Z" fill="white"/>
<path d="M106.396 7.24609H123.272V10.7624H117.03V30.9238H112.622V10.7642H106.396V7.24786V7.24609Z" fill="white"/>
<path d="M137.209 31.1734C134.896 31.1734 132.805 30.6564 130.934 29.6206C129.041 28.5973 127.559 27.1596 126.492 25.3111C125.401 23.4609 124.857 21.3876 124.857 19.0858C124.857 16.7841 125.403 14.7108 126.492 12.8605C127.559 11.0227 129.039 9.5797 130.934 8.53507C132.816 7.51169 134.907 7 137.209 7C139.511 7 141.584 7.51169 143.468 8.53507C145.35 9.56908 146.842 11.0121 147.942 12.8605C149.033 14.7108 149.576 16.7859 149.576 19.0858C149.576 21.3858 149.031 23.4609 147.942 25.3111C146.83 27.1613 145.337 28.5973 143.468 29.6206C141.596 30.6546 139.511 31.1734 137.209 31.1734ZM137.209 27.1436C138.65 27.1436 139.989 26.7948 141.221 26.0955C142.453 25.3961 143.439 24.4311 144.176 23.1971C144.902 21.9648 145.267 20.5943 145.267 19.0858C145.267 16.7859 144.484 14.8701 142.922 13.3386C141.359 11.8088 139.456 11.044 137.209 11.044C134.962 11.044 133.053 11.8088 131.513 13.3386C129.95 14.8684 129.169 16.7841 129.169 19.0858C129.169 21.3876 129.95 23.2856 131.513 24.8154C133.066 26.3681 134.964 27.1436 137.209 27.1436Z" fill="white"/>
<path d="M164.721 31.1734C162.408 31.1734 160.317 30.6564 158.446 29.6206C156.553 28.5973 155.071 27.1596 154.003 25.3111C152.913 23.4609 152.369 21.3876 152.369 19.0858C152.369 16.7841 152.914 14.7108 154.003 12.8605C155.071 11.0227 156.551 9.5797 158.446 8.53507C160.328 7.51169 162.419 7 164.721 7C167.022 7 169.096 7.51169 170.979 8.53507C172.862 9.56908 174.354 11.0121 175.454 12.8605C176.544 14.7108 177.088 16.7859 177.088 19.0858C177.088 21.3858 176.543 23.4609 175.454 25.3111C174.342 27.1613 172.849 28.5973 170.979 29.6206C169.108 30.6546 167.022 31.1734 164.721 31.1734ZM164.721 27.1436C166.162 27.1436 167.5 26.7948 168.733 26.0955C169.965 25.3961 170.951 24.4311 171.688 23.1971C172.414 21.9648 172.778 20.5943 172.778 19.0858C172.778 16.7859 171.996 14.8701 170.434 13.3386C168.871 11.8088 166.967 11.044 164.721 11.044C162.474 11.044 160.565 11.8088 159.025 13.3386C157.461 14.8684 156.68 16.7841 156.68 19.0858C156.68 21.3876 157.461 23.2856 159.025 24.8154C160.577 26.3681 162.475 27.1436 164.721 27.1436Z" fill="white"/>
<path d="M193.998 30.9255H179.334V7.24609H183.727L183.711 27.4074H193.998V30.9238V30.9255Z" fill="white"/>
<path d="M123.272 0.828125H106.396V4.37101H123.272V0.828125Z" fill="#329A80"/>
</g>
<defs>
<clipPath id="clip0_168_16351">
<rect width="194" height="31" fill="white" transform="translate(0 0.5)"/>
</clipPath>
</defs>
</svg>
