<svg width="24" height="24" viewBox="0 0 24 24" fill="none" xmlns="http://www.w3.org/2000/svg">
<path d="M12 0C18.6274 0 24 5.37261 24 12.0001C24 18.6275 18.6274 24.0001 12 24.0001C5.37258 24.0001 0 18.6275 0 12.0001C0 5.37261 5.37258 0 12 0ZM12 1.67443C6.29734 1.67443 1.67442 6.29737 1.67442 12.0001C1.67442 17.7027 6.29734 22.3257 12 22.3257C17.7027 22.3257 22.3256 17.7027 22.3256 12.0001C22.3256 6.29737 17.7027 1.67443 12 1.67443ZM9.2923 14.3992C9.45553 15.7606 10.6161 16.7974 12 16.7974C13.3772 16.7974 14.534 15.7704 14.7055 14.4173C14.7623 13.9691 15.1717 13.6517 15.62 13.7085C16.0683 13.7653 16.3856 14.1747 16.3288 14.623C16.0541 16.7913 14.2039 18.4337 12 18.4337C9.78528 18.4337 7.92914 16.7755 7.66758 14.594C7.61378 14.1454 7.93388 13.738 8.38254 13.6842C8.83119 13.6304 9.23851 13.9505 9.2923 14.3992ZM6.97674 7.53492C7.9015 7.53492 8.65116 8.28458 8.65116 9.20934C8.65116 10.1341 7.9015 10.8838 6.97674 10.8838C6.05199 10.8838 5.30233 10.1341 5.30233 9.20934C5.30233 8.28458 6.05199 7.53492 6.97674 7.53492ZM17.0233 7.53492C17.948 7.53492 18.6977 8.28458 18.6977 9.20934C18.6977 10.1341 17.948 10.8838 17.0233 10.8838C16.0985 10.8838 15.3488 10.1341 15.3488 9.20934C15.3488 8.28458 16.0985 7.53492 17.0233 7.53492Z" fill="#888888"/>
</svg>
