<svg width="16" height="16" viewBox="0 0 16 16" fill="none" xmlns="http://www.w3.org/2000/svg">
<path d="M14.3736 7.16003L13.4669 6.1067C13.2936 5.9067 13.1536 5.53336 13.1536 5.2667V4.13336C13.1536 3.4267 12.5736 2.8467 11.8669 2.8467H10.7336C10.4736 2.8467 10.0936 2.7067 9.89358 2.53336L8.84025 1.6267C8.38025 1.23336 7.62691 1.23336 7.16025 1.6267L6.11358 2.54003C5.91358 2.7067 5.53358 2.8467 5.27358 2.8467H4.12025C3.41358 2.8467 2.83358 3.4267 2.83358 4.13336V5.27336C2.83358 5.53336 2.69358 5.9067 2.52691 6.1067L1.62691 7.1667C1.24025 7.6267 1.24025 8.37336 1.62691 8.83336L2.52691 9.89336C2.69358 10.0934 2.83358 10.4667 2.83358 10.7267V11.8667C2.83358 12.5734 3.41358 13.1534 4.12025 13.1534H5.27358C5.53358 13.1534 5.91358 13.2934 6.11358 13.4667L7.16691 14.3734C7.62691 14.7667 8.38025 14.7667 8.84691 14.3734L9.90025 13.4667C10.1002 13.2934 10.4736 13.1534 10.7402 13.1534H11.8736C12.5802 13.1534 13.1602 12.5734 13.1602 11.8667V10.7334C13.1602 10.4734 13.3002 10.0934 13.4736 9.89336L14.3802 8.84003C14.7669 8.38003 14.7669 7.62003 14.3736 7.16003ZM10.7736 6.74003L7.55358 9.96003C7.46025 10.0534 7.33358 10.1067 7.20025 10.1067C7.06691 10.1067 6.94025 10.0534 6.84691 9.96003L5.23358 8.3467C5.04025 8.15336 5.04025 7.83336 5.23358 7.64003C5.42691 7.4467 5.74691 7.4467 5.94025 7.64003L7.20025 8.90003L10.0669 6.03336C10.2602 5.84003 10.5802 5.84003 10.7736 6.03336C10.9669 6.2267 10.9669 6.5467 10.7736 6.74003Z" fill="#292D32"/>
</svg>
