<svg width="17" height="17" viewBox="0 0 17 17" fill="none" xmlns="http://www.w3.org/2000/svg">
<path d="M14.8736 7.66003L13.9669 6.6067C13.7936 6.4067 13.6536 6.03336 13.6536 5.7667V4.63336C13.6536 3.9267 13.0736 3.3467 12.3669 3.3467H11.2336C10.9736 3.3467 10.5936 3.2067 10.3936 3.03336L9.34025 2.1267C8.88025 1.73336 8.12691 1.73336 7.66025 2.1267L6.61358 3.04003C6.41358 3.2067 6.03358 3.3467 5.77358 3.3467H4.62025C3.91358 3.3467 3.33358 3.9267 3.33358 4.63336V5.77336C3.33358 6.03336 3.19358 6.4067 3.02691 6.6067L2.12691 7.6667C1.74025 8.1267 1.74025 8.87336 2.12691 9.33336L3.02691 10.3934C3.19358 10.5934 3.33358 10.9667 3.33358 11.2267V12.3667C3.33358 13.0734 3.91358 13.6534 4.62025 13.6534H5.77358C6.03358 13.6534 6.41358 13.7934 6.61358 13.9667L7.66691 14.8734C8.12691 15.2667 8.88025 15.2667 9.34691 14.8734L10.4002 13.9667C10.6002 13.7934 10.9736 13.6534 11.2402 13.6534H12.3736C13.0802 13.6534 13.6602 13.0734 13.6602 12.3667V11.2334C13.6602 10.9734 13.8002 10.5934 13.9736 10.3934L14.8802 9.34003C15.2669 8.88003 15.2669 8.12003 14.8736 7.66003ZM11.2736 7.24003L8.05358 10.46C7.96025 10.5534 7.83358 10.6067 7.70025 10.6067C7.56691 10.6067 7.44025 10.5534 7.34691 10.46L5.73358 8.8467C5.54025 8.65336 5.54025 8.33336 5.73358 8.14003C5.92691 7.9467 6.24691 7.9467 6.44025 8.14003L7.70025 9.40003L10.5669 6.53336C10.7602 6.34003 11.0802 6.34003 11.2736 6.53336C11.4669 6.7267 11.4669 7.0467 11.2736 7.24003Z" fill="#292D32"/>
</svg>
