<svg width="32" height="33" viewBox="0 0 32 33" fill="none" xmlns="http://www.w3.org/2000/svg">
<path d="M12.2134 14.9933C12.0801 14.98 11.9201 14.98 11.7734 14.9933C8.60008 14.8867 6.08008 12.2867 6.08008 9.08666C6.08008 5.81999 8.72008 3.16666 12.0001 3.16666C15.2667 3.16666 17.9201 5.81999 17.9201 9.08666C17.9067 12.2867 15.3867 14.8867 12.2134 14.9933Z" stroke="#292D32" stroke-width="2" stroke-linecap="round" stroke-linejoin="round"/>
<path d="M21.8784 5.83334C24.4651 5.83334 26.5451 7.92668 26.5451 10.5C26.5451 13.02 24.5451 15.0733 22.0517 15.1667C21.9451 15.1533 21.8251 15.1533 21.7051 15.1667" stroke="#292D32" stroke-width="2" stroke-linecap="round" stroke-linejoin="round"/>
<path d="M5.54695 19.9133C2.32029 22.0733 2.32029 25.5933 5.54695 27.74C9.21362 30.1933 15.227 30.1933 18.8936 27.74C22.1203 25.58 22.1203 22.06 18.8936 19.9133C15.2403 17.4733 9.22695 17.4733 5.54695 19.9133Z" stroke="#292D32" stroke-width="2" stroke-linecap="round" stroke-linejoin="round"/>
<path d="M24.4531 27.1667C25.4131 26.9667 26.3198 26.58 27.0665 26.0067C29.1465 24.4467 29.1465 21.8733 27.0665 20.3133C26.3331 19.7533 25.4398 19.38 24.4931 19.1667" stroke="#292D32" stroke-width="2" stroke-linecap="round" stroke-linejoin="round"/>
</svg>
