<svg width="23" height="23" viewBox="0 0 23 23" fill="none" xmlns="http://www.w3.org/2000/svg">
<g clip-path="url(#clip0_28_15587)">
<path d="M22.2097 6.68046C22.1581 5.51139 21.9691 4.70775 21.6982 4.01129C21.4189 3.27207 20.9891 2.61026 20.4261 2.06007C19.8759 1.50132 19.2098 1.06714 18.4791 0.792149C17.7788 0.521373 16.9793 0.332259 15.8104 0.280769C14.6327 0.224808 14.2588 0.211914 11.2719 0.211914C8.28501 0.211914 7.91116 0.224808 6.73784 0.276385C5.5689 0.327961 4.76527 0.517161 4.06908 0.787765C3.32971 1.06714 2.66794 1.49694 2.11779 2.06007C1.55909 2.61022 1.12515 3.27641 0.849967 4.00708C0.579211 4.70775 0.390154 5.50709 0.338625 6.67607C0.282712 7.85387 0.269775 8.22775 0.269775 11.2149C0.269775 14.202 0.282712 14.576 0.334241 15.7493C0.385814 16.9184 0.574999 17.722 0.845798 18.4185C1.12515 19.1577 1.55909 19.8195 2.11779 20.3697C2.66794 20.9284 3.33409 21.3626 4.0647 21.6376C4.76523 21.9084 5.56452 22.0975 6.73367 22.149C7.90677 22.2008 8.28084 22.2135 11.2678 22.2135C14.2547 22.2135 14.6285 22.2008 15.8018 22.149C16.9708 22.0975 17.7744 21.9084 18.4706 21.6376C19.2018 21.3549 19.8658 20.9225 20.4202 20.3681C20.9745 19.8138 21.407 19.1497 21.6897 18.4185C21.9603 17.7179 22.1495 16.9183 22.2011 15.7493C22.2526 14.576 22.2655 14.202 22.2655 11.2149C22.2655 8.22775 22.2611 7.85382 22.2097 6.68046ZM20.2285 15.6634C20.1811 16.7379 20.0007 17.3181 19.8502 17.7049C19.4806 18.6634 18.7199 19.4241 17.7615 19.7939C17.3747 19.9443 16.7903 20.1248 15.7201 20.1719C14.5597 20.2237 14.2117 20.2364 11.2763 20.2364C8.34093 20.2364 7.98856 20.2237 6.83234 20.1719C5.75791 20.1248 5.17772 19.9443 4.79093 19.7939C4.31401 19.6175 3.8799 19.3382 3.52749 18.9728C3.16218 18.6161 2.88283 18.1863 2.70654 17.7093C2.55612 17.3225 2.37566 16.7379 2.32851 15.6677C2.27677 14.5073 2.26404 14.159 2.26404 11.2234C2.26404 8.28784 2.27677 7.93544 2.32851 6.77936C2.37566 5.70485 2.55612 5.12461 2.70654 4.73779C2.88283 4.26062 3.16218 3.82656 3.53187 3.47404C3.88841 3.1087 4.31818 2.82933 4.79531 2.65324C5.18211 2.50281 5.76668 2.32229 6.83673 2.27497C7.99711 2.22339 8.34531 2.2105 11.2805 2.2105C14.2202 2.2105 14.5682 2.22339 15.7244 2.27497C16.7989 2.32234 17.3791 2.50277 17.7659 2.6532C18.2428 2.82933 18.6769 3.1087 19.0293 3.47404C19.3946 3.83082 19.674 4.26062 19.8502 4.73779C20.0007 5.12461 20.1811 5.70902 20.2284 6.77936C20.28 7.93983 20.2929 8.28784 20.2929 11.2234C20.2929 14.159 20.2801 14.5029 20.2285 15.6634Z" fill="black"/>
<path d="M11.2891 5.56244C8.16901 5.56244 5.63757 8.0939 5.63757 11.2144C5.63757 14.3348 8.16901 16.8663 11.2891 16.8663C14.4092 16.8663 16.9406 14.3348 16.9406 11.2144C16.9406 8.0939 14.4092 5.56244 11.2891 5.56244ZM11.2891 14.8806C9.26493 14.8806 7.62303 13.2388 7.62303 11.2144C7.62303 9.1899 9.26493 7.54813 11.289 7.54813C13.3133 7.54813 14.955 9.1899 14.955 11.2144C14.955 13.2388 13.3133 14.8806 11.2891 14.8806ZM18.4835 5.33894C18.4835 6.06763 17.8927 6.65844 17.164 6.65844C16.4354 6.65844 15.8446 6.06763 15.8446 5.33894C15.8446 4.61017 16.4354 4.01953 17.164 4.01953C17.8927 4.01953 18.4835 4.61012 18.4835 5.33894Z" fill="black"/>
</g>
<defs>
<clipPath id="clip0_28_15587">
<rect width="22" height="22.0016" fill="white" transform="translate(0.21875 0.213379)"/>
</clipPath>
</defs>
</svg>
