<svg width="22" height="22" viewBox="0 0 22 22" fill="none" xmlns="http://www.w3.org/2000/svg">
<g clip-path="url(#clip0_237_12383)">
<path d="M21.977 6.46806C21.9254 5.29908 21.7364 4.4955 21.4656 3.79909C21.1862 3.05993 20.7564 2.39817 20.1934 1.84802C19.6432 1.28931 18.9771 0.855159 18.2465 0.580192C17.5461 0.309436 16.7467 0.120336 15.5777 0.0688494C14.4 0.0128931 14.0262 0 11.0393 0C8.05235 0 7.67849 0.0128931 6.50517 0.0644657C5.33624 0.116038 4.53261 0.305224 3.83642 0.575808C3.09704 0.855159 2.43528 1.28493 1.88513 1.84802C1.32642 2.39813 0.892484 3.06427 0.617301 3.79488C0.346545 4.4955 0.157488 5.29479 0.105959 6.46368C0.0500455 7.64138 0.0371094 8.01524 0.0371094 11.0022C0.0371094 13.9891 0.0500455 14.363 0.101575 15.5362C0.153148 16.7052 0.342333 17.5088 0.613132 18.2052C0.892484 18.9444 1.32642 19.6061 1.88513 20.1563C2.43528 20.715 3.10142 21.1491 3.83204 21.4241C4.53256 21.6949 5.33185 21.884 6.501 21.9355C7.67411 21.9872 8.04818 21.9999 11.0351 21.9999C14.022 21.9999 14.3959 21.9872 15.5692 21.9355C16.7381 21.8839 17.5417 21.6949 18.2379 21.4241C18.9691 21.1414 19.6332 20.709 20.1875 20.1547C20.7419 19.6004 21.1743 18.9364 21.4571 18.2052C21.7276 17.5046 21.9169 16.7052 21.9684 15.5362C22.02 14.363 22.0329 13.9891 22.0329 11.0022C22.0329 8.01524 22.0285 7.64134 21.977 6.46806ZM19.9958 15.4503C19.9485 16.5247 19.768 17.1049 19.6176 17.4917C19.2479 18.4501 18.4872 19.2108 17.5288 19.5805C17.142 19.7309 16.5577 19.9114 15.4874 19.9585C14.327 20.0103 13.979 20.023 11.0436 20.023C8.10826 20.023 7.75589 20.0103 6.59968 19.9585C5.52525 19.9114 4.94506 19.7309 4.55826 19.5805C4.08135 19.4042 3.64723 19.1248 3.29482 18.7595C2.92951 18.4028 2.65016 17.973 2.47387 17.4961C2.32345 17.1093 2.14299 16.5247 2.09584 15.4547C2.0441 14.2943 2.03138 13.9461 2.03138 11.0107C2.03138 8.07532 2.0441 7.72295 2.09584 6.56695C2.14299 5.49252 2.32345 4.91233 2.47387 4.52554C2.65016 4.04841 2.92951 3.61438 3.2992 3.26188C3.65574 2.89657 4.08551 2.61722 4.56265 2.44115C4.94944 2.29073 5.53402 2.11022 6.60406 2.0629C7.76444 2.01133 8.11265 1.99844 11.0478 1.99844C13.9876 1.99844 14.3356 2.01133 15.4918 2.0629C16.5662 2.11026 17.1464 2.29068 17.5332 2.4411C18.0101 2.61722 18.4443 2.89657 18.7966 3.26188C19.1619 3.61863 19.4413 4.04841 19.6176 4.52554C19.768 4.91233 19.9485 5.49669 19.9958 6.56695C20.0474 7.72733 20.0603 8.07532 20.0603 11.0107C20.0603 13.9461 20.0474 14.2899 19.9958 15.4503Z" fill="white"/>
<path d="M11.0382 5.3509C7.91816 5.3509 5.38672 7.88217 5.38672 11.0024C5.38672 14.1226 7.91816 16.6539 11.0382 16.6539C14.1584 16.6539 16.6897 14.1226 16.6897 11.0024C16.6897 7.88217 14.1584 5.3509 11.0382 5.3509ZM11.0382 14.6683C9.01408 14.6683 7.37218 13.0267 7.37218 11.0024C7.37218 8.97809 9.01408 7.33644 11.0382 7.33644C13.0625 7.33644 14.7042 8.97809 14.7042 11.0024C14.7042 13.0267 13.0624 14.6683 11.0382 14.6683ZM18.2327 5.12742C18.2327 5.85605 17.6419 6.44682 16.9131 6.44682C16.1845 6.44682 15.5938 5.85605 15.5938 5.12742C15.5938 4.3987 16.1845 3.80811 16.9131 3.80811C17.6419 3.80811 18.2327 4.39865 18.2327 5.12742Z" fill="white"/>
</g>
<defs>
<clipPath id="clip0_237_12383">
<rect width="22" height="22" fill="white"/>
</clipPath>
</defs>
</svg>
