<svg width="130" height="22" viewBox="0 0 130 22" fill="none" xmlns="http://www.w3.org/2000/svg">
<g clip-path="url(#clip0_401_6666)">
<path d="M12.8663 9.07306L9.9346 9.3056C9.7424 8.65661 9.41019 8.15355 8.93917 7.79524C8.46696 7.43693 7.89864 7.25896 7.23542 7.25896C6.40964 7.25896 5.75472 7.45591 5.27183 7.851C4.78894 8.24609 4.54691 8.78593 4.54691 9.47171C4.51013 10.0032 4.79013 10.4671 5.3881 10.8658C5.58031 11.0058 5.99676 11.1861 6.63863 11.408C6.80829 11.4673 7.05863 11.5444 7.39084 11.6406C7.89983 11.796 8.40526 11.9573 8.90713 12.127C9.37934 12.2895 9.80647 12.4473 10.1909 12.6028C10.9431 12.9124 11.6075 13.3004 12.1829 13.7643C12.5887 14.1108 12.8806 14.5035 13.0574 14.9425C13.2341 15.3815 13.3302 15.926 13.3445 16.575C13.3374 18.0652 12.7916 19.2018 11.7072 19.9825C10.6156 20.7715 9.16578 21.1666 7.35881 21.1666C5.55183 21.1666 4.223 20.787 3.11011 20.0264C1.98179 19.2588 1.34703 18.1673 1.20703 16.7506L4.13876 16.5074C4.28589 17.23 4.65487 17.7876 5.24573 18.1779C5.82828 18.5766 6.52947 18.7759 7.34813 18.7759C8.25577 18.7759 8.98188 18.5896 9.52765 18.2171C10.0734 17.8445 10.357 17.3154 10.3795 16.6296C10.3866 16.0471 10.1434 15.5452 9.64867 15.1252C9.44934 14.9555 9.15747 14.7787 8.77425 14.5936C8.36848 14.4169 8.02915 14.2769 7.75627 14.1736C7.4466 14.0775 7.05863 13.9565 6.59473 13.8082C6.38829 13.7418 6.1415 13.6623 5.85319 13.5709C5.56607 13.4784 5.38454 13.4214 5.31098 13.3989C5.00132 13.3028 4.64301 13.1699 4.23724 13.0002C3.84571 12.8448 3.52893 12.6906 3.2857 12.5351C3.07926 12.4094 2.84315 12.2255 2.57739 11.9823C2.23806 11.6655 1.99484 11.3072 1.84653 10.9085C1.69941 10.5099 1.61399 9.99019 1.59144 9.34831C1.59144 7.9388 2.11467 6.85557 3.16231 6.09505C4.21707 5.34283 5.57794 4.96673 7.24491 4.96673C8.76476 4.95249 10.0331 5.30249 11.0511 6.01793C12.069 6.73336 12.6741 7.75134 12.8652 9.07187L12.8663 9.07306Z" fill="black"/>
<path d="M14.4053 5.13428H25.7134V7.49058H21.5311V21.0008H18.5769V7.49177H14.4053V5.13546V5.13428Z" fill="black"/>
<path d="M37.0782 15.1148L37.0888 5.13428H40.0431V14.9273C40.0431 16.8968 39.4819 18.4309 38.3607 19.5308C37.2395 20.6223 35.7387 21.1681 33.8569 21.1681C31.9752 21.1681 30.4898 20.6223 29.3757 19.5308C28.2474 18.4321 27.6826 16.8968 27.6826 14.9273V5.13428H30.6262V15.1148C30.6262 16.1553 30.9252 16.9739 31.522 17.5707C32.1117 18.1687 32.89 18.4665 33.8569 18.4665C34.8239 18.4665 35.62 18.1675 36.2026 17.5707C36.7851 16.9811 37.077 16.1612 37.077 15.1148H37.0782Z" fill="black"/>
<path d="M42.2412 5.13428H48.5484C50.0754 5.13428 51.454 5.4736 52.6868 6.15226C53.9041 6.83091 54.8627 7.77533 55.5639 8.98552C56.2497 10.1957 56.5926 11.5566 56.5926 13.0681C56.5926 14.5797 56.2497 15.9417 55.5639 17.1507C54.8556 18.3751 53.897 19.3196 52.6868 19.984C51.4552 20.6626 50.0754 21.002 48.5484 21.002H42.2412V5.13428ZM45.1848 18.6445H48.1948C49.7147 18.6445 51.0056 18.1129 52.0674 17.0511C53.1222 15.9821 53.6502 14.6532 53.6502 13.0681C53.6502 11.483 53.1222 10.1174 52.0674 9.06264C51.0198 8.015 49.7289 7.49177 48.1948 7.49177H45.1848V18.6457V18.6445Z" fill="black"/>
<path d="M62.9265 12.6144L66.7552 5.13501H70.0084L64.3989 15.4809V21.0027H61.4446V15.4809L55.8457 5.13501H59.0883L62.9277 12.6144H62.9265Z" fill="black"/>
<path d="M71.2969 5.13428H82.605V7.49058H78.4227V21.0008H75.4685V7.49177H71.2969V5.13546V5.13428Z" fill="black"/>
<path d="M91.9447 21.1677C90.3952 21.1677 88.994 20.8213 87.7399 20.1272C86.4716 19.4414 85.4785 18.478 84.7631 17.2393C84.0322 15.9995 83.668 14.6101 83.668 13.0678C83.668 11.5254 84.0334 10.136 84.7631 8.89617C85.4785 7.66463 86.4704 6.69766 87.7399 5.99765C89.0011 5.31188 90.4023 4.96899 91.9447 4.96899C93.4871 4.96899 94.8764 5.31188 96.1388 5.99765C97.4 6.69054 98.4002 7.65751 99.137 8.89617C99.8678 10.136 100.232 11.5265 100.232 13.0678C100.232 14.609 99.8667 15.9995 99.137 17.2393C98.3919 18.4792 97.3917 19.4414 96.1388 20.1272C94.8847 20.8201 93.4871 21.1677 91.9447 21.1677ZM91.9447 18.4673C92.9105 18.4673 93.8074 18.2336 94.6332 17.7649C95.459 17.2963 96.1198 16.6497 96.6134 15.8227C97.0998 14.9969 97.3442 14.0786 97.3442 13.0678C97.3442 11.5265 96.8198 10.2428 95.7734 9.21651C94.7257 8.19141 93.4503 7.67886 91.9447 7.67886C90.4391 7.67886 89.1601 8.19141 88.1279 9.21651C87.0802 10.2416 86.557 11.5254 86.557 13.0678C86.557 14.6101 87.0802 15.882 88.1279 16.9071C89.1684 17.9477 90.4403 18.4673 91.9447 18.4673Z" fill="black"/>
<path d="M110.38 21.1677C108.831 21.1677 107.43 20.8213 106.175 20.1272C104.907 19.4414 103.914 18.478 103.199 17.2393C102.468 15.9995 102.104 14.6101 102.104 13.0678C102.104 11.5254 102.469 10.136 103.199 8.89617C103.914 7.66463 104.906 6.69766 106.175 5.99765C107.437 5.31188 108.838 4.96899 110.38 4.96899C111.923 4.96899 113.312 5.31188 114.574 5.99765C115.836 6.69054 116.836 7.65751 117.573 8.89617C118.303 10.136 118.668 11.5265 118.668 13.0678C118.668 14.609 118.302 15.9995 117.573 17.2393C116.827 18.4792 115.827 19.4414 114.574 20.1272C113.32 20.8201 111.923 21.1677 110.38 21.1677ZM110.38 18.4673C111.346 18.4673 112.243 18.2336 113.069 17.7649C113.895 17.2963 114.555 16.6497 115.049 15.8227C115.535 14.9969 115.78 14.0786 115.78 13.0678C115.78 11.5265 115.255 10.2428 114.209 9.21651C113.161 8.19141 111.886 7.67886 110.38 7.67886C108.875 7.67886 107.596 8.19141 106.563 9.21651C105.516 10.2416 104.993 11.5254 104.993 13.0678C104.993 14.6101 105.516 15.882 106.563 16.9071C107.604 17.9477 108.876 18.4673 110.38 18.4673Z" fill="black"/>
<path d="M129.999 21.002H120.173V5.13428H123.116L123.106 18.6445H129.999V21.0008V21.002Z" fill="black"/>
<path d="M82.605 0.832031H71.2969V3.20613H82.605V0.832031Z" fill="#329A80"/>
</g>
<defs>
<clipPath id="clip0_401_6666">
<rect width="130" height="20.7732" fill="white" transform="translate(0 0.613281)"/>
</clipPath>
</defs>
</svg>
