<svg width="25" height="24" viewBox="0 0 25 24" fill="none" xmlns="http://www.w3.org/2000/svg">
<path d="M10.5495 2.52979L4.52953 6.45979C2.59953 7.71979 2.59953 10.5398 4.52953 11.7998L10.5495 15.7298C11.6295 16.4398 13.4095 16.4398 14.4895 15.7298L20.4795 11.7998C22.3995 10.5398 22.3995 7.72979 20.4795 6.46979L14.4895 2.53979C13.4095 1.81979 11.6295 1.81979 10.5495 2.52979Z" stroke="#061310" stroke-width="1.5" stroke-linecap="round" stroke-linejoin="round"/>
<path d="M6.13012 13.0801L6.12012 17.7701C6.12012 19.0401 7.10012 20.4001 8.30012 20.8001L11.4901 21.8601C12.0401 22.0401 12.9501 22.0401 13.5101 21.8601L16.7001 20.8001C17.9001 20.4001 18.8801 19.0401 18.8801 17.7701V13.1301" stroke="#061310" stroke-width="1.5" stroke-linecap="round" stroke-linejoin="round"/>
<path d="M21.9004 15V9" stroke="#061310" stroke-width="1.5" stroke-linecap="round" stroke-linejoin="round"/>
</svg>
