<svg width="25" height="24" viewBox="0 0 25 24" fill="none" xmlns="http://www.w3.org/2000/svg">
<path d="M17.46 6.16992C19.46 7.55992 20.84 9.76992 21.12 12.3199" stroke="#061310" stroke-width="1.5" stroke-linecap="round" stroke-linejoin="round"/>
<path d="M3.99023 12.3702C4.25023 9.83021 5.61023 7.62021 7.59023 6.22021" stroke="#061310" stroke-width="1.5" stroke-linecap="round" stroke-linejoin="round"/>
<path d="M8.69043 20.9399C9.85043 21.5299 11.1704 21.8599 12.5604 21.8599C13.9004 21.8599 15.1604 21.5599 16.2904 21.0099" stroke="#061310" stroke-width="1.5" stroke-linecap="round" stroke-linejoin="round"/>
<path d="M12.5603 7.70014C14.0956 7.70014 15.3403 6.45549 15.3403 4.92014C15.3403 3.38479 14.0956 2.14014 12.5603 2.14014C11.0249 2.14014 9.78027 3.38479 9.78027 4.92014C9.78027 6.45549 11.0249 7.70014 12.5603 7.70014Z" stroke="#061310" stroke-width="1.5" stroke-linecap="round" stroke-linejoin="round"/>
<path d="M5.3298 19.9199C6.86516 19.9199 8.10981 18.6752 8.10981 17.1399C8.10981 15.6045 6.86516 14.3599 5.3298 14.3599C3.79445 14.3599 2.5498 15.6045 2.5498 17.1399C2.5498 18.6752 3.79445 19.9199 5.3298 19.9199Z" stroke="#061310" stroke-width="1.5" stroke-linecap="round" stroke-linejoin="round"/>
<path d="M19.6696 19.9199C21.205 19.9199 22.4496 18.6752 22.4496 17.1399C22.4496 15.6045 21.205 14.3599 19.6696 14.3599C18.1343 14.3599 16.8896 15.6045 16.8896 17.1399C16.8896 18.6752 18.1343 19.9199 19.6696 19.9199Z" stroke="#061310" stroke-width="1.5" stroke-linecap="round" stroke-linejoin="round"/>
</svg>
