<svg width="179" height="60" viewBox="0 0 179 60" fill="none" xmlns="http://www.w3.org/2000/svg">
<g clip-path="url(#clip0_237_12394)">
<path d="M171.889 60H6.6112C2.97502 60 0 56.625 0 52.5V7.5C0 3.37497 2.97502 0 6.6112 0H171.889C175.525 0 178.5 3.37497 178.5 7.5V52.5C178.5 56.625 175.525 60 171.889 60Z" fill="black"/>
<path d="M172.37 0H6.62972C2.98335 0 0 3.37497 0 7.5V52.5C0 56.625 2.98335 60 6.62972 60H172.37C176.017 60 179 56.625 179 52.5V7.5C179 3.37497 176.017 0 172.37 0ZM172.37 1.19939C175.441 1.19939 177.939 4.02603 177.939 7.5V52.5C177.939 55.974 175.441 58.8006 172.37 58.8006H6.62972C3.55886 58.8006 1.06131 55.974 1.06131 52.5V7.5C1.06131 4.02603 3.55886 1.19939 6.62972 1.19939H172.37Z" fill="#A2A2A1"/>
<path d="M141.392 42.3873H143.859V25.9786H141.392V42.3873ZM163.614 31.8898L160.786 39.0034H160.702L157.766 31.8898H155.109L159.512 41.8321L157.001 47.3628H159.574L166.358 31.8903L163.614 31.8898ZM149.622 40.5235C148.815 40.5235 147.688 40.122 147.688 39.13C147.688 37.8636 149.092 37.3781 150.303 37.3781C151.387 37.3781 151.899 37.6098 152.557 37.9267C152.365 39.4468 151.047 40.5235 149.622 40.5235ZM149.921 31.5309C148.134 31.5309 146.285 32.3122 145.519 34.0432L147.709 34.9506C148.177 34.0432 149.048 33.7479 149.963 33.7479C151.239 33.7479 152.536 34.5072 152.557 35.8586V36.0273C152.11 35.7739 151.153 35.3941 149.984 35.3941C147.623 35.3941 145.22 36.6814 145.22 39.0879C145.22 41.2833 147.156 42.6977 149.324 42.6977C150.982 42.6977 151.899 41.9589 152.471 41.0931H152.557V42.3604H154.94V36.0692C154.94 33.1561 152.748 31.5309 149.921 31.5309ZM134.673 33.8872H131.164V28.2632H134.673C136.517 28.2632 137.564 29.7787 137.564 31.0752C137.564 32.3467 136.517 33.8872 134.673 33.8872ZM134.609 25.979H128.698V42.3877H131.164V36.1714H134.609C137.344 36.1714 140.032 34.2068 140.032 31.0758C140.032 27.9453 137.344 25.979 134.609 25.979ZM102.373 40.5262C100.669 40.5262 99.2422 39.1091 99.2422 37.1645C99.2422 35.1974 100.669 33.7603 102.373 33.7603C104.056 33.7603 105.377 35.1975 105.377 37.1645C105.377 39.1091 104.056 40.5262 102.373 40.5262ZM105.206 32.8084H105.121C104.567 32.153 103.502 31.561 102.16 31.561C99.3481 31.561 96.7709 34.0141 96.7709 37.1645C96.7709 40.2935 99.3481 42.7251 102.16 42.7251C103.502 42.7251 104.567 42.1329 105.121 41.4567H105.206V42.2596C105.206 44.396 104.056 45.5372 102.203 45.5372C100.691 45.5372 99.7536 44.459 99.3699 43.5499L97.2188 44.4379C97.836 45.9174 99.4758 47.7365 102.203 47.7365C105.1 47.7365 107.55 46.0446 107.55 41.9211V31.8991H105.206L105.206 32.8084ZM109.254 42.3868H111.724V25.9781H109.254V42.3868ZM115.367 36.9739C115.303 34.817 117.051 33.7177 118.307 33.7177C119.287 33.7177 120.117 34.2043 120.395 34.9016L115.367 36.9739ZM123.035 35.1128C122.567 33.866 121.14 31.561 118.221 31.561C115.324 31.561 112.917 33.8234 112.917 37.1431C112.917 40.2725 115.303 42.7252 118.498 42.7252C121.075 42.7252 122.567 41.161 123.185 40.2515L121.268 38.9826C120.628 39.9131 119.755 40.5263 118.498 40.5263C117.242 40.5263 116.347 39.9552 115.772 38.8345L123.291 35.7476L123.035 35.1128ZM63.1295 33.2738V35.6419H68.838C68.6676 36.974 68.2203 37.9464 67.5386 38.6232C66.7076 39.4476 65.4082 40.3571 63.1294 40.3571C59.6146 40.3571 56.867 37.545 56.867 34.0562C56.867 30.5673 59.6146 27.7548 63.1294 27.7548C65.0253 27.7548 66.4095 28.4951 67.432 29.4466L69.1153 27.7758C67.6877 26.4228 65.7922 25.3867 63.1294 25.3867C58.3147 25.3867 54.2676 29.2774 54.2676 34.0562C54.2676 38.8344 58.3147 42.7252 63.1294 42.7252C65.7278 42.7252 67.6878 41.8793 69.2212 40.2936C70.7976 38.7288 71.2876 36.5299 71.2876 34.7535C71.2876 34.2044 71.2447 33.6969 71.1595 33.2738H63.1295ZM77.7784 40.5262C76.0739 40.5262 74.6041 39.1306 74.6041 37.1431C74.6041 35.1344 76.0739 33.7604 77.7784 33.7604C79.4822 33.7604 80.952 35.1344 80.952 37.1431C80.952 39.1306 79.4822 40.5262 77.7784 40.5262ZM77.7784 31.561C74.6675 31.561 72.1331 33.9079 72.1331 37.1431C72.1331 40.3571 74.6675 42.7252 77.7784 42.7252C80.8881 42.7252 83.423 40.3571 83.423 37.1431C83.423 33.9079 80.8881 31.561 77.7784 31.561ZM90.0919 40.5262C88.3886 40.5262 86.9183 39.1306 86.9183 37.1431C86.9183 35.1344 88.3887 33.7604 90.0919 33.7604C91.7964 33.7604 93.2658 35.1344 93.2658 37.1431C93.2658 39.1306 91.7964 40.5262 90.0919 40.5262ZM90.0919 31.561C86.9823 31.561 84.4479 33.9079 84.4479 37.1431C84.4479 40.3571 86.9823 42.7252 90.0919 42.7252C93.2028 42.7252 95.7372 40.3571 95.7372 37.1431C95.7372 33.9079 93.2028 31.561 90.0919 31.561Z" fill="white"/>
<path d="M27.3921 28.506L13.3164 43.3367C13.3169 43.3398 13.318 43.3423 13.3185 43.3455C13.7502 44.9559 15.232 46.1417 16.9906 46.1417C17.6936 46.1417 18.3537 45.9531 18.9197 45.6218L18.9647 45.5957L34.8095 36.5197L27.3921 28.506Z" fill="#EB3131"/>
<path d="M41.6334 25.9809L41.6199 25.9717L34.7792 22.0352L27.0723 28.8427L34.806 36.5187L41.6106 32.6213C42.8036 31.982 43.6135 30.7335 43.6135 29.2939C43.6135 27.8646 42.8146 26.6223 41.6334 25.9809Z" fill="#F6B60B"/>
<path d="M13.3146 15.1875C13.23 15.4972 13.1855 15.8217 13.1855 16.1586V42.3658C13.1855 42.7021 13.2295 43.0276 13.3152 43.3363L27.8768 28.8846L13.3146 15.1875Z" fill="#5778C5"/>
<path d="M27.4953 29.2615L34.7814 22.0311L18.9544 12.9222C18.3791 12.5802 17.7077 12.3828 16.9892 12.3828C15.2306 12.3828 13.7468 13.5708 13.315 15.1831C13.3145 15.1847 13.3145 15.1857 13.3145 15.1871L27.4953 29.2615Z" fill="#3BAD49"/>
<path d="M62.6668 15.8512H58.8097V16.7986H61.7C61.6215 17.5718 61.3116 18.1788 60.7889 18.6197C60.2663 19.0607 59.5989 19.2821 58.8098 19.2821C57.9441 19.2821 57.2107 18.9828 56.6096 18.3881C56.0207 17.7811 55.7213 17.0304 55.7213 16.1261C55.7213 15.2218 56.0207 14.4711 56.6096 13.8642C57.2107 13.2695 57.9441 12.9721 58.8098 12.9721C59.254 12.9721 59.6775 13.048 60.0658 13.2141C60.4543 13.3801 60.7662 13.6119 61.01 13.9093L61.7434 13.1813C61.4107 12.8059 60.9893 12.5189 60.4665 12.3097C59.9439 12.1005 59.3985 12.0001 58.8096 12.0001C57.6548 12.0001 56.6757 12.3979 55.8761 13.1916C55.0766 13.9872 54.6758 14.9675 54.6758 16.1261C54.6758 17.2847 55.0765 18.2671 55.8761 19.0608C56.6756 19.8544 57.6548 20.2523 58.8096 20.2523C60.0223 20.2523 60.9892 19.8667 61.733 19.0833C62.3879 18.4312 62.7225 17.5494 62.7225 16.4461C62.7225 16.2595 62.6999 16.0604 62.6668 15.8512ZM64.1611 12.1763V20.0758H68.8072V19.1058H65.1837V16.5998H68.452V15.6524H65.1837V13.1484H68.8072V12.1762L64.1611 12.1763ZM75.3223 13.1484V12.1763H69.8537V13.1484H72.0767V20.0758H73.0994V13.1484H75.3223ZM80.2732 12.1763H79.2506V20.0758H80.2732V12.1763ZM87.023 13.1484V12.1763H81.5546V13.1484H83.7774V20.0758H84.8V13.1484H87.023ZM97.3423 13.2038C96.5531 12.3978 95.5863 12 94.4314 12C93.2745 12 92.3077 12.3978 91.5185 13.1915C90.7292 13.9749 90.341 14.9572 90.341 16.126C90.341 17.2949 90.7293 18.2773 91.5185 19.0608C92.3077 19.8543 93.2745 20.2523 94.4314 20.2523C95.5759 20.2523 96.5531 19.8543 97.3423 19.0608C98.1315 18.2773 98.5198 17.295 98.5198 16.126C98.5198 14.9674 98.1315 13.9871 97.3423 13.2038ZM92.2519 13.8641C92.8407 13.2694 93.5638 12.972 94.4314 12.972C95.297 12.972 96.0201 13.2694 96.5986 13.8641C97.1873 14.4485 97.4765 15.2113 97.4765 16.126C97.4765 17.0428 97.1873 17.8035 96.5986 18.388C96.0201 18.9827 95.297 19.2821 94.4314 19.2821C93.5638 19.2821 92.8407 18.9827 92.2519 18.388C91.6754 17.7912 91.3863 17.0428 91.3863 16.126C91.3863 15.2113 91.6754 14.4608 92.2519 13.8641ZM100.949 15.1561L100.906 13.6323H100.949L104.995 20.0757H106.063V12.1762H105.04V16.7985L105.083 18.3224H105.04L101.173 12.1762H99.9268V20.0757H100.949V15.1561Z" fill="white" stroke="white" stroke-width="0.349991" stroke-miterlimit="10"/>
</g>
<defs>
<clipPath id="clip0_237_12394">
<rect width="179" height="60" fill="white"/>
</clipPath>
</defs>
</svg>
