<svg width="64" height="64" viewBox="0 0 64 64" fill="none" xmlns="http://www.w3.org/2000/svg">
<path d="M34.6947 7.78762L50.428 14.7743C54.9614 16.7743 54.9614 20.081 50.428 22.081L34.6947 29.0676C32.908 29.8676 29.9747 29.8676 28.188 29.0676L12.4547 22.081C7.92135 20.081 7.92135 16.7743 12.4547 14.7743L28.188 7.78762C29.9747 6.98762 32.908 6.98762 34.6947 7.78762Z" stroke="#061310" stroke-width="4.02605" stroke-linecap="round" stroke-linejoin="round"/>
<path d="M8.00195 29.3361C8.00195 31.5761 9.68195 34.1627 11.7353 35.0694L29.842 43.1227C31.2286 43.7361 32.802 43.7361 34.162 43.1227L52.2686 35.0694C54.322 34.1627 56.002 31.5761 56.002 29.3361" stroke="#061310" stroke-width="4.02605" stroke-linecap="round" stroke-linejoin="round"/>
<path d="M8.00195 42.6642C8.00195 45.1442 9.46862 47.3842 11.7353 48.3975L29.842 56.4509C31.2286 57.0642 32.802 57.0642 34.162 56.4509L52.2686 48.3975C54.5353 47.3842 56.002 45.1442 56.002 42.6642" stroke="#061310" stroke-width="4.02605" stroke-linecap="round" stroke-linejoin="round"/>
</svg>
