<svg width="64" height="64" viewBox="0 0 64 64" fill="none" xmlns="http://www.w3.org/2000/svg">
<path d="M29.332 5.33606H23.9987C10.6654 5.33606 5.33203 10.6694 5.33203 24.0027V40.0027C5.33203 53.3361 10.6654 58.6694 23.9987 58.6694H39.9987C53.332 58.6694 58.6654 53.3361 58.6654 40.0027V34.6694" stroke="#061310" stroke-width="4.02605" stroke-linecap="round" stroke-linejoin="round"/>
<path d="M42.773 8.05389L21.7597 29.0672C20.9597 29.8672 20.1597 31.4406 19.9997 32.5872L18.853 40.6139C18.4263 43.5206 20.4797 45.5472 23.3863 45.1472L31.413 44.0006C32.533 43.8406 34.1063 43.0406 34.933 42.2406L55.9463 21.2272C59.573 17.6006 61.2797 13.3872 55.9463 8.05389C50.613 2.72055 46.3997 4.42722 42.773 8.05389Z" stroke="#061310" stroke-width="4.02605" stroke-miterlimit="10" stroke-linecap="round" stroke-linejoin="round"/>
<path d="M39.7617 11.0704C41.5484 17.4438 46.5351 22.4304 52.9351 24.2438L39.7617 11.0704Z" fill="#061310"/>
<path d="M39.7617 11.0704C41.5484 17.4438 46.5351 22.4304 52.9351 24.2438" stroke="#061310" stroke-width="4.02605" stroke-miterlimit="10" stroke-linecap="round" stroke-linejoin="round"/>
</svg>
