<svg width="64" height="64" viewBox="0 0 64 64" fill="none" xmlns="http://www.w3.org/2000/svg">
<path d="M25.6543 42.6642L29.6543 46.6642L38.321 38.6642" fill="#061310"/>
<path d="M25.6543 42.6642L29.6543 46.6642L38.321 38.6642" stroke="#061310" stroke-width="4.02605" stroke-linecap="round" stroke-linejoin="round"/>
<path d="M23.4932 5.33606L13.8398 15.0161" stroke="#061310" stroke-width="4.02605" stroke-miterlimit="10" stroke-linecap="round" stroke-linejoin="round"/>
<path d="M40.5078 5.33606L50.1611 15.0161" stroke="#061310" stroke-width="4.02605" stroke-miterlimit="10" stroke-linecap="round" stroke-linejoin="round"/>
<path d="M5.33594 20.935C5.33594 16.0017 7.97594 15.6017 11.2559 15.6017H52.7493C56.0293 15.6017 58.6693 16.0017 58.6693 20.935C58.6693 26.6684 56.0293 26.2684 52.7493 26.2684H11.2559C7.97594 26.2684 5.33594 26.6684 5.33594 20.935Z" stroke="#061310" stroke-width="4.02605"/>
<path d="M9.33398 26.6639L13.094 49.7039C13.9473 54.8773 16.0007 58.6639 23.6273 58.6639H39.7073C48.0007 58.6639 49.2273 55.0373 50.1873 50.0239L54.6673 26.6639" stroke="#061310" stroke-width="4.02605" stroke-linecap="round"/>
</svg>
