<svg width="64" height="64" viewBox="0 0 64 64" fill="none" xmlns="http://www.w3.org/2000/svg">
<path d="M58.6667 46.6642H40" stroke="#061310" stroke-width="4.02605" stroke-miterlimit="10" stroke-linecap="round" stroke-linejoin="round"/>
<path d="M13.3359 46.6642H5.33594" stroke="#061310" stroke-width="4.02605" stroke-miterlimit="10" stroke-linecap="round" stroke-linejoin="round"/>
<path d="M58.668 17.3361H50.668" stroke="#061310" stroke-width="4.02605" stroke-miterlimit="10" stroke-linecap="round" stroke-linejoin="round"/>
<path d="M24.0026 17.3361H5.33594" stroke="#061310" stroke-width="4.02605" stroke-miterlimit="10" stroke-linecap="round" stroke-linejoin="round"/>
<path d="M18.6654 38.6642H34.6654C37.5987 38.6642 39.9987 39.9975 39.9987 43.9975V49.3309C39.9987 53.3309 37.5987 54.6642 34.6654 54.6642H18.6654C15.732 54.6642 13.332 53.3309 13.332 49.3309V43.9975C13.332 39.9975 15.732 38.6642 18.6654 38.6642Z" stroke="#061310" stroke-width="4.02605" stroke-miterlimit="10" stroke-linecap="round" stroke-linejoin="round"/>
<path d="M29.3314 9.33606H45.3314C48.2647 9.33606 50.6647 10.6694 50.6647 14.6694V20.0027C50.6647 24.0027 48.2647 25.3361 45.3314 25.3361H29.3314C26.398 25.3361 23.998 24.0027 23.998 20.0027V14.6694C23.998 10.6694 26.398 9.33606 29.3314 9.33606Z" stroke="#061310" stroke-width="4.02605" stroke-miterlimit="10" stroke-linecap="round" stroke-linejoin="round"/>
</svg>
