<svg width="12" height="10" viewBox="0 0 12 10" fill="none" xmlns="http://www.w3.org/2000/svg">
<mask id="path-1-inside-1_780_10201" fill="white">
<path fill-rule="evenodd" clip-rule="evenodd" d="M0.628251 8.71148L0.629927 8.71037L0.638867 8.70478C0.706263 8.66582 0.774834 8.62892 0.844484 8.59415C0.987522 8.5204 1.1937 8.42094 1.44122 8.32204C1.94241 8.12201 2.58385 7.93316 3.20629 7.93316C4.11704 7.93316 4.91995 8.30584 5.8212 8.73104L5.85473 8.74725C6.71966 9.15513 7.68014 9.60938 8.79371 9.60938C9.56813 9.60938 10.3235 9.37918 10.87 9.16016C11.1644 9.04217 11.4513 8.90652 11.7293 8.75395C11.7517 8.7411 11.7696 8.7316 11.7819 8.72378L11.7964 8.7154L11.8009 8.71316L11.8025 8.71204C11.8958 8.65396 11.9625 8.56161 11.9883 8.45485C12.0141 8.3481 11.9969 8.23547 11.9406 8.14122C11.8842 8.04697 11.793 7.97862 11.6867 7.95089C11.5805 7.92316 11.4676 7.93826 11.3723 7.99294L11.3701 7.99406L11.3611 7.99965C11.2936 8.03838 11.2252 8.07564 11.1561 8.1114C11.0119 8.18403 10.8063 8.28349 10.5582 8.38239C10.0576 8.58242 9.41615 8.77127 8.79371 8.77127C7.88296 8.77127 7.07949 8.39859 6.1788 7.97339L6.14527 7.95718C5.28034 7.5493 4.31986 7.09504 3.20629 7.09504C2.43187 7.09504 1.67645 7.32525 1.13 7.54427C0.835632 7.66224 0.54866 7.79789 0.270656 7.95048C0.253067 7.96039 0.235559 7.97045 0.218134 7.98065L0.203607 7.98903L0.199137 7.99183H0.198019L0.19746 7.99294C0.106692 8.05213 0.0423804 8.14418 0.0180219 8.24976C-0.00633665 8.35535 0.0111523 8.46627 0.0668182 8.55924C0.122484 8.65221 0.211999 8.72 0.316575 8.74839C0.421151 8.77677 0.533217 8.76355 0.628251 8.71148ZM0.628251 5.35903L0.629927 5.35791L0.638867 5.35233C0.706263 5.31336 0.774834 5.27647 0.844484 5.2417C0.987522 5.16794 1.1937 5.06849 1.44122 4.96959C1.94241 4.76956 2.58385 4.5807 3.20629 4.5807C4.11704 4.5807 4.91995 4.95339 5.8212 5.37859L5.85473 5.39479C6.71966 5.80267 7.68014 6.25693 8.79371 6.25693C9.56813 6.25693 10.3235 6.02673 10.87 5.8077C11.1644 5.68972 11.4513 5.55407 11.7293 5.4015C11.7517 5.38865 11.7696 5.37915 11.7819 5.37132L11.7964 5.36294L11.8009 5.36071L11.8025 5.35959C11.8958 5.30151 11.9625 5.20916 11.9883 5.1024C12.0141 4.99564 11.9969 4.88302 11.9406 4.78877C11.8842 4.69452 11.793 4.62617 11.6867 4.59844C11.5805 4.57071 11.4676 4.58581 11.3723 4.64049L11.3701 4.64161L11.3611 4.64719C11.2936 4.68593 11.2252 4.72318 11.1561 4.75894C11.0119 4.83158 10.8063 4.93104 10.5582 5.02993C10.0576 5.22996 9.41615 5.41882 8.79371 5.41882C7.88296 5.41882 7.07949 5.04614 6.1788 4.62093L6.14527 4.60473C5.28034 4.19685 4.31986 3.74259 3.20629 3.74259C2.43187 3.74259 1.67645 3.97279 1.13 4.19182C0.835632 4.30979 0.54866 4.44544 0.270656 4.59802C0.253067 4.60794 0.235559 4.618 0.218134 4.6282L0.203607 4.63658L0.199137 4.63881L0.198019 4.63993H0.19746C0.10424 4.69801 0.0375485 4.79037 0.0117373 4.89712C-0.0140739 5.00388 0.00305898 5.1165 0.0594489 5.21075C0.115839 5.30501 0.206978 5.37335 0.313252 5.40108C0.419526 5.42881 0.532998 5.41371 0.628251 5.35903ZM0.628251 2.00658L0.629927 2.00602L0.638867 2.00043C0.70639 1.96168 0.774759 1.92442 0.843925 1.88868C0.987522 1.81549 1.1937 1.71603 1.44122 1.61713C1.94241 1.41711 2.58385 1.22825 3.20629 1.22825C4.11704 1.22825 4.91995 1.60093 5.8212 2.02613L5.85473 2.04234C6.71966 2.45022 7.68014 2.90448 8.79371 2.90448C9.56813 2.90448 10.3235 2.67428 10.87 2.45525C11.1644 2.33729 11.4513 2.20164 11.7293 2.04904C11.7517 2.03619 11.7696 2.02669 11.7819 2.01887L11.7964 2.01049L11.8009 2.00825L11.8025 2.00714C11.8958 1.94906 11.9625 1.8567 11.9883 1.74994C12.0141 1.64319 11.9969 1.53057 11.9406 1.43631C11.8842 1.34206 11.793 1.27372 11.6867 1.24598C11.5805 1.21825 11.4676 1.23335 11.3723 1.28804L11.3701 1.28859L11.3611 1.29418C11.2936 1.33294 11.2252 1.3702 11.1561 1.40593C11.0119 1.47913 10.8063 1.57858 10.5582 1.67748C10.0576 1.87751 9.41615 2.06636 8.79371 2.06636C7.88296 2.06636 7.07949 1.69368 6.1788 1.26848L6.14527 1.25228C5.28034 0.844394 4.31986 0.390137 3.20629 0.390137C2.43187 0.390137 1.67645 0.620338 1.13 0.839365C0.83562 0.957306 0.548647 1.09296 0.270656 1.24557C0.248306 1.25842 0.230426 1.26792 0.218134 1.27574L0.203607 1.28412L0.199137 1.28636L0.198019 1.28748H0.19746C0.10424 1.34556 0.0375485 1.43791 0.0117373 1.54467C-0.0140739 1.65143 0.00305898 1.76405 0.0594489 1.8583C0.115839 1.95255 0.206978 2.0209 0.313252 2.04863C0.419526 2.07636 0.532998 2.06126 0.628251 2.00658Z"/>
</mask>
<path fill-rule="evenodd" clip-rule="evenodd" d="M0.628251 8.71148L0.629927 8.71037L0.638867 8.70478C0.706263 8.66582 0.774834 8.62892 0.844484 8.59415C0.987522 8.5204 1.1937 8.42094 1.44122 8.32204C1.94241 8.12201 2.58385 7.93316 3.20629 7.93316C4.11704 7.93316 4.91995 8.30584 5.8212 8.73104L5.85473 8.74725C6.71966 9.15513 7.68014 9.60938 8.79371 9.60938C9.56813 9.60938 10.3235 9.37918 10.87 9.16016C11.1644 9.04217 11.4513 8.90652 11.7293 8.75395C11.7517 8.7411 11.7696 8.7316 11.7819 8.72378L11.7964 8.7154L11.8009 8.71316L11.8025 8.71204C11.8958 8.65396 11.9625 8.56161 11.9883 8.45485C12.0141 8.3481 11.9969 8.23547 11.9406 8.14122C11.8842 8.04697 11.793 7.97862 11.6867 7.95089C11.5805 7.92316 11.4676 7.93826 11.3723 7.99294L11.3701 7.99406L11.3611 7.99965C11.2936 8.03838 11.2252 8.07564 11.1561 8.1114C11.0119 8.18403 10.8063 8.28349 10.5582 8.38239C10.0576 8.58242 9.41615 8.77127 8.79371 8.77127C7.88296 8.77127 7.07949 8.39859 6.1788 7.97339L6.14527 7.95718C5.28034 7.5493 4.31986 7.09504 3.20629 7.09504C2.43187 7.09504 1.67645 7.32525 1.13 7.54427C0.835632 7.66224 0.54866 7.79789 0.270656 7.95048C0.253067 7.96039 0.235559 7.97045 0.218134 7.98065L0.203607 7.98903L0.199137 7.99183H0.198019L0.19746 7.99294C0.106692 8.05213 0.0423804 8.14418 0.0180219 8.24976C-0.00633665 8.35535 0.0111523 8.46627 0.0668182 8.55924C0.122484 8.65221 0.211999 8.72 0.316575 8.74839C0.421151 8.77677 0.533217 8.76355 0.628251 8.71148ZM0.628251 5.35903L0.629927 5.35791L0.638867 5.35233C0.706263 5.31336 0.774834 5.27647 0.844484 5.2417C0.987522 5.16794 1.1937 5.06849 1.44122 4.96959C1.94241 4.76956 2.58385 4.5807 3.20629 4.5807C4.11704 4.5807 4.91995 4.95339 5.8212 5.37859L5.85473 5.39479C6.71966 5.80267 7.68014 6.25693 8.79371 6.25693C9.56813 6.25693 10.3235 6.02673 10.87 5.8077C11.1644 5.68972 11.4513 5.55407 11.7293 5.4015C11.7517 5.38865 11.7696 5.37915 11.7819 5.37132L11.7964 5.36294L11.8009 5.36071L11.8025 5.35959C11.8958 5.30151 11.9625 5.20916 11.9883 5.1024C12.0141 4.99564 11.9969 4.88302 11.9406 4.78877C11.8842 4.69452 11.793 4.62617 11.6867 4.59844C11.5805 4.57071 11.4676 4.58581 11.3723 4.64049L11.3701 4.64161L11.3611 4.64719C11.2936 4.68593 11.2252 4.72318 11.1561 4.75894C11.0119 4.83158 10.8063 4.93104 10.5582 5.02993C10.0576 5.22996 9.41615 5.41882 8.79371 5.41882C7.88296 5.41882 7.07949 5.04614 6.1788 4.62093L6.14527 4.60473C5.28034 4.19685 4.31986 3.74259 3.20629 3.74259C2.43187 3.74259 1.67645 3.97279 1.13 4.19182C0.835632 4.30979 0.54866 4.44544 0.270656 4.59802C0.253067 4.60794 0.235559 4.618 0.218134 4.6282L0.203607 4.63658L0.199137 4.63881L0.198019 4.63993H0.19746C0.10424 4.69801 0.0375485 4.79037 0.0117373 4.89712C-0.0140739 5.00388 0.00305898 5.1165 0.0594489 5.21075C0.115839 5.30501 0.206978 5.37335 0.313252 5.40108C0.419526 5.42881 0.532998 5.41371 0.628251 5.35903ZM0.628251 2.00658L0.629927 2.00602L0.638867 2.00043C0.70639 1.96168 0.774759 1.92442 0.843925 1.88868C0.987522 1.81549 1.1937 1.71603 1.44122 1.61713C1.94241 1.41711 2.58385 1.22825 3.20629 1.22825C4.11704 1.22825 4.91995 1.60093 5.8212 2.02613L5.85473 2.04234C6.71966 2.45022 7.68014 2.90448 8.79371 2.90448C9.56813 2.90448 10.3235 2.67428 10.87 2.45525C11.1644 2.33729 11.4513 2.20164 11.7293 2.04904C11.7517 2.03619 11.7696 2.02669 11.7819 2.01887L11.7964 2.01049L11.8009 2.00825L11.8025 2.00714C11.8958 1.94906 11.9625 1.8567 11.9883 1.74994C12.0141 1.64319 11.9969 1.53057 11.9406 1.43631C11.8842 1.34206 11.793 1.27372 11.6867 1.24598C11.5805 1.21825 11.4676 1.23335 11.3723 1.28804L11.3701 1.28859L11.3611 1.29418C11.2936 1.33294 11.2252 1.3702 11.1561 1.40593C11.0119 1.47913 10.8063 1.57858 10.5582 1.67748C10.0576 1.87751 9.41615 2.06636 8.79371 2.06636C7.88296 2.06636 7.07949 1.69368 6.1788 1.26848L6.14527 1.25228C5.28034 0.844394 4.31986 0.390137 3.20629 0.390137C2.43187 0.390137 1.67645 0.620338 1.13 0.839365C0.83562 0.957306 0.548647 1.09296 0.270656 1.24557C0.248306 1.25842 0.230426 1.26792 0.218134 1.27574L0.203607 1.28412L0.199137 1.28636L0.198019 1.28748H0.19746C0.10424 1.34556 0.0375485 1.43791 0.0117373 1.54467C-0.0140739 1.65143 0.00305898 1.76405 0.0594489 1.8583C0.115839 1.95255 0.206978 2.0209 0.313252 2.04863C0.419526 2.07636 0.532998 2.06126 0.628251 2.00658Z" fill="white"/>
<path d="M12.0423 8.56869L11.8272 8.20886L11.3476 8.49557L11.5628 8.8554L12.0423 8.56869ZM-0.0422299 8.13646L0.172886 8.49573L0.652266 8.2087L0.437151 7.84943L-0.0422299 8.13646ZM12.0423 5.21624L11.8272 4.85641L11.3476 5.14311L11.5628 5.50294L12.0423 5.21624ZM-0.0423281 4.78328L0.172788 5.14311L0.652365 4.85641L0.437249 4.49658L-0.0423281 4.78328ZM12.0423 1.86379L11.8272 1.50396L11.3476 1.79066L11.5628 2.15049L12.0423 1.86379ZM-0.0423281 1.43083L0.172788 1.79066L0.652365 1.50396L0.437249 1.14412L-0.0423281 1.43083ZM0.628251 8.71148L0.896702 9.20151L0.917926 9.18989L0.938066 9.17647L0.628251 8.71148ZM0.629927 8.71037L0.33379 8.23656L0.326886 8.24087L0.320112 8.24539L0.629927 8.71037ZM0.638867 8.70478L0.359222 8.22105L0.35089 8.22587L0.34273 8.23097L0.638867 8.70478ZM0.844484 8.59415L1.09409 9.09409L1.10055 9.09076L0.844484 8.59415ZM1.44122 8.32204L1.23411 7.8031L1.23391 7.80318L1.44122 8.32204ZM5.8212 8.73104L6.06437 8.22796L6.05961 8.22572L5.8212 8.73104ZM5.85473 8.74725L5.61156 9.25033L5.61641 9.25261L5.85473 8.74725ZM10.87 9.16016L10.6621 8.64152L10.87 9.16016ZM11.7293 8.75395L11.9982 9.24388L12.0079 9.23833L11.7293 8.75395ZM11.7819 8.72378L11.5026 8.23981L11.4921 8.24587L11.4819 8.25239L11.7819 8.72378ZM11.7964 8.7154L11.5465 8.21564L11.5316 8.2231L11.5172 8.23143L11.7964 8.7154ZM11.8009 8.71316L12.0507 9.21292L12.0819 9.19734L12.1109 9.17802L11.8009 8.71316ZM11.8025 8.71204L11.5071 8.23781L11.4997 8.24239L11.4925 8.24719L11.8025 8.71204ZM11.3723 7.99294L11.6221 8.49275L11.6365 8.48554L11.6505 8.47752L11.3723 7.99294ZM11.3701 7.99406L11.1203 7.49426L11.0965 7.50615L11.0739 7.52024L11.3701 7.99406ZM11.3611 7.99965L11.6391 8.48433L11.6483 8.47907L11.6573 8.47346L11.3611 7.99965ZM11.1561 8.1114L11.4075 8.6104L11.4127 8.60772L11.1561 8.1114ZM10.5582 8.38239L10.3513 7.86337L10.3509 7.86353L10.5582 8.38239ZM6.1788 7.97339L5.93563 8.47647L5.94027 8.47866L6.1788 7.97339ZM6.14527 7.95718L6.38844 7.4541L6.38359 7.45182L6.14527 7.95718ZM1.13 7.54427L1.33785 8.06292L1.33788 8.06291L1.13 7.54427ZM0.270656 7.95048L0.00179437 7.46064L-0.00372119 7.46374L0.270656 7.95048ZM0.218134 7.98065L0.497374 8.46462L0.500385 8.46286L0.218134 7.98065ZM0.203607 7.98903L-0.0756284 7.50507L-0.0841484 7.50998L-0.0924901 7.5152L0.203607 7.98903ZM0.199137 7.99183V8.55057H0.359359L0.495233 8.46566L0.199137 7.99183ZM0.198019 7.99183V7.43308H-0.147358L-0.301771 7.74202L0.198019 7.99183ZM0.19746 7.99294L0.502651 8.46097L0.62953 8.37824L0.69725 8.24275L0.19746 7.99294ZM0.628251 5.35903L0.906429 5.8436L0.922627 5.8343L0.938168 5.82394L0.628251 5.35903ZM0.629927 5.35791L0.33379 4.8841L0.326834 4.88845L0.32001 4.893L0.629927 5.35791ZM0.638867 5.35233L0.359222 4.8686L0.35089 4.87342L0.34273 4.87852L0.638867 5.35233ZM0.844484 5.2417L1.09409 5.74164L1.10055 5.73831L0.844484 5.2417ZM1.44122 4.96959L1.23411 4.45065L1.23391 4.45073L1.44122 4.96959ZM5.8212 5.37859L6.06436 4.8755L6.05961 4.87326L5.8212 5.37859ZM5.85473 5.39479L5.61157 5.89788L5.61641 5.90016L5.85473 5.39479ZM10.87 5.8077L10.6621 5.28907V5.28907L10.87 5.8077ZM11.7293 5.4015L11.9982 5.89142L12.0079 5.88587L11.7293 5.4015ZM11.7819 5.37132L11.5027 4.88735L11.4921 4.89342L11.4819 4.89993L11.7819 5.37132ZM11.7964 5.36294L11.5465 4.86319L11.5316 4.87064L11.5172 4.87897L11.7964 5.36294ZM11.8009 5.36071L12.0507 5.86046L12.0818 5.84491L12.1108 5.82563L11.8009 5.36071ZM11.8025 5.35959L11.5071 4.88536L11.4998 4.8899L11.4926 4.89467L11.8025 5.35959ZM11.3723 4.64049L11.6222 5.14024L11.6366 5.13306L11.6505 5.12506L11.3723 4.64049ZM11.3701 4.64161L11.1202 4.14185L11.0965 4.15372L11.0739 4.16779L11.3701 4.64161ZM11.3611 4.64719L11.6391 5.13188L11.6483 5.12662L11.6573 5.12101L11.3611 4.64719ZM11.1561 4.75894L11.4075 5.25795L11.4127 5.25526L11.1561 4.75894ZM10.5582 5.02993L10.3513 4.51091L10.3509 4.51107L10.5582 5.02993ZM6.1788 4.62093L5.93564 5.12402L5.94027 5.1262L6.1788 4.62093ZM6.14527 4.60473L6.38843 4.10164L6.38359 4.09936L6.14527 4.60473ZM1.13 4.19182L1.33785 4.71046L1.33788 4.71045L1.13 4.19182ZM0.270656 4.59802L0.00179437 4.10818L-0.00372119 4.11129L0.270656 4.59802ZM0.218134 4.6282L0.497361 5.11218L0.500385 5.11041L0.218134 4.6282ZM0.203607 4.63658L0.453469 5.13634L0.468384 5.12888L0.482828 5.12055L0.203607 4.63658ZM0.199137 4.63881L-0.0507256 4.13905L-0.131826 4.1796L-0.195942 4.24371L0.199137 4.63881ZM0.198019 4.63993V5.19867H0.429448L0.593098 5.03503L0.198019 4.63993ZM0.19746 4.63993V4.08119H0.037642L-0.0980031 4.1657L0.19746 4.63993ZM0.628251 2.00658L0.451574 1.4765L0.398547 1.49418L0.350072 1.52201L0.628251 2.00658ZM0.629927 2.00602L0.806604 2.53609L0.869682 2.51507L0.926064 2.47983L0.629927 2.00602ZM0.638867 2.00043L0.360746 1.51583L0.351636 1.52106L0.34273 1.52662L0.638867 2.00043ZM0.843925 1.88868L0.590178 1.39087L0.587442 1.39229L0.843925 1.88868ZM1.44122 1.61713L1.23411 1.0982L1.23391 1.09827L1.44122 1.61713ZM5.8212 2.02613L6.06436 1.52305L6.05961 1.52081L5.8212 2.02613ZM5.85473 2.04234L5.61157 2.54542L5.61641 2.54771L5.85473 2.04234ZM10.87 2.45525L10.6622 1.9366L10.6621 1.93662L10.87 2.45525ZM11.7293 2.04904L11.9983 2.53894L12.0079 2.53342L11.7293 2.04904ZM11.7819 2.01887L11.5027 1.53489L11.4921 1.54096L11.4819 1.54748L11.7819 2.01887ZM11.7964 2.01049L11.5465 1.51075L11.5316 1.51819L11.5172 1.52651L11.7964 2.01049ZM11.8009 2.00825L12.0508 2.508L12.0818 2.49245L12.1108 2.47318L11.8009 2.00825ZM11.8025 2.00714L11.5071 1.53291L11.4998 1.53745L11.4926 1.54221L11.8025 2.00714ZM11.3723 1.28804L11.5078 1.8301L11.5831 1.81126L11.6505 1.77261L11.3723 1.28804ZM11.3701 1.28859L11.2346 0.746534L11.1489 0.76796L11.0739 0.814778L11.3701 1.28859ZM11.3611 1.29418L11.6393 1.77876L11.6484 1.77355L11.6573 1.768L11.3611 1.29418ZM11.1561 1.40593L11.409 1.90414L11.4125 1.90235L11.1561 1.40593ZM10.5582 1.67748L10.3513 1.15846L10.3509 1.15862L10.5582 1.67748ZM6.1788 1.26848L5.93564 1.77156L5.94027 1.77375L6.1788 1.26848ZM6.14527 1.25228L6.38843 0.74919L6.38359 0.746908L6.14527 1.25228ZM1.13 0.839365L1.3378 1.35803L1.33788 1.358L1.13 0.839365ZM0.270656 1.24557L0.00171279 0.755689L-0.00786125 0.761194L0.270656 1.24557ZM0.218134 1.27574L0.497349 1.75972L0.507866 1.75365L0.518109 1.74713L0.218134 1.27574ZM0.203607 1.28412L0.453493 1.78387L0.468392 1.77642L0.482822 1.7681L0.203607 1.28412ZM0.199137 1.28636L-0.0507495 0.78661L-0.131835 0.827154L-0.195942 0.891257L0.199137 1.28636ZM0.198019 1.28748V1.84622H0.429448L0.593098 1.68258L0.198019 1.28748ZM0.19746 1.28748V0.728734H0.037642L-0.0980031 0.813247L0.19746 1.28748ZM0.938066 9.17647L0.939742 9.17535L0.320112 8.24539L0.318436 8.2465L0.938066 9.17647ZM0.926064 9.18418L0.935004 9.17859L0.34273 8.23097L0.33379 8.23656L0.926064 9.18418ZM0.918512 9.18851C0.976056 9.15524 1.0346 9.12374 1.09407 9.09405L0.594896 8.09425C0.515065 8.13411 0.43647 8.1764 0.359222 8.22105L0.918512 9.18851ZM1.10055 9.09076C1.23143 9.02328 1.42109 8.93177 1.64853 8.8409L1.23391 7.80318C0.966303 7.9101 0.743613 8.01752 0.588419 8.09754L1.10055 9.09076ZM1.64833 8.84098C2.1197 8.65286 2.68535 8.4919 3.20629 8.4919V7.37442C2.48235 7.37442 1.76513 7.59117 1.23411 7.8031L1.64833 8.84098ZM3.20629 8.4919C3.97156 8.4919 4.66213 8.80201 5.58279 9.23637L6.05961 8.22572C5.17777 7.80967 4.26252 7.37442 3.20629 7.37442V8.4919ZM5.57805 9.2341L5.61157 9.2503L6.09788 8.24419L6.06436 8.22798L5.57805 9.2341ZM5.61641 9.25261C6.46627 9.65339 7.5364 10.1681 8.79371 10.1681V9.05064C7.82388 9.05064 6.97305 8.65687 6.09305 8.24188L5.61641 9.25261ZM8.79371 10.1681C9.66943 10.1681 10.5006 9.91017 11.0779 9.67879L10.6621 8.64152C10.1465 8.84819 9.46683 9.05064 8.79371 9.05064V10.1681ZM11.0779 9.67879C11.3931 9.55244 11.7004 9.40717 11.9982 9.24378L11.4605 8.26412C11.2022 8.40587 10.9356 8.5319 10.6621 8.64152L11.0779 9.67879ZM12.0079 9.23833C12.0163 9.2335 12.0213 9.23075 12.0337 9.22376C12.042 9.21905 12.0616 9.20807 12.0818 9.19517L11.4819 8.25239C11.4846 8.25068 11.4866 8.24942 11.4879 8.24867C11.4891 8.24792 11.4899 8.24748 11.4899 8.24743C11.49 8.24738 11.4897 8.24757 11.4888 8.24807C11.488 8.24857 11.4868 8.24925 11.4851 8.2502C11.4834 8.25116 11.4815 8.25221 11.4791 8.25355C11.4768 8.25483 11.4741 8.25637 11.4712 8.25797C11.4655 8.26122 11.4585 8.26516 11.4508 8.26957L12.0079 9.23833ZM12.0611 9.20775L12.0756 9.19937L11.5172 8.23143L11.5026 8.23981L12.0611 9.20775ZM12.0463 9.21515L12.0507 9.21292L11.551 8.21341L11.5465 8.21564L12.0463 9.21515ZM12.1109 9.17802L12.1125 9.1769L11.4925 8.24719L11.4909 8.24831L12.1109 9.17802ZM12.098 9.18627C12.3155 9.05076 12.4711 8.83526 12.5314 8.58616L11.4452 8.32354C11.4538 8.28796 11.476 8.25717 11.5071 8.23781L12.098 9.18627ZM12.5314 8.58616C12.5916 8.33706 12.5516 8.07427 12.42 7.85435L11.4611 8.42809C11.4423 8.39667 11.4366 8.35913 11.4452 8.32354L12.5314 8.58616ZM12.42 7.85435C12.2885 7.63443 12.0758 7.47496 11.8278 7.41025L11.5457 8.49153C11.5102 8.48229 11.4799 8.45951 11.4611 8.42809L12.42 7.85435ZM11.8278 7.41025C11.5799 7.34555 11.3164 7.38078 11.0941 7.50837L11.6505 8.47752C11.6187 8.49574 11.5811 8.50078 11.5457 8.49153L11.8278 7.41025ZM11.1225 7.49314L11.1203 7.49426L11.6199 8.49386L11.6221 8.49275L11.1225 7.49314ZM11.0739 7.52024L11.065 7.52583L11.6573 8.47346L11.6662 8.46788L11.0739 7.52024ZM11.0832 7.51496C11.0226 7.54966 10.9614 7.58304 10.8994 7.61508L11.4127 8.60772C11.4891 8.56823 11.5645 8.5271 11.6391 8.48433L11.0832 7.51496ZM10.9047 7.61242C10.7685 7.68105 10.5787 7.77272 10.3513 7.86337L10.7651 8.90141C11.0339 8.79426 11.2554 8.68702 11.4075 8.61037L10.9047 7.61242ZM10.3509 7.86353C9.88029 8.05156 9.31465 8.21253 8.79371 8.21253V9.33001C9.51765 9.33001 10.2349 9.11327 10.7655 8.90125L10.3509 7.86353ZM8.79371 8.21253C8.02844 8.21253 7.33721 7.90238 6.41733 7.46812L5.94027 8.47866C6.82177 8.8948 7.73749 9.33001 8.79371 9.33001V8.21253ZM6.42196 7.47033L6.38843 7.45412L5.90212 8.46024L5.93564 8.47645L6.42196 7.47033ZM6.38359 7.45182C5.53373 7.05104 4.4636 6.5363 3.20629 6.5363V7.65379C4.17612 7.65379 5.02695 8.04756 5.90695 8.46255L6.38359 7.45182ZM3.20629 6.5363C2.33057 6.5363 1.49941 6.79426 0.922124 7.02564L1.33788 8.06291C1.8535 7.85624 2.53317 7.65379 3.20629 7.65379V6.5363ZM0.922156 7.02563C0.606891 7.15197 0.29955 7.29725 0.00181163 7.46067L0.5395 8.44029C0.79777 8.29853 1.06437 8.17251 1.33785 8.06292L0.922156 7.02563ZM-0.00372119 7.46374C-0.0239382 7.47514 -0.0440711 7.48671 -0.0641174 7.49844L0.500385 8.46286C0.515189 8.4542 0.530072 8.44565 0.545032 8.43721L-0.00372119 7.46374ZM-0.0611011 7.49669L-0.0756284 7.50507L0.482841 8.473L0.497369 8.46461L-0.0611011 7.49669ZM-0.0924901 7.5152L-0.09696 7.51799L0.495233 8.46566L0.499703 8.46287L-0.0924901 7.5152ZM0.199137 7.43308H0.198019V8.55057H0.199137V7.43308ZM-0.301771 7.74202L-0.30233 7.74314L0.69725 8.24275L0.697809 8.24163L-0.301771 7.74202ZM-0.107731 7.52491C-0.319523 7.66302 -0.469584 7.87779 -0.526421 8.12416L0.562464 8.37537C0.554345 8.41056 0.532908 8.44124 0.502651 8.46097L-0.107731 7.52491ZM-0.526421 8.12416C-0.583257 8.37053 -0.542449 8.62934 -0.412562 8.84627L0.546199 8.27221C0.564754 8.3032 0.570584 8.34017 0.562464 8.37537L-0.526421 8.12416ZM-0.412562 8.84627C-0.282674 9.0632 -0.0738059 9.22138 0.170204 9.28762L0.462947 8.20916C0.497804 8.21862 0.527643 8.24122 0.546199 8.27221L-0.412562 8.84627ZM0.170204 9.28762C0.413976 9.35379 0.674739 9.32311 0.896702 9.20151L0.3598 8.22146C0.391695 8.20398 0.428327 8.19976 0.462947 8.20916L0.170204 9.28762ZM0.938168 5.82394L0.939844 5.82283L0.32001 4.893L0.318333 4.89412L0.938168 5.82394ZM0.926064 5.83172L0.935004 5.82614L0.34273 4.87852L0.33379 4.8841L0.926064 5.83172ZM0.918512 5.83605C0.976056 5.80279 1.0346 5.77129 1.09407 5.74159L0.594896 4.7418C0.515065 4.78165 0.43647 4.82394 0.359222 4.8686L0.918512 5.83605ZM1.10055 5.73831C1.23143 5.67082 1.42109 5.57932 1.64853 5.48845L1.23391 4.45073C0.966304 4.55765 0.743615 4.66506 0.588419 4.74508L1.10055 5.73831ZM1.64833 5.48853C2.1197 5.3004 2.68535 5.13945 3.20629 5.13945V4.02196C2.48235 4.02196 1.76513 4.23872 1.23411 4.45065L1.64833 5.48853ZM3.20629 5.13945C3.97156 5.13945 4.66213 5.44955 5.58279 5.88391L6.05961 4.87326C5.17777 4.45722 4.26252 4.02196 3.20629 4.02196V5.13945ZM5.57806 5.88165L5.61158 5.89786L6.09787 4.89173L6.06435 4.87552L5.57806 5.88165ZM5.61641 5.90016C6.46627 6.30094 7.5364 6.81567 8.79371 6.81567V5.69819C7.82388 5.69819 6.97305 5.30441 6.09305 4.88942L5.61641 5.90016ZM8.79371 6.81567C9.66943 6.81567 10.5006 6.55772 11.0779 6.32633L10.6621 5.28907C10.1465 5.49574 9.46683 5.69819 8.79371 5.69819V6.81567ZM11.0779 6.32633C11.3931 6.19998 11.7004 6.05472 11.9982 5.89132L11.4605 4.91167C11.2022 5.05342 10.9356 5.17945 10.6621 5.28907L11.0779 6.32633ZM12.0079 5.88587C12.0163 5.88105 12.0213 5.8783 12.0337 5.8713C12.042 5.86659 12.0616 5.85561 12.0818 5.84271L11.4819 4.89993C11.4846 4.89823 11.4866 4.89697 11.4879 4.89622C11.4891 4.89547 11.4899 4.89503 11.4899 4.89498C11.49 4.89493 11.4897 4.89512 11.4888 4.89562C11.488 4.89612 11.4868 4.8968 11.4851 4.89774C11.4834 4.89871 11.4815 4.89976 11.4791 4.9011C11.4768 4.90237 11.4741 4.90391 11.4712 4.90552C11.4655 4.90877 11.4585 4.91271 11.4508 4.91712L12.0079 5.88587ZM12.0611 5.8553L12.0756 5.84692L11.5172 4.87897L11.5027 4.88735L12.0611 5.8553ZM12.0463 5.8627L12.0507 5.86046L11.551 4.86095L11.5465 4.86319L12.0463 5.8627ZM12.1108 5.82563L12.1124 5.82452L11.4926 4.89467L11.491 4.89578L12.1108 5.82563ZM12.098 5.83382C12.3155 5.6983 12.4711 5.48281 12.5314 5.23371L11.4452 4.97109C11.4538 4.9355 11.476 4.90472 11.5071 4.88536L12.098 5.83382ZM12.5314 5.23371C12.5916 4.98461 12.5516 4.72182 12.42 4.5019L11.4611 5.07563C11.4423 5.04422 11.4366 5.00668 11.4452 4.97109L12.5314 5.23371ZM12.42 4.5019C12.2885 4.28198 12.0758 4.12251 11.8278 4.0578L11.5457 5.13908C11.5102 5.12983 11.4799 5.10705 11.4611 5.07563L12.42 4.5019ZM11.8278 4.0578C11.5799 3.99309 11.3164 4.02833 11.0941 4.15592L11.6505 5.12506C11.6187 5.14329 11.5811 5.14832 11.5457 5.13908L11.8278 4.0578ZM11.1224 4.14074L11.1202 4.14185L11.62 5.14136L11.6222 5.14024L11.1224 4.14074ZM11.0739 4.16779L11.065 4.17338L11.6573 5.12101L11.6662 5.11542L11.0739 4.16779ZM11.0832 4.16251C11.0227 4.19721 10.9614 4.23059 10.8994 4.26262L11.4127 5.25526C11.4891 5.21578 11.5645 5.17464 11.6391 5.13188L11.0832 4.16251ZM10.9047 4.25996C10.7685 4.32859 10.5787 4.42027 10.3513 4.51091L10.7651 5.54895C11.0339 5.4418 11.2554 5.33457 11.4075 5.25792L10.9047 4.25996ZM10.3509 4.51107C9.88029 4.69911 9.31465 4.86007 8.79371 4.86007V5.97756C9.51765 5.97756 10.2349 5.76081 10.7655 5.54879L10.3509 4.51107ZM8.79371 4.86007C8.02844 4.86007 7.33721 4.54992 6.41733 4.11566L5.94027 5.1262C6.82177 5.54235 7.73749 5.97756 8.79371 5.97756V4.86007ZM6.42194 4.11787L6.38842 4.10167L5.90213 5.10779L5.93565 5.124L6.42194 4.11787ZM6.38359 4.09936C5.53373 3.69859 4.4636 3.18385 3.20629 3.18385V4.30133C4.17612 4.30133 5.02695 4.69511 5.90695 5.1101L6.38359 4.09936ZM3.20629 3.18385C2.33058 3.18385 1.49941 3.4418 0.922124 3.67319L1.33788 4.71045C1.8535 4.50378 2.53317 4.30133 3.20629 4.30133V3.18385ZM0.922156 3.67317C0.606891 3.79952 0.299549 3.94479 0.00181163 4.10821L0.5395 5.08784C0.797771 4.94608 1.06437 4.82006 1.33785 4.71046L0.922156 3.67317ZM-0.00372119 4.11129C-0.0239457 4.12269 -0.0440784 4.13426 -0.0641174 4.14599L0.500385 5.11041C0.515197 5.10174 0.53008 5.09319 0.545032 5.08476L-0.00372119 4.11129ZM-0.0610878 4.14423L-0.0756151 4.15261L0.482828 5.12055L0.497355 5.11217L-0.0610878 4.14423ZM-0.0462557 4.13682L-0.0507256 4.13905L0.448999 5.13858L0.453469 5.13634L-0.0462557 4.13682ZM-0.195942 4.24371L-0.19706 4.24483L0.593098 5.03503L0.594215 5.03392L-0.195942 4.24371ZM0.198019 4.08119H0.19746V5.19867H0.198019V4.08119ZM-0.0980031 4.1657C-0.315516 4.30122 -0.471131 4.51672 -0.531357 4.76582L0.554832 5.02843C0.546228 5.06402 0.523997 5.0948 0.492924 5.11416L-0.0980031 4.1657ZM-0.531357 4.76582C-0.591583 5.01491 -0.551606 5.2777 -0.42003 5.49762L0.538928 4.92389C0.557724 4.9553 0.563435 4.99284 0.554832 5.02843L-0.531357 4.76582ZM-0.42003 5.49762C-0.288454 5.71754 -0.0757967 5.87702 0.172177 5.94172L0.454327 4.86044C0.489752 4.86969 0.520131 4.89247 0.538928 4.92389L-0.42003 5.49762ZM0.172177 5.94172C0.419884 6.00636 0.683935 5.97133 0.906429 5.8436L0.350072 4.87446C0.382061 4.8561 0.419168 4.85127 0.454327 4.86044L0.172177 5.94172ZM0.804928 2.53665L0.806604 2.53609L0.45325 1.47595L0.451574 1.4765L0.804928 2.53665ZM0.926064 2.47983L0.935004 2.47424L0.34273 1.52662L0.33379 1.53221L0.926064 2.47983ZM0.916988 2.48504C0.977386 2.45037 1.03854 2.41705 1.10041 2.38508L0.587442 1.39229C0.510978 1.4318 0.435394 1.47299 0.360746 1.51583L0.916988 2.48504ZM1.09767 2.38649C1.23099 2.31853 1.42117 2.22684 1.64853 2.13599L1.23391 1.09827C0.966224 1.20523 0.744054 1.31245 0.590182 1.39088L1.09767 2.38649ZM1.64833 2.13607C2.1197 1.94795 2.68535 1.78699 3.20629 1.78699V0.669508C2.48235 0.669508 1.76513 0.886262 1.23411 1.0982L1.64833 2.13607ZM3.20629 1.78699C3.97156 1.78699 4.66213 2.0971 5.58279 2.53146L6.05961 1.52081C5.17777 1.10476 4.26252 0.669508 3.20629 0.669508V1.78699ZM5.57806 2.5292L5.61158 2.5454L6.09787 1.53927L6.06435 1.52307L5.57806 2.5292ZM5.61641 2.54771C6.46627 2.94848 7.5364 3.46322 8.79371 3.46322V2.34573C7.82388 2.34573 6.97305 1.95196 6.09305 1.53697L5.61641 2.54771ZM8.79371 3.46322C9.66943 3.46322 10.5006 3.20527 11.0779 2.97388L10.6621 1.93662C10.1465 2.14328 9.46683 2.34573 8.79371 2.34573V3.46322ZM11.0778 2.9739C11.3931 2.84757 11.7005 2.70228 11.9982 2.53885L11.4605 1.55924C11.2022 1.701 10.9356 1.82702 10.6622 1.9366L11.0778 2.9739ZM12.0079 2.53342C12.0163 2.52859 12.0213 2.52584 12.0337 2.51885C12.042 2.51414 12.0616 2.50316 12.0818 2.49026L11.4819 1.54748C11.4846 1.54578 11.4866 1.54452 11.4879 1.54377C11.4891 1.54301 11.4899 1.54258 11.4899 1.54253C11.49 1.54248 11.4897 1.54267 11.4888 1.54317C11.488 1.54367 11.4868 1.54434 11.4851 1.54529C11.4834 1.54625 11.4815 1.54731 11.4791 1.54865C11.4768 1.54992 11.4741 1.55146 11.4712 1.55307C11.4655 1.55632 11.4585 1.56025 11.4508 1.56467L12.0079 2.53342ZM12.0611 2.50285L12.0756 2.49447L11.5172 1.52651L11.5027 1.53489L12.0611 2.50285ZM12.0463 2.51023L12.0508 2.508L11.551 1.50851L11.5465 1.51075L12.0463 2.51023ZM12.1108 2.47318L12.1124 2.47206L11.4926 1.54221L11.491 1.54333L12.1108 2.47318ZM12.098 2.48137C12.3155 2.34585 12.4711 2.13035 12.5314 1.88125L11.4452 1.61864C11.4538 1.58305 11.476 1.55227 11.5071 1.53291L12.098 2.48137ZM12.5314 1.88125C12.5916 1.63215 12.5516 1.36936 12.42 1.14945L11.4611 1.72318C11.4423 1.69177 11.4366 1.65422 11.4452 1.61864L12.5314 1.88125ZM12.42 1.14945C12.2885 0.929526 12.0758 0.770052 11.8278 0.705345L11.5457 1.78662C11.5102 1.77738 11.4799 1.7546 11.4611 1.72318L12.42 1.14945ZM11.8278 0.705345C11.5799 0.640639 11.3164 0.675873 11.0941 0.803464L11.6505 1.77261C11.6187 1.79083 11.5811 1.79587 11.5457 1.78662L11.8278 0.705345ZM11.2368 0.745976L11.2346 0.746534L11.5056 1.83065L11.5078 1.8301L11.2368 0.745976ZM11.0739 0.814778L11.065 0.820366L11.6573 1.768L11.6662 1.76241L11.0739 0.814778ZM11.083 0.809604C11.0226 0.844256 10.9615 0.877566 10.8996 0.909509L11.4125 1.90235C11.489 1.86283 11.5646 1.82163 11.6393 1.77876L11.083 0.809604ZM10.9031 0.90773C10.7682 0.976233 10.5787 1.06782 10.3513 1.15846L10.7651 2.1965C11.0339 2.08935 11.2556 1.98202 11.409 1.90413L10.9031 0.90773ZM10.3509 1.15862C9.88029 1.34666 9.31465 1.50762 8.79371 1.50762V2.62511C9.51765 2.62511 10.2349 2.40836 10.7655 2.19634L10.3509 1.15862ZM8.79371 1.50762C8.02844 1.50762 7.33721 1.19747 6.41733 0.763211L5.94027 1.77375C6.82177 2.18989 7.73749 2.62511 8.79371 2.62511V1.50762ZM6.42195 0.765417L6.38842 0.749213L5.90213 1.75534L5.93565 1.77154L6.42195 0.765417ZM6.38359 0.746908C5.53373 0.346132 4.4636 -0.168606 3.20629 -0.168606V0.948879C4.17612 0.948879 5.02695 1.34266 5.90695 1.75764L6.38359 0.746908ZM3.20629 -0.168606C2.33058 -0.168606 1.49941 0.0893479 0.922124 0.320733L1.33788 1.358C1.8535 1.15133 2.53317 0.948879 3.20629 0.948879V-0.168606ZM0.922205 0.3207C0.606894 0.447025 0.299519 0.592319 0.00176531 0.755785L0.539546 1.73536C0.797774 1.59359 1.06435 1.46759 1.3378 1.35803L0.922205 0.3207ZM-0.00786125 0.761194C-0.0162544 0.76602 -0.0212629 0.76877 -0.0336723 0.775763C-0.042032 0.780473 -0.0615689 0.791453 -0.0818412 0.804354L0.518109 1.74713C0.515431 1.74884 0.51337 1.7501 0.512133 1.75085C0.510884 1.7516 0.510135 1.75204 0.510056 1.75208C0.509971 1.75213 0.510288 1.75195 0.511166 1.75145C0.512045 1.75095 0.513236 1.75027 0.514919 1.74932C0.51663 1.74836 0.518501 1.74731 0.520893 1.74597C0.523161 1.74469 0.525906 1.74315 0.528759 1.74155C0.534539 1.7383 0.541499 1.73436 0.549173 1.72995L-0.00786125 0.761194ZM-0.0610812 0.791768L-0.0756084 0.800149L0.482822 1.7681L0.497349 1.75972L-0.0610812 0.791768ZM-0.0462795 0.784374L-0.0507495 0.78661L0.449023 1.78611L0.453493 1.78387L-0.0462795 0.784374ZM-0.195942 0.891257L-0.19706 0.892374L0.593098 1.68258L0.594215 1.68146L-0.195942 0.891257ZM0.198019 0.728734H0.19746V1.84622H0.198019V0.728734ZM-0.0980031 0.813247C-0.315516 0.948766 -0.471131 1.16426 -0.531357 1.41336L0.554832 1.67598C0.546228 1.71156 0.523997 1.74235 0.492924 1.76171L-0.0980031 0.813247ZM-0.531357 1.41336C-0.591583 1.66246 -0.551606 1.92525 -0.42003 2.14517L0.538928 1.57143C0.557724 1.60285 0.563435 1.64039 0.554832 1.67598L-0.531357 1.41336ZM-0.42003 2.14517C-0.288454 2.36509 -0.075796 2.52456 0.172177 2.58927L0.454327 1.50799C0.489751 1.51723 0.520131 1.54002 0.538928 1.57143L-0.42003 2.14517ZM0.172177 2.58927C0.419883 2.6539 0.683934 2.61888 0.906429 2.49115L0.350072 1.52201C0.382062 1.50364 0.419169 1.49882 0.454327 1.50799L0.172177 2.58927Z" fill="white" mask="url(#path-1-inside-1_780_10201)"/>
</svg>
