<svg width="14" height="14" viewBox="0 0 14 14" fill="none" xmlns="http://www.w3.org/2000/svg">
<path d="M8.5281 7.14836L9.4998 6.17666C9.88017 5.79629 10.4371 5.66485 10.9538 5.81439C11.5034 5.97346 12.1216 5.83246 12.5499 5.39141C13.1375 4.78637 13.1517 3.81429 12.581 3.19334C12.2441 2.82678 11.7802 2.65437 11.3239 2.67607C11.3456 2.21978 11.1732 1.75595 10.8067 1.41903C10.1857 0.848246 9.21363 0.862489 8.60858 1.4501C8.16753 1.87842 8.02656 2.49654 8.18561 3.04622C8.33514 3.56295 8.20373 4.11985 7.82336 4.50022L4.50021 7.82334C4.11984 8.2037 3.56294 8.33512 3.04623 8.18561C2.49654 8.02653 1.87842 8.16753 1.45008 8.60858C0.862492 9.21363 0.848248 10.1857 1.41903 10.8067C1.75596 11.1732 2.21979 11.3456 2.67608 11.3239C2.65437 11.7802 2.82679 12.244 3.19335 12.581C3.8143 13.1518 4.78635 13.1375 5.39143 12.5499C5.83248 12.1216 5.97348 11.5035 5.81441 10.9538C5.66487 10.4371 5.79631 9.88017 6.17667 9.4998L7.14838 8.5281" stroke="white" stroke-width="0.780488" stroke-miterlimit="10" stroke-linecap="round" stroke-linejoin="round"/>
<path d="M10.3826 3.22461C10.4434 3.145 10.7683 2.70503 11.3237 2.67627M3.22412 10.3831C3.14451 10.4438 2.70454 10.7688 2.67578 11.3241" stroke="white" stroke-width="0.780488" stroke-miterlimit="10" stroke-linecap="round" stroke-linejoin="round"/>
</svg>
