<svg width="16" height="16" viewBox="0 0 16 16" fill="none" xmlns="http://www.w3.org/2000/svg">
<path d="M12.9112 3.46915C12.2176 2.78889 11.2973 2.40207 10.3235 2.40207C9.48322 2.40207 8.65624 2.68218 8.00266 3.21572C6.41539 1.93523 4.0945 2.17532 2.81401 3.76259C1.86698 4.93637 1.7336 6.59033 2.48055 7.8975H4.2679L6.12194 5.49994L7.33574 8.36434L8.69626 5.95009L9.84336 7.91084L10.5 8.49994L9.38986 8.71114L8.7096 7.56404L7 9.49994L5.90853 6.63035L4.72141 8.6978H3.09412L8.00266 13.6063L12.9379 8.67113C14.3651 7.23058 14.3517 4.89636 12.9112 3.46915Z" fill="white"/>
</svg>
