<svg width="16" height="16" viewBox="0 0 16 16" fill="none" xmlns="http://www.w3.org/2000/svg">
<path fill-rule="evenodd" clip-rule="evenodd" d="M7.04232 1.3335C6.83521 1.3335 6.66732 1.50139 6.66732 1.7085V6.66683H1.70899C1.50188 6.66683 1.33398 6.83472 1.33398 7.04183V8.9585C1.33398 9.1656 1.50188 9.3335 1.70898 9.3335H6.66732V14.2918C6.66732 14.4989 6.83521 14.6668 7.04232 14.6668H8.95898C9.16609 14.6668 9.33399 14.4989 9.33399 14.2918V9.3335H14.2923C14.4994 9.3335 14.6673 9.1656 14.6673 8.9585V7.04183C14.6673 6.83472 14.4994 6.66683 14.2923 6.66683H9.33399V1.7085C9.33399 1.50139 9.16609 1.3335 8.95898 1.3335H7.04232Z" fill="white"/>
</svg>
