<svg width="16" height="16" viewBox="0 0 16 16" fill="none" xmlns="http://www.w3.org/2000/svg">
<path d="M12.9112 3.46921C12.2176 2.78895 11.2973 2.40214 10.3235 2.40214C9.48322 2.40214 8.65624 2.68224 8.00266 3.21578C6.41539 1.93529 4.0945 2.17538 2.81401 3.76265C1.86698 4.93643 1.7336 6.5904 2.48055 7.89756H4.2679L6.12194 5.5L7.33574 8.3644L8.69626 5.95015L9.84336 7.9109L10.5 8.5L9.38986 8.7112L8.7096 7.5641L7 9.5L5.90853 6.63041L4.72141 8.69787H3.09412L8.00266 13.6064L12.9379 8.67119C14.3651 7.23064 14.3517 4.89642 12.9112 3.46921Z" fill="white"/>
</svg>
