<svg width="20" height="12" viewBox="0 0 20 12" fill="none" xmlns="http://www.w3.org/2000/svg">
<path fill-rule="evenodd" clip-rule="evenodd" d="M14.2166 2.88364L9.35341 7.74679L8.76415 7.15754L13.6273 2.29438L13.9219 1.99976L14.5112 2.58901L14.2166 2.88364ZM4.41009 7.51752L6.99639 10.1038L6.71657 10.3836L6.42194 10.6783L6.12731 10.3836L1.96064 6.21697L1.66602 5.92234L2.25527 5.33309L2.5499 5.62772L3.24639 6.32421L3.23158 6.33901L4.41009 7.51752ZM17.5502 3.30039L17.8449 3.00576L17.2556 2.4165L16.961 2.71113L9.7556 9.9165L5.88356 6.04447L5.58893 5.74984L4.99967 6.33909L5.2943 6.63372L9.46097 10.8004L9.7556 11.095L10.0502 10.8004L17.5502 3.30039Z" fill="#329A80"/>
</svg>
