<svg width="24" height="24" viewBox="0 0 24 24" fill="none" xmlns="http://www.w3.org/2000/svg">
<path d="M18.6161 14.7323C17.9962 14.7324 17.3852 14.881 16.8345 15.1657C16.2837 15.4503 15.8091 15.8627 15.4504 16.3684L9.08288 13.185C9.20288 12.8111 9.26775 12.4129 9.26775 12C9.26775 11.5871 9.20288 11.1885 9.08288 10.8146L15.45 7.63125C15.8086 8.13706 16.2832 8.5496 16.8339 8.83432C17.3847 9.11904 17.9957 9.26767 18.6157 9.26775C20.7577 9.26775 22.5 7.5255 22.5 5.38388C22.5 3.24225 20.7578 1.5 18.6161 1.5C16.4745 1.5 14.7323 3.24225 14.7323 5.38388C14.7323 5.68613 14.7671 5.9805 14.8328 6.26288L8.35538 9.50138C7.99131 9.06746 7.53661 8.71857 7.02323 8.47924C6.50986 8.23992 5.95029 8.11597 5.38388 8.11613C3.24225 8.11613 1.5 9.85837 1.5 12C1.5 14.1416 3.24225 15.8839 5.38388 15.8839C6.57488 15.8839 7.6425 15.345 8.35538 14.4982L14.8324 17.7371C14.7655 18.0253 14.7318 18.3203 14.7319 18.6161C14.7323 20.7578 16.4745 22.5 18.6161 22.5C20.7578 22.5 22.5 20.7578 22.5 18.6161C22.5 16.4745 20.7578 14.7323 18.6161 14.7323ZM18.6161 3C19.9305 3 21 4.0695 21 5.38388C21 6.69825 19.9305 7.76775 18.6161 7.76775C17.3018 7.76775 16.2326 6.69825 16.2326 5.38388C16.2326 4.0695 17.3018 3 18.6161 3ZM5.38388 14.3839C4.75185 14.3832 4.1459 14.1318 3.69899 13.6849C3.25208 13.238 3.00069 12.632 3 12C3 10.6856 4.0695 9.61613 5.38388 9.61613C6.69825 9.61613 7.76775 10.6856 7.76775 12C7.76706 12.632 7.51567 13.238 7.06876 13.6849C6.62185 14.1318 6.0159 14.3832 5.38388 14.3839ZM18.6161 21C17.3018 21 16.2326 19.9305 16.2326 18.6161C16.2326 17.3018 17.3021 16.2326 18.6161 16.2326C19.2481 16.2333 19.854 16.4846 20.3009 16.9315C20.7478 17.3783 20.9992 17.9842 21 18.6161C20.9992 19.2481 20.7478 19.854 20.3009 20.3009C19.854 20.7478 19.2481 20.9992 18.6161 21Z" fill="#061310"/>
</svg>
