<svg width="12" height="12" viewBox="0 0 12 12" fill="none" xmlns="http://www.w3.org/2000/svg">
<path d="M5.44687 1.31603C5.65283 0.826008 6.34717 0.826009 6.55313 1.31603L7.45679 3.46607C7.54334 3.672 7.73714 3.8128 7.95974 3.83148L10.2838 4.02652C10.8135 4.07097 11.028 4.73133 10.6256 5.07863L8.86009 6.60246C8.69098 6.74842 8.61695 6.97624 8.66798 7.19372L9.20066 9.46429C9.32206 9.98178 8.76033 10.3899 8.30567 10.1145L6.31084 8.90628C6.11977 8.79055 5.88023 8.79055 5.68916 8.90628L3.69433 10.1145C3.23967 10.3899 2.67794 9.98178 2.79934 9.46429L3.33202 7.19372C3.38305 6.97624 3.30902 6.74842 3.13991 6.60246L1.37436 5.07863C0.97196 4.73133 1.18652 4.07097 1.71621 4.02652L4.04026 3.83148C4.26286 3.8128 4.45666 3.672 4.54321 3.46607L5.44687 1.31603Z" fill="#329A80"/>
</svg>
