<svg width="32" height="32" viewBox="0 0 32 32" fill="none" xmlns="http://www.w3.org/2000/svg">
<path d="M15.1396 3.76774C15.46 3.00548 16.54 3.00548 16.8604 3.76774L19.2702 9.50115C19.5972 10.2791 20.3293 10.811 21.1702 10.8816L27.3677 11.4017C28.1916 11.4709 28.5254 12.4981 27.8995 13.0383L23.1913 17.1019C22.5525 17.6533 22.2728 18.5139 22.4656 19.3355L23.886 25.3904C24.0749 26.1954 23.2011 26.8302 22.4938 26.4019L17.1743 23.1798C16.4525 22.7426 15.5475 22.7426 14.8257 23.1798L9.50616 26.4019C8.79892 26.8302 7.9251 26.1954 8.11396 25.3904L9.53444 19.3355C9.72719 18.5139 9.44755 17.6533 8.80869 17.1019L4.10054 13.0383C3.47459 12.4981 3.80836 11.4709 4.63231 11.4017L10.8298 10.8816C11.6707 10.811 12.4028 10.2791 12.7298 9.50115L15.1396 3.76774Z" stroke="black" stroke-width="1.33333"/>
</svg>
