<svg width="22" height="22" viewBox="0 0 22 22" fill="none" xmlns="http://www.w3.org/2000/svg">
<path d="M1.79913 10.8848L6.22663 12.3883L16.7392 5.96159C16.8918 5.86878 17.0479 6.07571 16.9166 6.19671L8.95807 13.522L8.66245 17.623C8.65762 17.6917 8.67379 17.7602 8.70881 17.8195C8.74383 17.8788 8.79605 17.926 8.85854 17.955C8.92103 17.9839 8.99084 17.9932 9.05872 17.9815C9.12659 17.9699 9.18931 17.9378 9.23857 17.8897L11.6888 15.48L16.1686 18.8708C16.6512 19.2365 17.3504 18.9787 17.4803 18.3875L20.5995 4.22496C20.7776 3.41715 19.9856 2.73515 19.2135 3.03078L1.77713 9.70778C1.22988 9.91746 1.24501 10.6964 1.79913 10.8848Z" fill="white"/>
</svg>
