<svg width="23" height="23" viewBox="0 0 23 23" fill="none" xmlns="http://www.w3.org/2000/svg">
<path d="M2.02667 11.0997L6.45417 12.6034L16.9667 6.17617C17.1194 6.08335 17.2754 6.2903 17.1441 6.41131L9.18561 13.7372L8.88999 17.8384C8.88516 17.9071 8.90132 17.9757 8.93635 18.035C8.97137 18.0943 9.02359 18.1415 9.08608 18.1704C9.14857 18.1994 9.21838 18.2086 9.28625 18.197C9.35413 18.1853 9.41685 18.1533 9.46611 18.1052L11.9164 15.6953L16.3961 19.0863C16.8787 19.4521 17.5779 19.1943 17.7079 18.603L20.827 4.43941C21.0051 3.63154 20.2131 2.94949 19.441 3.24514L2.00467 9.92264C1.45742 10.1323 1.47255 10.9113 2.02667 11.0997Z" fill="black"/>
</svg>
