<svg width="22" height="22" viewBox="0 0 22 22" fill="none" xmlns="http://www.w3.org/2000/svg">
<g clip-path="url(#clip0_237_12388)">
<path fill-rule="evenodd" clip-rule="evenodd" d="M11.1996 21.4333C9.37496 21.4362 7.57923 20.9776 5.97948 20.1L0 22L1.94902 16.2502C0.933381 14.5835 0.397325 12.6688 0.399868 10.717C0.399868 4.79841 5.23469 0 11.2003 0C17.1645 0 22 4.79775 22 10.717C22 16.6362 17.1639 21.4326 11.1989 21.4326L11.1996 21.4333ZM11.1996 1.70672C6.19265 1.70672 2.11983 5.74843 2.11983 10.717C2.11983 12.6879 2.762 14.5137 3.84906 15.9993L2.71499 19.3453L6.20391 18.2363C7.68755 19.211 9.42446 19.7291 11.1996 19.7266C16.2059 19.7266 20.28 15.6849 20.28 10.717C20.28 5.74909 16.2059 1.70672 11.1996 1.70672ZM16.6534 13.185C16.5872 13.0758 16.4105 13.0096 16.1463 12.8785C15.8815 12.7468 14.5793 12.1112 14.337 12.0245C14.094 11.9364 13.9172 11.8921 13.7411 12.1556C13.565 12.4184 13.0573 13.0096 12.9024 13.185C12.7481 13.3605 12.5938 13.3823 12.329 13.2512C12.0642 13.1195 11.2115 12.8421 10.1999 11.947C9.41344 11.2512 8.88183 10.3913 8.72758 10.1284C8.57332 9.86561 8.71102 9.72327 8.84343 9.59219C8.9626 9.47501 9.10824 9.28567 9.24065 9.13274C9.37306 8.97915 9.41741 8.86991 9.50546 8.69447C9.59351 8.51904 9.54982 8.36611 9.48362 8.23436C9.41741 8.10262 8.88779 6.81033 8.66667 6.28401C8.44621 5.75836 8.22642 5.84641 8.07084 5.84641C7.91659 5.84641 7.73982 5.8239 7.56372 5.8239C7.38762 5.8239 7.1003 5.8901 6.858 6.15293C6.61503 6.41576 5.93115 7.05131 5.93115 8.34426C5.93115 9.63655 6.87984 10.8851 7.01225 11.0599C7.14466 11.2354 8.84343 13.9742 11.5339 15.0255C14.2264 16.0775 14.2264 15.7266 14.7117 15.6829C15.197 15.6392 16.2774 15.0473 16.4992 14.4343C16.719 13.8206 16.719 13.2943 16.6534 13.185Z" fill="white"/>
</g>
<defs>
<clipPath id="clip0_237_12388">
<rect width="22" height="22" fill="white"/>
</clipPath>
</defs>
</svg>
