<svg width="23" height="23" viewBox="0 0 23 23" fill="none" xmlns="http://www.w3.org/2000/svg">
<g clip-path="url(#clip0_28_15592)">
<path fill-rule="evenodd" clip-rule="evenodd" d="M11.4191 21.6468C9.59444 21.6497 7.79871 21.191 6.19896 20.3134L0.219482 22.2136L2.16851 16.4634C1.15286 14.7965 0.616808 12.8817 0.61935 10.9297C0.61935 5.01068 5.45417 0.211914 11.4197 0.211914C17.384 0.211914 22.2195 5.01002 22.2195 10.9297C22.2195 16.8494 17.3833 21.6462 11.4184 21.6462L11.4191 21.6468ZM11.4191 1.91876C6.41213 1.91876 2.33931 5.96077 2.33931 10.9297C2.33931 12.9007 2.98148 14.7267 4.06854 16.2125L2.93448 19.5586L6.42339 18.4496C7.90703 19.4243 9.64394 19.9425 11.4191 19.94C16.4254 19.94 20.4995 15.898 20.4995 10.9297C20.4995 5.96143 16.4254 1.91876 11.4191 1.91876ZM16.8729 13.3979C16.8067 13.2887 16.6299 13.2225 16.3658 13.0914C16.101 12.9596 14.7988 12.324 14.5565 12.2373C14.3135 12.1493 14.1367 12.1049 13.9606 12.3684C13.7845 12.6312 13.2768 13.2225 13.1218 13.3979C12.9676 13.5734 12.8133 13.5952 12.5485 13.4641C12.2837 13.3324 11.431 13.055 10.4194 12.1598C9.63292 11.464 9.10131 10.604 8.94706 10.3411C8.7928 10.0783 8.9305 9.93591 9.06291 9.80482C9.18208 9.68763 9.32772 9.49828 9.46013 9.34534C9.59254 9.19173 9.63689 9.08249 9.72494 8.90704C9.81299 8.73159 9.7693 8.57864 9.7031 8.44689C9.63689 8.31514 9.10727 7.02275 8.88615 6.4964C8.66569 5.9707 8.4459 6.05876 8.29032 6.05876C8.13607 6.05876 7.9593 6.03625 7.7832 6.03625C7.6071 6.03625 7.31978 6.10246 7.07748 6.3653C6.83451 6.62815 6.15063 7.26375 6.15063 8.5568C6.15063 9.84918 7.09932 11.0979 7.23173 11.2727C7.36414 11.4481 9.06291 14.1871 11.7534 15.2385C14.4459 16.2906 14.4459 15.9397 14.9312 15.896C15.4164 15.8523 16.4969 15.2604 16.7187 14.6473C16.9385 14.0335 16.9384 13.5072 16.8729 13.3979Z" fill="black"/>
</g>
<defs>
<clipPath id="clip0_28_15592">
<rect width="22" height="22.0016" fill="white" transform="translate(0.21875 0.213379)"/>
</clipPath>
</defs>
</svg>
