<svg width="22" height="22" viewBox="0 0 22 22" fill="none" xmlns="http://www.w3.org/2000/svg">
<g clip-path="url(#clip0_237_12377)">
<path d="M19.5064 9.97197C19.8192 9.56754 20.0676 9.24304 20.251 8.99821C21.572 7.24189 22.1446 6.11994 21.9691 5.63079L21.9003 5.51623C21.8545 5.44742 21.7359 5.38423 21.5452 5.32703C21.3542 5.26988 21.1099 5.26075 20.8122 5.29848L17.5134 5.32175C17.4371 5.31415 17.3601 5.31592 17.2842 5.32703C17.2079 5.33865 17.1583 5.3503 17.1353 5.36142C17.1122 5.37307 17.0933 5.38241 17.0781 5.39002L17.0324 5.4244C16.9942 5.44717 16.9522 5.48738 16.9064 5.54483C16.8606 5.60223 16.8222 5.66877 16.7918 5.74539C16.4329 6.6693 16.0245 7.52849 15.5662 8.32268C15.2836 8.79617 15.0239 9.20692 14.7875 9.5539C14.5507 9.90167 14.3522 10.1574 14.1918 10.3213C14.0315 10.4854 13.8862 10.6174 13.7565 10.7164C13.6265 10.816 13.5274 10.8577 13.4589 10.8426C13.3937 10.8284 13.3287 10.813 13.2641 10.7965C13.1571 10.728 13.0711 10.6346 13.0064 10.516C12.9414 10.398 12.8976 10.2489 12.8746 10.0694C12.8518 9.89006 12.8382 9.73528 12.8346 9.60527C12.8306 9.47554 12.8326 9.29242 12.8404 9.05541C12.8481 8.81865 12.8518 8.65859 12.8518 8.57436C12.8518 8.28449 12.8576 7.96937 12.8691 7.62946C12.8805 7.28979 12.8901 7.02042 12.8976 6.82184C12.9052 6.62355 12.909 6.41336 12.909 6.19181C12.909 5.97075 12.8956 5.79672 12.8687 5.67055C12.8417 5.54449 12.8015 5.42164 12.7486 5.30406C12.695 5.18594 12.6168 5.09411 12.5136 5.0294C12.4105 4.96439 12.2827 4.91306 12.13 4.87458C11.725 4.78276 11.2096 4.7337 10.5836 4.72564C9.16319 4.71097 8.25065 4.80251 7.84597 5.0008C7.68562 5.08502 7.54044 5.19933 7.41071 5.34452C7.27314 5.51272 7.25417 5.60451 7.35356 5.61918C7.81184 5.68799 8.13613 5.85239 8.32706 6.11188L8.39587 6.24921C8.44923 6.34885 8.50262 6.52441 8.55622 6.7763C8.60962 7.02823 8.644 7.30694 8.65942 7.61247C8.6976 8.16989 8.6976 8.64693 8.65942 9.04429C8.62123 9.44161 8.58507 9.7507 8.55068 9.97176C8.51626 10.1933 8.46468 10.3726 8.39612 10.51C8.32731 10.6478 8.28156 10.7318 8.25854 10.7623C8.23552 10.7927 8.21655 10.8119 8.20139 10.8195C8.10268 10.8575 7.99783 10.8768 7.89209 10.8767C7.7851 10.8767 7.65533 10.8231 7.50258 10.7161C7.3498 10.6096 7.19123 10.4624 7.02732 10.2752C6.86292 10.0883 6.67802 9.82658 6.47164 9.49042C6.2655 9.1548 6.0515 8.75744 5.8302 8.29941L5.64708 7.96706C5.53252 7.7536 5.37593 7.44224 5.17739 7.03377C4.97886 6.62529 4.80305 6.23024 4.65055 5.84809C4.58935 5.68799 4.49776 5.56582 4.37564 5.4816L4.31849 5.44721C4.2803 5.41684 4.2191 5.38423 4.13512 5.35005C4.05031 5.31549 3.96192 5.29047 3.87157 5.27546L0.733062 5.29823C0.412363 5.29823 0.194858 5.37109 0.0802988 5.51623L0.0345082 5.58479C0.011365 5.62323 0 5.68443 0 5.76816C0 5.85239 0.0230193 5.95533 0.0688098 6.07725C0.527087 7.15419 1.02537 8.19271 1.56357 9.19274C2.10207 10.1933 2.56973 10.9991 2.9668 11.6099C3.36387 12.2212 3.76855 12.7974 4.18107 13.3396C4.5936 13.8819 4.86649 14.2291 5.00001 14.3817C5.13354 14.5347 5.23851 14.6493 5.31493 14.7254L5.60124 15.0005C5.78436 15.1837 6.05373 15.4032 6.40886 15.6592C6.76394 15.9151 7.15701 16.167 7.58875 16.4149C8.02 16.6633 8.52229 16.8653 9.09488 17.0222C9.66751 17.179 10.2249 17.2419 10.7672 17.2111H12.0844C12.3518 17.1883 12.5541 17.1046 12.6915 16.9592L12.7372 16.902C12.7675 16.8565 12.7964 16.7857 12.8232 16.6903C12.8497 16.5949 12.8635 16.4897 12.8635 16.3754C12.8556 16.0471 12.8807 15.7507 12.9378 15.4877C12.995 15.2241 13.0599 15.0258 13.1326 14.8918C13.2052 14.7585 13.2871 14.6457 13.3789 14.5539C13.4705 14.462 13.5352 14.4072 13.5736 14.3879C13.6118 14.3692 13.6425 14.3558 13.6653 14.3477C13.8483 14.2867 14.0641 14.346 14.3124 14.5253C14.5606 14.7051 14.7935 14.9261 15.0113 15.1897C15.2287 15.4532 15.4903 15.7489 15.7958 16.0774C16.1011 16.4057 16.3684 16.65 16.5976 16.8104L16.8267 16.9482C16.9795 17.0395 17.1778 17.1235 17.4224 17.2002C17.6667 17.2763 17.8807 17.2955 18.0638 17.2573L20.9961 17.2113C21.2862 17.2113 21.5116 17.1638 21.672 17.0681C21.8323 16.9733 21.9277 16.8676 21.9583 16.7533C21.9886 16.6387 21.9907 16.5095 21.9641 16.364C21.9374 16.2191 21.9105 16.1179 21.884 16.0607C21.8572 16.0036 21.8323 15.9555 21.8093 15.9176C21.4275 15.2304 20.6982 14.3864 19.6215 13.3861L19.5985 13.3633L19.5872 13.3517L19.5758 13.3405H19.5643C19.0754 12.8747 18.7663 12.5615 18.6365 12.4009C18.3999 12.0959 18.3462 11.7866 18.4762 11.4735C18.5673 11.2361 18.9108 10.7358 19.5064 9.97197Z" fill="white"/>
</g>
<defs>
<clipPath id="clip0_237_12377">
<rect width="22" height="22" fill="white"/>
</clipPath>
</defs>
</svg>
