<svg width="23" height="23" viewBox="0 0 23 23" fill="none" xmlns="http://www.w3.org/2000/svg">
<g clip-path="url(#clip0_28_15581)">
<path d="M19.7258 10.1862C20.0387 9.78176 20.2871 9.45724 20.4705 9.2124C21.7915 7.45594 22.3641 6.33391 22.1886 5.84472L22.1198 5.73016C22.074 5.66134 21.9554 5.59815 21.7647 5.54095C21.5737 5.48379 21.3294 5.47465 21.0317 5.51239L17.7329 5.53566C17.6566 5.52806 17.5796 5.52983 17.5037 5.54095C17.4273 5.55256 17.3778 5.56422 17.3547 5.57533C17.3317 5.58699 17.3127 5.59633 17.2976 5.60393L17.2518 5.63832C17.2136 5.66109 17.1717 5.70131 17.1259 5.75876C17.0801 5.81617 17.0416 5.88271 17.0113 5.95933C16.6524 6.88331 16.2439 7.74257 15.7857 8.53681C15.5031 9.01034 15.2434 9.42112 15.0069 9.76813C14.7702 10.1159 14.5716 10.3717 14.4112 10.5355C14.2509 10.6997 14.1057 10.8317 13.976 10.9307C13.846 11.0303 13.7469 11.0721 13.6783 11.0569C13.6132 11.0427 13.5482 11.0273 13.4836 11.0108C13.3766 10.9423 13.2906 10.849 13.2259 10.7303C13.1609 10.6123 13.1171 10.4632 13.0941 10.2836C13.0713 10.1043 13.0577 9.94952 13.0541 9.8195C13.0501 9.68976 13.0521 9.50663 13.0599 9.2696C13.0675 9.03282 13.0713 8.87275 13.0713 8.78852C13.0713 8.49863 13.0771 8.18348 13.0886 7.84354C13.0999 7.50385 13.1096 7.23446 13.1171 7.03586C13.1247 6.83756 13.1285 6.62735 13.1285 6.40578C13.1285 6.18471 13.1151 6.01067 13.0882 5.88448C13.0612 5.75841 13.021 5.63556 12.9681 5.51797C12.9145 5.39985 12.8363 5.30801 12.7331 5.24329C12.63 5.17827 12.5022 5.12694 12.3495 5.08846C11.9445 4.99663 11.4291 4.94757 10.8031 4.93951C9.38267 4.92484 8.47013 5.01638 8.06545 5.21469C7.9051 5.29892 7.75992 5.41324 7.63019 5.55843C7.49262 5.72664 7.47365 5.81844 7.57304 5.83311C8.03132 5.90193 8.35561 6.06634 8.54654 6.32585L8.61535 6.46319C8.66871 6.56284 8.7221 6.73841 8.7757 6.99032C8.8291 7.24227 8.86348 7.521 8.8789 7.82655C8.91708 8.38402 8.91708 8.86109 8.8789 9.25848C8.84071 9.65583 8.80455 9.96494 8.77016 10.186C8.73574 10.4076 8.68416 10.5869 8.6156 10.7243C8.54679 10.8621 8.50104 10.9461 8.47802 10.9767C8.455 11.007 8.43603 11.0262 8.42087 11.0339C8.32216 11.0718 8.21731 11.0912 8.11157 11.091C8.00458 11.091 7.87481 11.0374 7.72206 10.9304C7.56928 10.8239 7.41071 10.6767 7.2468 10.4895C7.0824 10.3026 6.8975 10.0408 6.69112 9.70464C6.48498 9.369 6.27098 8.97161 6.04968 8.51355L5.86656 8.18117C5.752 7.9677 5.59541 7.65631 5.39687 7.24781C5.19834 6.8393 5.02253 6.44422 4.87003 6.06204C4.80883 5.90193 4.71725 5.77975 4.59512 5.69552L4.53797 5.66114C4.49978 5.63076 4.43858 5.59815 4.3546 5.56397C4.26979 5.5294 4.1814 5.50438 4.09106 5.48937L0.952544 5.51214C0.631845 5.51214 0.41434 5.585 0.299781 5.73016L0.253991 5.79872C0.230847 5.83716 0.219482 5.89837 0.219482 5.98211C0.219482 6.06634 0.242502 6.16929 0.288292 6.29122C0.74657 7.36824 1.24485 8.40683 1.78306 9.40694C2.32155 10.4076 2.78921 11.2134 3.18628 11.8243C3.58335 12.4357 3.98803 13.0119 4.40056 13.5541C4.81308 14.0964 5.08597 14.4437 5.2195 14.5962C5.35302 14.7493 5.458 14.8639 5.53441 14.94L5.82072 15.2152C6.00385 15.3983 6.27322 15.6179 6.62834 15.8738C6.98342 16.1298 7.37649 16.3818 7.80823 16.6297C8.23948 16.8781 8.74177 17.0801 9.31436 17.237C9.88699 17.3938 10.4444 17.4567 10.9867 17.4259H12.3039C12.5713 17.4031 12.7735 17.3194 12.9109 17.1739L12.9567 17.1168C12.987 17.0712 13.0159 17.0004 13.0427 16.905C13.0692 16.8097 13.0829 16.7045 13.0829 16.5901C13.0751 16.2619 13.1001 15.9654 13.1573 15.7023C13.2145 15.4388 13.2794 15.2405 13.3521 15.1064C13.4246 14.9731 13.5066 14.8603 13.5983 14.7685C13.69 14.6766 13.7547 14.6217 13.7931 14.6025C13.8313 14.5838 13.862 14.5704 13.8847 14.5623C14.0678 14.5013 14.2835 14.5605 14.5319 14.7399C14.7801 14.9197 15.013 15.1408 15.2308 15.4043C15.4482 15.6679 15.7097 15.9636 16.0153 16.2922C16.3206 16.6204 16.5879 16.8648 16.8171 17.0251L17.0462 17.163C17.1989 17.2543 17.3973 17.3383 17.6418 17.415C17.8862 17.4911 18.1002 17.5103 18.2832 17.4721L21.2156 17.4261C21.5057 17.4261 21.7311 17.3786 21.8915 17.2829C22.0518 17.1881 22.1472 17.0823 22.1778 16.968C22.2081 16.8535 22.2101 16.7242 22.1836 16.5787C22.1568 16.4338 22.13 16.3326 22.1035 16.2755C22.0767 16.2183 22.0518 16.1702 22.0288 16.1323C21.6469 15.445 20.9177 14.601 19.841 13.6006L19.818 13.5778L19.8066 13.5662L19.7953 13.5551H19.7838C19.2949 13.0891 18.9858 12.776 18.856 12.6154C18.6193 12.3104 18.5657 12.001 18.6957 11.6879C18.7868 11.4504 19.1302 10.9501 19.7258 10.1862Z" fill="black"/>
</g>
<defs>
<clipPath id="clip0_28_15581">
<rect width="22" height="22.0016" fill="white" transform="translate(0.21875 0.213379)"/>
</clipPath>
</defs>
</svg>
