<svg width="23" height="23" viewBox="0 0 23 23" fill="none" xmlns="http://www.w3.org/2000/svg">
<g clip-path="url(#clip0_28_15584)">
<path d="M21.362 4.80037C20.5679 3.85629 19.1017 3.47119 16.3016 3.47119H6.1372C3.27301 3.47119 1.78198 3.88113 0.990831 4.88625C0.219482 5.86625 0.219482 7.31019 0.219482 9.30865V13.1177C0.219482 16.9894 1.13468 18.9551 6.1372 18.9551H16.3016C18.7299 18.9551 20.0754 18.6153 20.9459 17.7821C21.8386 16.9278 22.2195 15.5328 22.2195 13.1177V9.30865C22.2195 7.20111 22.1598 5.74865 21.362 4.80037ZM14.3436 11.7391L9.72795 14.1515C9.61979 14.2081 9.49886 14.2358 9.37684 14.232C9.25483 14.2282 9.13586 14.193 9.03145 14.1297C8.92704 14.0665 8.84071 13.9773 8.78082 13.871C8.72092 13.7646 8.68949 13.6445 8.68955 13.5225V8.71305C8.68956 8.59115 8.72096 8.47131 8.78073 8.36507C8.8405 8.25883 8.92662 8.16978 9.0308 8.10649C9.13497 8.04321 9.25369 8.00783 9.37551 8.00375C9.49733 7.99968 9.61815 8.02705 9.72632 8.08323L14.3419 10.4801C14.4571 10.54 14.5537 10.6302 14.6212 10.7411C14.6886 10.852 14.7244 10.9793 14.7246 11.1091C14.7247 11.2389 14.6893 11.3663 14.6221 11.4774C14.5549 11.5884 14.4586 11.6789 14.3436 11.7391Z" fill="black"/>
</g>
<defs>
<clipPath id="clip0_28_15584">
<rect width="22" height="22.0016" fill="white" transform="translate(0.21875 0.213379)"/>
</clipPath>
</defs>
</svg>
