<svg width="22" height="22" viewBox="0 0 22 22" fill="none" xmlns="http://www.w3.org/2000/svg">
<g clip-path="url(#clip0_237_12380)">
<path d="M21.1425 4.58738C20.3484 3.64337 18.8822 3.2583 16.0821 3.2583H5.91772C3.05353 3.2583 1.5625 3.66821 0.771349 4.67326C0 5.65318 0 7.09702 0 9.09533V12.9041C0 16.7755 0.9152 18.7411 5.91772 18.7411H16.0821C18.5104 18.7411 19.8559 18.4013 20.7264 17.5682C21.6191 16.7139 22 15.319 22 12.9041V9.09533C22 6.98794 21.9403 5.53558 21.1425 4.58738ZM14.1241 11.5255L9.50847 13.9378C9.40031 13.9944 9.27938 14.0221 9.15736 14.0183C9.03535 14.0145 8.91638 13.9793 8.81197 13.916C8.70756 13.8528 8.62123 13.7637 8.56133 13.6573C8.50144 13.5509 8.47001 13.4309 8.47007 13.3088V8.49977C8.47008 8.37788 8.50148 8.25804 8.56125 8.15181C8.62102 8.04558 8.70714 7.95654 8.81131 7.89326C8.91549 7.82998 9.03421 7.7946 9.15603 7.79052C9.27785 7.78645 9.39867 7.81382 9.50684 7.87L14.1224 10.2667C14.2376 10.3265 14.3342 10.4168 14.4017 10.5277C14.4692 10.6386 14.5049 10.7658 14.5051 10.8956C14.5053 11.0254 14.4698 11.1528 14.4026 11.2639C14.3355 11.3749 14.2391 11.4654 14.1241 11.5255Z" fill="white"/>
</g>
<defs>
<clipPath id="clip0_237_12380">
<rect width="22" height="22" fill="white"/>
</clipPath>
</defs>
</svg>
